<svg width="1042" height="128" viewBox="0 0 1042 128" fill="none" xmlns="http://www.w3.org/2000/svg">
<path d="M334.977 46.875V49.4336H339V50.8301H334.977V56.5723C334.977 56.9824 335.029 57.321 335.133 57.5879C335.237 57.8548 335.38 58.0664 335.562 58.2227C335.745 58.3854 335.953 58.4993 336.188 58.5645C336.428 58.6296 336.682 58.6621 336.949 58.6621C337.145 58.6621 337.346 58.6523 337.555 58.6328C337.763 58.6068 337.968 58.5775 338.17 58.5449C338.365 58.5124 338.548 58.4798 338.717 58.4473C338.893 58.4082 339.036 58.3757 339.146 58.3496L339.4 59.6289C339.251 59.7201 339.068 59.8014 338.854 59.873C338.639 59.9382 338.404 59.9935 338.15 60.0391C337.896 60.0911 337.626 60.1302 337.34 60.1562C337.06 60.1823 336.78 60.1953 336.5 60.1953C336.031 60.1953 335.592 60.1302 335.182 60C334.778 59.8633 334.426 59.6484 334.127 59.3555C333.827 59.069 333.59 58.6979 333.414 58.2422C333.245 57.7799 333.16 57.2233 333.16 56.5723V50.8301H330.387V49.4336H333.16V46.875H334.977ZM348.203 54.6191C348.203 53.8574 348.314 53.151 348.535 52.5C348.757 51.8424 349.076 51.2728 349.492 50.791C349.902 50.3092 350.404 49.9316 350.996 49.6582C351.589 49.3783 352.256 49.2383 352.998 49.2383C353.747 49.2383 354.417 49.3783 355.01 49.6582C355.609 49.9316 356.117 50.3092 356.533 50.791C356.943 51.2728 357.259 51.8424 357.48 52.5C357.702 53.151 357.812 53.8574 357.812 54.6191V54.834C357.812 55.5957 357.702 56.3021 357.48 56.9531C357.259 57.6042 356.943 58.1706 356.533 58.6523C356.117 59.1341 355.612 59.5117 355.02 59.7852C354.427 60.0586 353.76 60.1953 353.018 60.1953C352.269 60.1953 351.595 60.0586 350.996 59.7852C350.404 59.5117 349.902 59.1341 349.492 58.6523C349.076 58.1706 348.757 57.6042 348.535 56.9531C348.314 56.3021 348.203 55.5957 348.203 54.834V54.6191ZM350.01 54.834C350.01 55.3548 350.072 55.8529 350.195 56.3281C350.319 56.7969 350.508 57.2103 350.762 57.5684C351.009 57.9264 351.322 58.2096 351.699 58.418C352.077 58.6263 352.516 58.7305 353.018 58.7305C353.512 58.7305 353.945 58.6263 354.316 58.418C354.694 58.2096 355.01 57.9264 355.264 57.5684C355.511 57.2103 355.697 56.7969 355.82 56.3281C355.944 55.8529 356.006 55.3548 356.006 54.834V54.6191C356.006 54.1048 355.941 53.6133 355.811 53.1445C355.687 52.6693 355.501 52.2526 355.254 51.8945C355 51.5365 354.684 51.2533 354.307 51.0449C353.936 50.8301 353.499 50.7227 352.998 50.7227C352.497 50.7227 352.061 50.8301 351.689 51.0449C351.318 51.2533 351.009 51.5365 350.762 51.8945C350.508 52.2526 350.319 52.6693 350.195 53.1445C350.072 53.6133 350.01 54.1048 350.01 54.6191V54.834ZM389.236 58.7305C389.562 58.7305 389.878 58.6784 390.184 58.5742C390.496 58.4701 390.773 58.3236 391.014 58.1348C391.255 57.9525 391.447 57.7376 391.59 57.4902C391.74 57.2363 391.818 56.9629 391.824 56.6699H393.533C393.527 57.1387 393.403 57.5879 393.162 58.0176C392.928 58.4408 392.612 58.8118 392.215 59.1309C391.818 59.4564 391.362 59.7168 390.848 59.9121C390.333 60.1009 389.796 60.1953 389.236 60.1953C388.436 60.1953 387.736 60.0521 387.137 59.7656C386.538 59.4792 386.04 59.0918 385.643 58.6035C385.239 58.1217 384.936 57.5651 384.734 56.9336C384.533 56.2956 384.432 55.625 384.432 54.9219V54.5117C384.432 53.8151 384.533 53.1478 384.734 52.5098C384.936 51.8717 385.239 51.3086 385.643 50.8203C386.04 50.3385 386.538 49.9544 387.137 49.668C387.736 49.3815 388.436 49.2383 389.236 49.2383C389.861 49.2383 390.434 49.3392 390.955 49.541C391.482 49.7363 391.938 50.0033 392.322 50.3418C392.7 50.6868 392.996 51.0938 393.211 51.5625C393.426 52.0312 393.533 52.5326 393.533 53.0664H391.824C391.818 52.7474 391.746 52.4479 391.609 52.168C391.479 51.8815 391.3 51.6309 391.072 51.416C390.844 51.2012 390.571 51.0319 390.252 50.9082C389.939 50.7845 389.601 50.7227 389.236 50.7227C388.676 50.7227 388.204 50.8366 387.82 51.0645C387.443 51.2858 387.137 51.5755 386.902 51.9336C386.668 52.2982 386.499 52.7051 386.395 53.1543C386.297 53.6035 386.248 54.056 386.248 54.5117V54.9219C386.248 55.3841 386.297 55.8431 386.395 56.2988C386.499 56.748 386.668 57.1517 386.902 57.5098C387.13 57.8743 387.433 58.1706 387.811 58.3984C388.195 58.6198 388.67 58.7305 389.236 58.7305ZM409.689 60C409.618 59.8633 409.559 59.694 409.514 59.4922C409.475 59.2839 409.445 59.069 409.426 58.8477C409.243 59.0299 409.038 59.2025 408.811 59.3652C408.589 59.528 408.345 59.6712 408.078 59.7949C407.805 59.9186 407.515 60.0163 407.209 60.0879C406.903 60.1595 406.577 60.1953 406.232 60.1953C405.673 60.1953 405.165 60.1139 404.709 59.9512C404.26 59.7884 403.879 59.5671 403.566 59.2871C403.247 59.0137 403 58.6882 402.824 58.3105C402.655 57.9264 402.57 57.513 402.57 57.0703C402.57 56.4909 402.684 55.9831 402.912 55.5469C403.146 55.1107 403.475 54.7461 403.898 54.4531C404.322 54.1667 404.829 53.9518 405.422 53.8086C406.021 53.6654 406.688 53.5938 407.424 53.5938H409.396V52.7637C409.396 52.4447 409.338 52.1582 409.221 51.9043C409.104 51.6504 408.938 51.4323 408.723 51.25C408.508 51.0742 408.244 50.9375 407.932 50.8398C407.626 50.7422 407.281 50.6934 406.896 50.6934C406.538 50.6934 406.216 50.7389 405.93 50.8301C405.65 50.9212 405.412 51.0417 405.217 51.1914C405.021 51.3411 404.868 51.5202 404.758 51.7285C404.654 51.9303 404.602 52.1419 404.602 52.3633H402.785C402.792 51.9792 402.889 51.6016 403.078 51.2305C403.273 50.8594 403.553 50.5241 403.918 50.2246C404.276 49.9316 404.712 49.694 405.227 49.5117C405.747 49.3294 406.337 49.2383 406.994 49.2383C407.593 49.2383 408.15 49.3132 408.664 49.4629C409.178 49.6061 409.624 49.8242 410.002 50.1172C410.373 50.4167 410.666 50.7878 410.881 51.2305C411.096 51.6732 411.203 52.1908 411.203 52.7832V57.6953C411.203 58.0469 411.236 58.4212 411.301 58.8184C411.366 59.209 411.457 59.5508 411.574 59.8438V60H409.689ZM406.496 58.623C406.848 58.623 407.176 58.5775 407.482 58.4863C407.788 58.3952 408.068 58.2747 408.322 58.125C408.57 57.9753 408.785 57.806 408.967 57.6172C409.149 57.4219 409.292 57.2201 409.396 57.0117V54.873H407.717C407.092 54.873 406.545 54.9284 406.076 55.0391C405.614 55.1432 405.246 55.306 404.973 55.5273C404.777 55.6836 404.628 55.8691 404.523 56.084C404.426 56.2988 404.377 56.543 404.377 56.8164C404.377 57.0768 404.419 57.3177 404.504 57.5391C404.595 57.7604 404.729 57.9492 404.904 58.1055C405.08 58.2682 405.301 58.3952 405.568 58.4863C405.835 58.5775 406.145 58.623 406.496 58.623ZM421.041 45H426.441V58.4375H429.889V60H421.041V58.4375H424.635V46.5723H421.041V45ZM443.271 58.7305C443.597 58.7305 443.913 58.6784 444.219 58.5742C444.531 58.4701 444.808 58.3236 445.049 58.1348C445.29 57.9525 445.482 57.7376 445.625 57.4902C445.775 57.2363 445.853 56.9629 445.859 56.6699H447.568C447.562 57.1387 447.438 57.5879 447.197 58.0176C446.963 58.4408 446.647 58.8118 446.25 59.1309C445.853 59.4564 445.397 59.7168 444.883 59.9121C444.368 60.1009 443.831 60.1953 443.271 60.1953C442.471 60.1953 441.771 60.0521 441.172 59.7656C440.573 59.4792 440.075 59.0918 439.678 58.6035C439.274 58.1217 438.971 57.5651 438.77 56.9336C438.568 56.2956 438.467 55.625 438.467 54.9219V54.5117C438.467 53.8151 438.568 53.1478 438.77 52.5098C438.971 51.8717 439.274 51.3086 439.678 50.8203C440.075 50.3385 440.573 49.9544 441.172 49.668C441.771 49.3815 442.471 49.2383 443.271 49.2383C443.896 49.2383 444.469 49.3392 444.99 49.541C445.518 49.7363 445.973 50.0033 446.357 50.3418C446.735 50.6868 447.031 51.0938 447.246 51.5625C447.461 52.0312 447.568 52.5326 447.568 53.0664H445.859C445.853 52.7474 445.781 52.4479 445.645 52.168C445.514 51.8815 445.335 51.6309 445.107 51.416C444.88 51.2012 444.606 51.0319 444.287 50.9082C443.975 50.7845 443.636 50.7227 443.271 50.7227C442.712 50.7227 442.24 50.8366 441.855 51.0645C441.478 51.2858 441.172 51.5755 440.938 51.9336C440.703 52.2982 440.534 52.7051 440.43 53.1543C440.332 53.6035 440.283 54.056 440.283 54.5117V54.9219C440.283 55.3841 440.332 55.8431 440.43 56.2988C440.534 56.748 440.703 57.1517 440.938 57.5098C441.165 57.8743 441.468 58.1706 441.846 58.3984C442.23 58.6198 442.705 58.7305 443.271 58.7305ZM463.744 60L463.637 58.5449C463.285 59.0658 462.846 59.4727 462.318 59.7656C461.791 60.0521 461.182 60.1953 460.492 60.1953C459.939 60.1953 459.438 60.1107 458.988 59.9414C458.539 59.7656 458.155 59.4954 457.836 59.1309C457.517 58.7663 457.27 58.304 457.094 57.7441C456.924 57.1777 456.84 56.5007 456.84 55.7129V49.4336H458.646V55.7324C458.646 56.3053 458.692 56.7806 458.783 57.1582C458.874 57.5358 459.011 57.8353 459.193 58.0566C459.376 58.2845 459.597 58.444 459.857 58.5352C460.124 58.6263 460.43 58.6719 460.775 58.6719C461.179 58.6719 461.54 58.6263 461.859 58.5352C462.178 58.4375 462.455 58.304 462.689 58.1348C462.885 57.998 463.054 57.8353 463.197 57.6465C463.347 57.4512 463.471 57.2396 463.568 57.0117V49.4336H465.385V60H463.744ZM475.076 45H480.477V58.4375H483.924V60H475.076V58.4375H478.67V46.5723H475.076V45ZM499.748 60C499.676 59.8633 499.618 59.694 499.572 59.4922C499.533 59.2839 499.504 59.069 499.484 58.8477C499.302 59.0299 499.097 59.2025 498.869 59.3652C498.648 59.528 498.404 59.6712 498.137 59.7949C497.863 59.9186 497.574 60.0163 497.268 60.0879C496.962 60.1595 496.636 60.1953 496.291 60.1953C495.731 60.1953 495.223 60.1139 494.768 59.9512C494.318 59.7884 493.938 59.5671 493.625 59.2871C493.306 59.0137 493.059 58.6882 492.883 58.3105C492.714 57.9264 492.629 57.513 492.629 57.0703C492.629 56.4909 492.743 55.9831 492.971 55.5469C493.205 55.1107 493.534 54.7461 493.957 54.4531C494.38 54.1667 494.888 53.9518 495.48 53.8086C496.079 53.6654 496.747 53.5938 497.482 53.5938H499.455V52.7637C499.455 52.4447 499.396 52.1582 499.279 51.9043C499.162 51.6504 498.996 51.4323 498.781 51.25C498.566 51.0742 498.303 50.9375 497.99 50.8398C497.684 50.7422 497.339 50.6934 496.955 50.6934C496.597 50.6934 496.275 50.7389 495.988 50.8301C495.708 50.9212 495.471 51.0417 495.275 51.1914C495.08 51.3411 494.927 51.5202 494.816 51.7285C494.712 51.9303 494.66 52.1419 494.66 52.3633H492.844C492.85 51.9792 492.948 51.6016 493.137 51.2305C493.332 50.8594 493.612 50.5241 493.977 50.2246C494.335 49.9316 494.771 49.694 495.285 49.5117C495.806 49.3294 496.395 49.2383 497.053 49.2383C497.652 49.2383 498.208 49.3132 498.723 49.4629C499.237 49.6061 499.683 49.8242 500.061 50.1172C500.432 50.4167 500.725 50.7878 500.939 51.2305C501.154 51.6732 501.262 52.1908 501.262 52.7832V57.6953C501.262 58.0469 501.294 58.4212 501.359 58.8184C501.424 59.209 501.516 59.5508 501.633 59.8438V60H499.748ZM496.555 58.623C496.906 58.623 497.235 58.5775 497.541 58.4863C497.847 58.3952 498.127 58.2747 498.381 58.125C498.628 57.9753 498.843 57.806 499.025 57.6172C499.208 57.4219 499.351 57.2201 499.455 57.0117V54.873H497.775C497.15 54.873 496.604 54.9284 496.135 55.0391C495.673 55.1432 495.305 55.306 495.031 55.5273C494.836 55.6836 494.686 55.8691 494.582 56.084C494.484 56.2988 494.436 56.543 494.436 56.8164C494.436 57.0768 494.478 57.3177 494.562 57.5391C494.654 57.7604 494.787 57.9492 494.963 58.1055C495.139 58.2682 495.36 58.3952 495.627 58.4863C495.894 58.5775 496.203 58.623 496.555 58.623ZM515.094 46.875V49.4336H519.117V50.8301H515.094V56.5723C515.094 56.9824 515.146 57.321 515.25 57.5879C515.354 57.8548 515.497 58.0664 515.68 58.2227C515.862 58.3854 516.07 58.4993 516.305 58.5645C516.546 58.6296 516.799 58.6621 517.066 58.6621C517.262 58.6621 517.464 58.6523 517.672 58.6328C517.88 58.6068 518.085 58.5775 518.287 58.5449C518.482 58.5124 518.665 58.4798 518.834 58.4473C519.01 58.4082 519.153 58.3757 519.264 58.3496L519.518 59.6289C519.368 59.7201 519.186 59.8014 518.971 59.873C518.756 59.9382 518.521 59.9935 518.268 60.0391C518.014 60.0911 517.743 60.1302 517.457 60.1562C517.177 60.1823 516.897 60.1953 516.617 60.1953C516.148 60.1953 515.709 60.1302 515.299 60C514.895 59.8633 514.544 59.6484 514.244 59.3555C513.945 59.069 513.707 58.6979 513.531 58.2422C513.362 57.7799 513.277 57.2233 513.277 56.5723V50.8301H510.504V49.4336H513.277V46.875H515.094ZM533.496 60.1953C532.754 60.1953 532.07 60.0684 531.445 59.8145C530.827 59.5605 530.296 59.2057 529.854 58.75C529.411 58.2943 529.066 57.7539 528.818 57.1289C528.571 56.5039 528.447 55.8236 528.447 55.0879V54.6777C528.447 53.8249 528.584 53.0632 528.857 52.3926C529.131 51.7155 529.495 51.1426 529.951 50.6738C530.4 50.2116 530.911 49.8568 531.484 49.6094C532.064 49.362 532.656 49.2383 533.262 49.2383C534.023 49.2383 534.688 49.3717 535.254 49.6387C535.827 49.8991 536.302 50.2604 536.68 50.7227C537.057 51.1914 537.337 51.7415 537.52 52.373C537.708 53.0046 537.803 53.6882 537.803 54.4238V55.2344H530.254V55.3027C530.299 55.8171 530.4 56.2695 530.557 56.6602C530.719 57.0508 530.941 57.3958 531.221 57.6953C531.507 58.0143 531.852 58.265 532.256 58.4473C532.66 58.6296 533.105 58.7207 533.594 58.7207C534.238 58.7207 534.811 58.5905 535.312 58.3301C535.814 58.0697 536.23 57.7246 536.562 57.2949L537.666 58.1543C537.314 58.6882 536.787 59.1634 536.084 59.5801C535.387 59.9902 534.525 60.1953 533.496 60.1953ZM533.262 50.7227C532.897 50.7227 532.552 50.791 532.227 50.9277C531.901 51.0579 531.608 51.25 531.348 51.5039C531.087 51.7643 530.866 52.0833 530.684 52.4609C530.508 52.832 530.384 53.2617 530.312 53.75H535.996V53.6621C535.996 53.3366 535.934 52.9883 535.811 52.6172C535.687 52.2396 535.514 51.9141 535.293 51.6406C535.072 51.3672 534.792 51.1458 534.453 50.9766C534.121 50.8073 533.724 50.7227 533.262 50.7227ZM565.867 60L563.621 49.4336H565.223L566.453 56.1719L566.668 57.6855L566.932 56.1719L568.621 49.4336H569.783L571.463 56.1719L571.746 57.832L572.01 56.1719L573.182 49.4336H574.783L572.537 60H571.111L569.461 53.5254L569.188 51.8848L568.924 53.5254L567.293 60H565.867ZM584.67 51.0059C584.813 50.791 584.973 50.5957 585.148 50.4199C585.324 50.2376 585.51 50.0781 585.705 49.9414C586.018 49.7135 586.359 49.541 586.73 49.4238C587.108 49.3066 587.508 49.2448 587.932 49.2383C588.485 49.2383 588.986 49.3197 589.436 49.4824C589.891 49.6387 590.279 49.8861 590.598 50.2246C590.917 50.5632 591.161 50.9928 591.33 51.5137C591.506 52.028 591.594 52.64 591.594 53.3496V60H589.787V53.3301C589.787 52.9134 589.738 52.5488 589.641 52.2363C589.543 51.9173 589.4 51.6536 589.211 51.4453C589.009 51.2174 588.755 51.0482 588.449 50.9375C588.143 50.8203 587.792 50.765 587.395 50.7715C587.069 50.7715 586.76 50.8171 586.467 50.9082C586.174 50.9993 585.904 51.1296 585.656 51.2988C585.461 51.429 585.279 51.582 585.109 51.7578C584.947 51.9271 584.8 52.1159 584.67 52.3242V60H582.863V45H584.67V51.0059ZM607.818 60C607.747 59.8633 607.688 59.694 607.643 59.4922C607.604 59.2839 607.574 59.069 607.555 58.8477C607.372 59.0299 607.167 59.2025 606.939 59.3652C606.718 59.528 606.474 59.6712 606.207 59.7949C605.934 59.9186 605.644 60.0163 605.338 60.0879C605.032 60.1595 604.706 60.1953 604.361 60.1953C603.801 60.1953 603.294 60.1139 602.838 59.9512C602.389 59.7884 602.008 59.5671 601.695 59.2871C601.376 59.0137 601.129 58.6882 600.953 58.3105C600.784 57.9264 600.699 57.513 600.699 57.0703C600.699 56.4909 600.813 55.9831 601.041 55.5469C601.275 55.1107 601.604 54.7461 602.027 54.4531C602.451 54.1667 602.958 53.9518 603.551 53.8086C604.15 53.6654 604.817 53.5938 605.553 53.5938H607.525V52.7637C607.525 52.4447 607.467 52.1582 607.35 51.9043C607.232 51.6504 607.066 51.4323 606.852 51.25C606.637 51.0742 606.373 50.9375 606.061 50.8398C605.755 50.7422 605.41 50.6934 605.025 50.6934C604.667 50.6934 604.345 50.7389 604.059 50.8301C603.779 50.9212 603.541 51.0417 603.346 51.1914C603.15 51.3411 602.997 51.5202 602.887 51.7285C602.783 51.9303 602.73 52.1419 602.73 52.3633H600.914C600.921 51.9792 601.018 51.6016 601.207 51.2305C601.402 50.8594 601.682 50.5241 602.047 50.2246C602.405 49.9316 602.841 49.694 603.355 49.5117C603.876 49.3294 604.465 49.2383 605.123 49.2383C605.722 49.2383 606.279 49.3132 606.793 49.4629C607.307 49.6061 607.753 49.8242 608.131 50.1172C608.502 50.4167 608.795 50.7878 609.01 51.2305C609.225 51.6732 609.332 52.1908 609.332 52.7832V57.6953C609.332 58.0469 609.365 58.4212 609.43 58.8184C609.495 59.209 609.586 59.5508 609.703 59.8438V60H607.818ZM604.625 58.623C604.977 58.623 605.305 58.5775 605.611 58.4863C605.917 58.3952 606.197 58.2747 606.451 58.125C606.699 57.9753 606.913 57.806 607.096 57.6172C607.278 57.4219 607.421 57.2201 607.525 57.0117V54.873H605.846C605.221 54.873 604.674 54.9284 604.205 55.0391C603.743 55.1432 603.375 55.306 603.102 55.5273C602.906 55.6836 602.757 55.8691 602.652 56.084C602.555 56.2988 602.506 56.543 602.506 56.8164C602.506 57.0768 602.548 57.3177 602.633 57.5391C602.724 57.7604 602.857 57.9492 603.033 58.1055C603.209 58.2682 603.43 58.3952 603.697 58.4863C603.964 58.5775 604.273 58.623 604.625 58.623ZM623.164 46.875V49.4336H627.188V50.8301H623.164V56.5723C623.164 56.9824 623.216 57.321 623.32 57.5879C623.424 57.8548 623.568 58.0664 623.75 58.2227C623.932 58.3854 624.141 58.4993 624.375 58.5645C624.616 58.6296 624.87 58.6621 625.137 58.6621C625.332 58.6621 625.534 58.6523 625.742 58.6328C625.951 58.6068 626.156 58.5775 626.357 58.5449C626.553 58.5124 626.735 58.4798 626.904 58.4473C627.08 58.4082 627.223 58.3757 627.334 58.3496L627.588 59.6289C627.438 59.7201 627.256 59.8014 627.041 59.873C626.826 59.9382 626.592 59.9935 626.338 60.0391C626.084 60.0911 625.814 60.1302 625.527 60.1562C625.247 60.1823 624.967 60.1953 624.688 60.1953C624.219 60.1953 623.779 60.1302 623.369 60C622.965 59.8633 622.614 59.6484 622.314 59.3555C622.015 59.069 621.777 58.6979 621.602 58.2422C621.432 57.7799 621.348 57.2233 621.348 56.5723V50.8301H618.574V49.4336H621.348V46.875H623.164ZM655.193 49.4336H660.594V58.4375H664.041V60H655.193V58.4375H658.787V51.0059H655.193V49.4336ZM658.553 46.6602C658.553 46.5039 658.576 46.3574 658.621 46.2207C658.673 46.084 658.751 45.9668 658.855 45.8691C658.94 45.7845 659.048 45.7194 659.178 45.6738C659.314 45.6217 659.467 45.5957 659.637 45.5957C659.806 45.5957 659.956 45.6217 660.086 45.6738C660.216 45.7194 660.324 45.7845 660.408 45.8691C660.512 45.9603 660.59 46.0742 660.643 46.2109C660.695 46.3477 660.721 46.4974 660.721 46.6602C660.721 46.9531 660.63 47.1973 660.447 47.3926C660.265 47.5879 659.995 47.6855 659.637 47.6855C659.272 47.6855 658.999 47.5879 658.816 47.3926C658.641 47.1973 658.553 46.9531 658.553 46.6602ZM679.943 57.1973C679.943 56.9824 679.901 56.7904 679.816 56.6211C679.732 56.4453 679.589 56.2858 679.387 56.1426C679.185 55.9993 678.918 55.8691 678.586 55.752C678.254 55.6283 677.84 55.5176 677.346 55.4199C676.74 55.2962 676.187 55.1465 675.686 54.9707C675.191 54.7949 674.768 54.5833 674.416 54.3359C674.058 54.0951 673.781 53.8118 673.586 53.4863C673.391 53.1543 673.293 52.7702 673.293 52.334C673.293 51.9043 673.394 51.5039 673.596 51.1328C673.798 50.7552 674.081 50.4264 674.445 50.1465C674.81 49.8665 675.243 49.6452 675.744 49.4824C676.252 49.3197 676.809 49.2383 677.414 49.2383C678.065 49.2383 678.651 49.3229 679.172 49.4922C679.693 49.6615 680.135 49.8958 680.5 50.1953C680.865 50.4948 681.145 50.8464 681.34 51.25C681.542 51.6471 681.643 52.0768 681.643 52.5391H679.836C679.836 52.3112 679.777 52.0898 679.66 51.875C679.543 51.6536 679.38 51.4583 679.172 51.2891C678.964 51.1198 678.71 50.9831 678.41 50.8789C678.117 50.7747 677.785 50.7227 677.414 50.7227C677.03 50.7227 676.691 50.765 676.398 50.8496C676.112 50.9342 675.874 51.0482 675.686 51.1914C675.49 51.3346 675.344 51.5007 675.246 51.6895C675.148 51.8783 675.1 52.0736 675.1 52.2754C675.1 52.4837 675.139 52.6693 675.217 52.832C675.295 52.9948 675.432 53.1413 675.627 53.2715C675.816 53.4017 676.07 53.5189 676.389 53.623C676.714 53.7272 677.124 53.8281 677.619 53.9258C678.27 54.0625 678.853 54.222 679.367 54.4043C679.882 54.5801 680.314 54.7917 680.666 55.0391C681.018 55.293 681.285 55.5859 681.467 55.918C681.656 56.25 681.75 56.6341 681.75 57.0703C681.75 57.5391 681.643 57.9655 681.428 58.3496C681.219 58.7337 680.926 59.0625 680.549 59.3359C680.171 59.6094 679.719 59.821 679.191 59.9707C678.664 60.1204 678.088 60.1953 677.463 60.1953C676.747 60.1953 676.109 60.1009 675.549 59.9121C674.989 59.7168 674.517 59.4596 674.133 59.1406C673.742 58.8281 673.443 58.4635 673.234 58.0469C673.033 57.6302 672.932 57.1973 672.932 56.748H674.738C674.764 57.1191 674.862 57.4316 675.031 57.6855C675.207 57.9395 675.425 58.1445 675.686 58.3008C675.939 58.457 676.223 58.5677 676.535 58.6328C676.848 58.6979 677.157 58.7305 677.463 58.7305C677.945 58.7305 678.365 58.6751 678.723 58.5645C679.081 58.4473 679.361 58.2878 679.562 58.0859C679.686 57.9622 679.781 57.8255 679.846 57.6758C679.911 57.526 679.943 57.3665 679.943 57.1973ZM709.795 64.2676C709.626 64.2676 709.427 64.248 709.199 64.209C708.971 64.1699 708.799 64.1374 708.682 64.1113L708.975 62.6367C709.137 62.6497 709.297 62.6595 709.453 62.666C709.616 62.679 709.743 62.6855 709.834 62.6855C710.081 62.6855 710.306 62.6172 710.508 62.4805C710.716 62.3438 710.902 62.181 711.064 61.9922C711.221 61.8034 711.354 61.6081 711.465 61.4062C711.582 61.2044 711.673 61.0384 711.738 60.9082L712.461 59.502L707.91 49.4336H709.932L712.832 56.25L713.301 57.5293L713.799 56.2891L716.523 49.4336H718.545L713.184 61.6309C713.06 61.9043 712.9 62.194 712.705 62.5C712.516 62.806 712.285 63.0892 712.012 63.3496C711.738 63.61 711.419 63.8281 711.055 64.0039C710.69 64.1797 710.27 64.2676 709.795 64.2676ZM726.449 54.6191C726.449 53.8574 726.56 53.151 726.781 52.5C727.003 51.8424 727.322 51.2728 727.738 50.791C728.148 50.3092 728.65 49.9316 729.242 49.6582C729.835 49.3783 730.502 49.2383 731.244 49.2383C731.993 49.2383 732.663 49.3783 733.256 49.6582C733.855 49.9316 734.363 50.3092 734.779 50.791C735.189 51.2728 735.505 51.8424 735.727 52.5C735.948 53.151 736.059 53.8574 736.059 54.6191V54.834C736.059 55.5957 735.948 56.3021 735.727 56.9531C735.505 57.6042 735.189 58.1706 734.779 58.6523C734.363 59.1341 733.858 59.5117 733.266 59.7852C732.673 60.0586 732.006 60.1953 731.264 60.1953C730.515 60.1953 729.841 60.0586 729.242 59.7852C728.65 59.5117 728.148 59.1341 727.738 58.6523C727.322 58.1706 727.003 57.6042 726.781 56.9531C726.56 56.3021 726.449 55.5957 726.449 54.834V54.6191ZM728.256 54.834C728.256 55.3548 728.318 55.8529 728.441 56.3281C728.565 56.7969 728.754 57.2103 729.008 57.5684C729.255 57.9264 729.568 58.2096 729.945 58.418C730.323 58.6263 730.762 58.7305 731.264 58.7305C731.758 58.7305 732.191 58.6263 732.562 58.418C732.94 58.2096 733.256 57.9264 733.51 57.5684C733.757 57.2103 733.943 56.7969 734.066 56.3281C734.19 55.8529 734.252 55.3548 734.252 54.834V54.6191C734.252 54.1048 734.187 53.6133 734.057 53.1445C733.933 52.6693 733.747 52.2526 733.5 51.8945C733.246 51.5365 732.93 51.2533 732.553 51.0449C732.182 50.8301 731.745 50.7227 731.244 50.7227C730.743 50.7227 730.307 50.8301 729.936 51.0449C729.564 51.2533 729.255 51.5365 729.008 51.8945C728.754 52.2526 728.565 52.6693 728.441 53.1445C728.318 53.6133 728.256 54.1048 728.256 54.6191V54.834ZM751.932 60L751.824 58.5449C751.473 59.0658 751.033 59.4727 750.506 59.7656C749.979 60.0521 749.37 60.1953 748.68 60.1953C748.126 60.1953 747.625 60.1107 747.176 59.9414C746.727 59.7656 746.342 59.4954 746.023 59.1309C745.704 58.7663 745.457 58.304 745.281 57.7441C745.112 57.1777 745.027 56.5007 745.027 55.7129V49.4336H746.834V55.7324C746.834 56.3053 746.88 56.7806 746.971 57.1582C747.062 57.5358 747.199 57.8353 747.381 58.0566C747.563 58.2845 747.785 58.444 748.045 58.5352C748.312 58.6263 748.618 58.6719 748.963 58.6719C749.367 58.6719 749.728 58.6263 750.047 58.5352C750.366 58.4375 750.643 58.304 750.877 58.1348C751.072 57.998 751.242 57.8353 751.385 57.6465C751.535 57.4512 751.658 57.2396 751.756 57.0117V49.4336H753.572V60H751.932ZM769.904 49.2383C770.236 49.2383 770.581 49.2611 770.939 49.3066C771.304 49.3522 771.577 49.4141 771.76 49.4922L771.516 51.2598C771.164 51.1816 770.829 51.1263 770.51 51.0938C770.197 51.0547 769.868 51.0352 769.523 51.0352C769.081 51.0352 768.68 51.0905 768.322 51.2012C767.964 51.3053 767.652 51.4616 767.385 51.6699C767.144 51.8522 766.932 52.0768 766.75 52.3438C766.574 52.6042 766.428 52.8971 766.311 53.2227V60H764.494V49.4336H766.213L766.291 50.8496L766.301 51.1133C766.73 50.5339 767.245 50.0781 767.844 49.7461C768.449 49.4076 769.136 49.2383 769.904 49.2383ZM803.281 46.875V49.4336H807.305V50.8301H803.281V56.5723C803.281 56.9824 803.333 57.321 803.438 57.5879C803.542 57.8548 803.685 58.0664 803.867 58.2227C804.049 58.3854 804.258 58.4993 804.492 58.5645C804.733 58.6296 804.987 58.6621 805.254 58.6621C805.449 58.6621 805.651 58.6523 805.859 58.6328C806.068 58.6068 806.273 58.5775 806.475 58.5449C806.67 58.5124 806.852 58.4798 807.021 58.4473C807.197 58.4082 807.34 58.3757 807.451 58.3496L807.705 59.6289C807.555 59.7201 807.373 59.8014 807.158 59.873C806.943 59.9382 806.709 59.9935 806.455 60.0391C806.201 60.0911 805.931 60.1302 805.645 60.1562C805.365 60.1823 805.085 60.1953 804.805 60.1953C804.336 60.1953 803.896 60.1302 803.486 60C803.083 59.8633 802.731 59.6484 802.432 59.3555C802.132 59.069 801.895 58.6979 801.719 58.2422C801.549 57.7799 801.465 57.2233 801.465 56.5723V50.8301H798.691V49.4336H801.465V46.875H803.281ZM817.299 49.4336H822.699V58.4375H826.146V60H817.299V58.4375H820.893V51.0059H817.299V49.4336ZM820.658 46.6602C820.658 46.5039 820.681 46.3574 820.727 46.2207C820.779 46.084 820.857 45.9668 820.961 45.8691C821.046 45.7845 821.153 45.7194 821.283 45.6738C821.42 45.6217 821.573 45.5957 821.742 45.5957C821.911 45.5957 822.061 45.6217 822.191 45.6738C822.322 45.7194 822.429 45.7845 822.514 45.8691C822.618 45.9603 822.696 46.0742 822.748 46.2109C822.8 46.3477 822.826 46.4974 822.826 46.6602C822.826 46.9531 822.735 47.1973 822.553 47.3926C822.37 47.5879 822.1 47.6855 821.742 47.6855C821.378 47.6855 821.104 47.5879 820.922 47.3926C820.746 47.1973 820.658 46.9531 820.658 46.6602ZM835.857 49.4336L835.906 50.4297C836.121 50.0586 836.401 49.7689 836.746 49.5605C837.098 49.3522 837.521 49.2448 838.016 49.2383C838.296 49.2383 838.546 49.2708 838.768 49.3359C838.995 49.3945 839.194 49.4824 839.363 49.5996C839.487 49.6908 839.598 49.8014 839.695 49.9316C839.799 50.0618 839.887 50.2083 839.959 50.3711C840.05 50.2214 840.158 50.0814 840.281 49.9512C840.405 49.821 840.538 49.707 840.682 49.6094C840.864 49.4987 841.066 49.4108 841.287 49.3457C841.515 49.2806 841.762 49.2448 842.029 49.2383C842.394 49.2383 842.723 49.2936 843.016 49.4043C843.309 49.5085 843.556 49.6647 843.758 49.873C843.979 50.1074 844.148 50.4134 844.266 50.791C844.383 51.1621 844.441 51.6016 844.441 52.1094V60H842.723V52.0898C842.723 51.8685 842.697 51.6732 842.645 51.5039C842.592 51.3346 842.518 51.1947 842.42 51.084C842.316 50.9798 842.186 50.9017 842.029 50.8496C841.88 50.7975 841.704 50.7715 841.502 50.7715C841.287 50.7715 841.102 50.8008 840.945 50.8594C840.789 50.918 840.659 50.9961 840.555 51.0938C840.451 51.1979 840.369 51.3184 840.311 51.4551C840.252 51.5853 840.213 51.7318 840.193 51.8945C840.193 51.9271 840.193 51.9596 840.193 51.9922C840.193 52.0182 840.193 52.0508 840.193 52.0898V60H838.475V52.0801C838.475 51.8587 838.449 51.6634 838.396 51.4941C838.351 51.3249 838.276 51.1849 838.172 51.0742C838.074 50.9701 837.951 50.8952 837.801 50.8496C837.658 50.7975 837.488 50.7715 837.293 50.7715C837.078 50.7715 836.889 50.7975 836.727 50.8496C836.57 50.8952 836.437 50.9635 836.326 51.0547C836.242 51.1263 836.167 51.2077 836.102 51.2988C836.043 51.39 835.994 51.4876 835.955 51.5918V60H834.236V49.4336H835.857ZM857.707 60.1953C856.965 60.1953 856.281 60.0684 855.656 59.8145C855.038 59.5605 854.507 59.2057 854.064 58.75C853.622 58.2943 853.277 57.7539 853.029 57.1289C852.782 56.5039 852.658 55.8236 852.658 55.0879V54.6777C852.658 53.8249 852.795 53.0632 853.068 52.3926C853.342 51.7155 853.706 51.1426 854.162 50.6738C854.611 50.2116 855.122 49.8568 855.695 49.6094C856.275 49.362 856.867 49.2383 857.473 49.2383C858.234 49.2383 858.898 49.3717 859.465 49.6387C860.038 49.8991 860.513 50.2604 860.891 50.7227C861.268 51.1914 861.548 51.7415 861.73 52.373C861.919 53.0046 862.014 53.6882 862.014 54.4238V55.2344H854.465V55.3027C854.51 55.8171 854.611 56.2695 854.768 56.6602C854.93 57.0508 855.152 57.3958 855.432 57.6953C855.718 58.0143 856.063 58.265 856.467 58.4473C856.87 58.6296 857.316 58.7207 857.805 58.7207C858.449 58.7207 859.022 58.5905 859.523 58.3301C860.025 58.0697 860.441 57.7246 860.773 57.2949L861.877 58.1543C861.525 58.6882 860.998 59.1634 860.295 59.5801C859.598 59.9902 858.736 60.1953 857.707 60.1953ZM857.473 50.7227C857.108 50.7227 856.763 50.791 856.438 50.9277C856.112 51.0579 855.819 51.25 855.559 51.5039C855.298 51.7643 855.077 52.0833 854.895 52.4609C854.719 52.832 854.595 53.2617 854.523 53.75H860.207V53.6621C860.207 53.3366 860.145 52.9883 860.021 52.6172C859.898 52.2396 859.725 51.9141 859.504 51.6406C859.283 51.3672 859.003 51.1458 858.664 50.9766C858.332 50.8073 857.935 50.7227 857.473 50.7227ZM893.34 46.875V49.4336H897.363V50.8301H893.34V56.5723C893.34 56.9824 893.392 57.321 893.496 57.5879C893.6 57.8548 893.743 58.0664 893.926 58.2227C894.108 58.3854 894.316 58.4993 894.551 58.5645C894.792 58.6296 895.046 58.6621 895.312 58.6621C895.508 58.6621 895.71 58.6523 895.918 58.6328C896.126 58.6068 896.331 58.5775 896.533 58.5449C896.729 58.5124 896.911 58.4798 897.08 58.4473C897.256 58.4082 897.399 58.3757 897.51 58.3496L897.764 59.6289C897.614 59.7201 897.432 59.8014 897.217 59.873C897.002 59.9382 896.768 59.9935 896.514 60.0391C896.26 60.0911 895.99 60.1302 895.703 60.1562C895.423 60.1823 895.143 60.1953 894.863 60.1953C894.395 60.1953 893.955 60.1302 893.545 60C893.141 59.8633 892.79 59.6484 892.49 59.3555C892.191 59.069 891.953 58.6979 891.777 58.2422C891.608 57.7799 891.523 57.2233 891.523 56.5723V50.8301H888.75V49.4336H891.523V46.875H893.34ZM906.566 54.6191C906.566 53.8574 906.677 53.151 906.898 52.5C907.12 51.8424 907.439 51.2728 907.855 50.791C908.266 50.3092 908.767 49.9316 909.359 49.6582C909.952 49.3783 910.619 49.2383 911.361 49.2383C912.11 49.2383 912.781 49.3783 913.373 49.6582C913.972 49.9316 914.48 50.3092 914.896 50.791C915.307 51.2728 915.622 51.8424 915.844 52.5C916.065 53.151 916.176 53.8574 916.176 54.6191V54.834C916.176 55.5957 916.065 56.3021 915.844 56.9531C915.622 57.6042 915.307 58.1706 914.896 58.6523C914.48 59.1341 913.975 59.5117 913.383 59.7852C912.79 60.0586 912.123 60.1953 911.381 60.1953C910.632 60.1953 909.958 60.0586 909.359 59.7852C908.767 59.5117 908.266 59.1341 907.855 58.6523C907.439 58.1706 907.12 57.6042 906.898 56.9531C906.677 56.3021 906.566 55.5957 906.566 54.834V54.6191ZM908.373 54.834C908.373 55.3548 908.435 55.8529 908.559 56.3281C908.682 56.7969 908.871 57.2103 909.125 57.5684C909.372 57.9264 909.685 58.2096 910.062 58.418C910.44 58.6263 910.88 58.7305 911.381 58.7305C911.876 58.7305 912.309 58.6263 912.68 58.418C913.057 58.2096 913.373 57.9264 913.627 57.5684C913.874 57.2103 914.06 56.7969 914.184 56.3281C914.307 55.8529 914.369 55.3548 914.369 54.834V54.6191C914.369 54.1048 914.304 53.6133 914.174 53.1445C914.05 52.6693 913.865 52.2526 913.617 51.8945C913.363 51.5365 913.048 51.2533 912.67 51.0449C912.299 50.8301 911.863 50.7227 911.361 50.7227C910.86 50.7227 910.424 50.8301 910.053 51.0449C909.682 51.2533 909.372 51.5365 909.125 51.8945C908.871 52.2526 908.682 52.6693 908.559 53.1445C908.435 53.6133 908.373 54.1048 908.373 54.6191V54.834ZM944.113 60L941.867 49.4336H943.469L944.699 56.1719L944.914 57.6855L945.178 56.1719L946.867 49.4336H948.029L949.709 56.1719L949.992 57.832L950.256 56.1719L951.428 49.4336H953.029L950.783 60H949.357L947.707 53.5254L947.434 51.8848L947.17 53.5254L945.539 60H944.113ZM968.053 60C967.981 59.8633 967.923 59.694 967.877 59.4922C967.838 59.2839 967.809 59.069 967.789 58.8477C967.607 59.0299 967.402 59.2025 967.174 59.3652C966.952 59.528 966.708 59.6712 966.441 59.7949C966.168 59.9186 965.878 60.0163 965.572 60.0879C965.266 60.1595 964.941 60.1953 964.596 60.1953C964.036 60.1953 963.528 60.1139 963.072 59.9512C962.623 59.7884 962.242 59.5671 961.93 59.2871C961.611 59.0137 961.363 58.6882 961.188 58.3105C961.018 57.9264 960.934 57.513 960.934 57.0703C960.934 56.4909 961.048 55.9831 961.275 55.5469C961.51 55.1107 961.839 54.7461 962.262 54.4531C962.685 54.1667 963.193 53.9518 963.785 53.8086C964.384 53.6654 965.051 53.5938 965.787 53.5938H967.76V52.7637C967.76 52.4447 967.701 52.1582 967.584 51.9043C967.467 51.6504 967.301 51.4323 967.086 51.25C966.871 51.0742 966.607 50.9375 966.295 50.8398C965.989 50.7422 965.644 50.6934 965.26 50.6934C964.902 50.6934 964.579 50.7389 964.293 50.8301C964.013 50.9212 963.775 51.0417 963.58 51.1914C963.385 51.3411 963.232 51.5202 963.121 51.7285C963.017 51.9303 962.965 52.1419 962.965 52.3633H961.148C961.155 51.9792 961.253 51.6016 961.441 51.2305C961.637 50.8594 961.917 50.5241 962.281 50.2246C962.639 49.9316 963.076 49.694 963.59 49.5117C964.111 49.3294 964.7 49.2383 965.357 49.2383C965.956 49.2383 966.513 49.3132 967.027 49.4629C967.542 49.6061 967.988 49.8242 968.365 50.1172C968.736 50.4167 969.029 50.7878 969.244 51.2305C969.459 51.6732 969.566 52.1908 969.566 52.7832V57.6953C969.566 58.0469 969.599 58.4212 969.664 58.8184C969.729 59.209 969.82 59.5508 969.938 59.8438V60H968.053ZM964.859 58.623C965.211 58.623 965.54 58.5775 965.846 58.4863C966.152 58.3952 966.432 58.2747 966.686 58.125C966.933 57.9753 967.148 57.806 967.33 57.6172C967.512 57.4219 967.656 57.2201 967.76 57.0117V54.873H966.08C965.455 54.873 964.908 54.9284 964.439 55.0391C963.977 55.1432 963.609 55.306 963.336 55.5273C963.141 55.6836 962.991 55.8691 962.887 56.084C962.789 56.2988 962.74 56.543 962.74 56.8164C962.74 57.0768 962.783 57.3177 962.867 57.5391C962.958 57.7604 963.092 57.9492 963.268 58.1055C963.443 58.2682 963.665 58.3952 963.932 58.4863C964.199 58.5775 964.508 58.623 964.859 58.623ZM982.285 55.0684L980.957 56.3477V60H979.141V45H980.957V54.1797L982.139 52.9102L985.605 49.4336H987.803L983.525 53.8379L988.457 60H986.162L982.285 55.0684ZM1001.8 60.1953C1001.06 60.1953 1000.38 60.0684 999.75 59.8145C999.132 59.5605 998.601 59.2057 998.158 58.75C997.715 58.2943 997.37 57.7539 997.123 57.1289C996.876 56.5039 996.752 55.8236 996.752 55.0879V54.6777C996.752 53.8249 996.889 53.0632 997.162 52.3926C997.436 51.7155 997.8 51.1426 998.256 50.6738C998.705 50.2116 999.216 49.8568 999.789 49.6094C1000.37 49.362 1000.96 49.2383 1001.57 49.2383C1002.33 49.2383 1002.99 49.3717 1003.56 49.6387C1004.13 49.8991 1004.61 50.2604 1004.98 50.7227C1005.36 51.1914 1005.64 51.7415 1005.82 52.373C1006.01 53.0046 1006.11 53.6882 1006.11 54.4238V55.2344H998.559V55.3027C998.604 55.8171 998.705 56.2695 998.861 56.6602C999.024 57.0508 999.245 57.3958 999.525 57.6953C999.812 58.0143 1000.16 58.265 1000.56 58.4473C1000.96 58.6296 1001.41 58.7207 1001.9 58.7207C1002.54 58.7207 1003.12 58.5905 1003.62 58.3301C1004.12 58.0697 1004.54 57.7246 1004.87 57.2949L1005.97 58.1543C1005.62 58.6882 1005.09 59.1634 1004.39 59.5801C1003.69 59.9902 1002.83 60.1953 1001.8 60.1953ZM1001.57 50.7227C1001.2 50.7227 1000.86 50.791 1000.53 50.9277C1000.21 51.0579 999.913 51.25 999.652 51.5039C999.392 51.7643 999.171 52.0833 998.988 52.4609C998.812 52.832 998.689 53.2617 998.617 53.75H1004.3V53.6621C1004.3 53.3366 1004.24 52.9883 1004.12 52.6172C1003.99 52.2396 1003.82 51.9141 1003.6 51.6406C1003.38 51.3672 1003.1 51.1458 1002.76 50.9766C1002.43 50.8073 1002.03 50.7227 1001.57 50.7227ZM337.662 86L337.555 84.5449C337.203 85.0658 336.764 85.4727 336.236 85.7656C335.709 86.0521 335.1 86.1953 334.41 86.1953C333.857 86.1953 333.355 86.1107 332.906 85.9414C332.457 85.7656 332.073 85.4954 331.754 85.1309C331.435 84.7663 331.188 84.304 331.012 83.7441C330.842 83.1777 330.758 82.5007 330.758 81.7129V75.4336H332.564V81.7324C332.564 82.3053 332.61 82.7806 332.701 83.1582C332.792 83.5358 332.929 83.8353 333.111 84.0566C333.294 84.2845 333.515 84.444 333.775 84.5352C334.042 84.6263 334.348 84.6719 334.693 84.6719C335.097 84.6719 335.458 84.6263 335.777 84.5352C336.096 84.4375 336.373 84.304 336.607 84.1348C336.803 83.998 336.972 83.8353 337.115 83.6465C337.265 83.4512 337.389 83.2396 337.486 83.0117V75.4336H339.303V86H337.662ZM348.701 90.0625V75.4336H350.352L350.439 76.5859C350.583 76.4036 350.739 76.2409 350.908 76.0977C351.077 75.9479 351.26 75.821 351.455 75.7168C351.729 75.5605 352.031 75.4434 352.363 75.3652C352.702 75.2806 353.063 75.2383 353.447 75.2383C354.124 75.2383 354.723 75.3717 355.244 75.6387C355.765 75.9056 356.201 76.2767 356.553 76.752C356.904 77.2272 357.171 77.7969 357.354 78.4609C357.536 79.1185 357.627 79.8411 357.627 80.6289V80.834C357.627 81.5892 357.536 82.2956 357.354 82.9531C357.171 83.6042 356.904 84.1706 356.553 84.6523C356.201 85.1341 355.765 85.5117 355.244 85.7852C354.73 86.0586 354.141 86.1953 353.477 86.1953C353.073 86.1953 352.695 86.153 352.344 86.0684C351.999 85.9837 351.686 85.8633 351.406 85.707C351.237 85.6094 351.077 85.502 350.928 85.3848C350.778 85.2611 350.638 85.1276 350.508 84.9844V90.0625H348.701ZM355.82 80.6289C355.82 80.1146 355.762 79.6263 355.645 79.1641C355.534 78.6953 355.361 78.2819 355.127 77.9238C354.886 77.5723 354.583 77.2923 354.219 77.084C353.854 76.8757 353.418 76.7715 352.91 76.7715C352.63 76.7715 352.37 76.804 352.129 76.8691C351.895 76.9342 351.683 77.0286 351.494 77.1523C351.286 77.276 351.1 77.429 350.938 77.6113C350.775 77.7936 350.632 77.9954 350.508 78.2168V83.3047C350.618 83.5 350.745 83.6823 350.889 83.8516C351.032 84.0208 351.195 84.1641 351.377 84.2812C351.585 84.418 351.816 84.5254 352.07 84.6035C352.331 84.6816 352.617 84.7207 352.93 84.7207C353.431 84.7207 353.864 84.6165 354.229 84.4082C354.593 84.1934 354.893 83.9069 355.127 83.5488C355.361 83.1908 355.534 82.7773 355.645 82.3086C355.762 81.8398 355.82 81.3483 355.82 80.834V80.6289ZM387.43 86V76.8301H384.52V75.4336H387.43V74.6914C387.43 74.0143 387.527 73.4219 387.723 72.9141C387.924 72.3997 388.208 71.9701 388.572 71.625C388.93 71.2799 389.363 71.0195 389.871 70.8438C390.379 70.668 390.945 70.5801 391.57 70.5801C391.831 70.5801 392.088 70.5964 392.342 70.6289C392.596 70.6549 392.846 70.6908 393.094 70.7363C393.257 70.7689 393.419 70.8047 393.582 70.8438C393.745 70.8763 393.911 70.9154 394.08 70.9609L393.865 72.4551C393.598 72.3639 393.286 72.2858 392.928 72.2207C392.576 72.1491 392.199 72.1133 391.795 72.1133C391.385 72.1133 391.02 72.1654 390.701 72.2695C390.389 72.3672 390.128 72.5169 389.92 72.7188C389.699 72.9271 389.529 73.1973 389.412 73.5293C389.301 73.8613 389.246 74.2487 389.246 74.6914V75.4336H393.318V76.8301H389.246V86H387.43ZM407.414 86.1953C406.672 86.1953 405.988 86.0684 405.363 85.8145C404.745 85.5605 404.214 85.2057 403.771 84.75C403.329 84.2943 402.984 83.7539 402.736 83.1289C402.489 82.5039 402.365 81.8236 402.365 81.0879V80.6777C402.365 79.8249 402.502 79.0632 402.775 78.3926C403.049 77.7155 403.413 77.1426 403.869 76.6738C404.318 76.2116 404.829 75.8568 405.402 75.6094C405.982 75.362 406.574 75.2383 407.18 75.2383C407.941 75.2383 408.605 75.3717 409.172 75.6387C409.745 75.8991 410.22 76.2604 410.598 76.7227C410.975 77.1914 411.255 77.7415 411.438 78.373C411.626 79.0046 411.721 79.6882 411.721 80.4238V81.2344H404.172V81.3027C404.217 81.8171 404.318 82.2695 404.475 82.6602C404.637 83.0508 404.859 83.3958 405.139 83.6953C405.425 84.0143 405.77 84.265 406.174 84.4473C406.577 84.6296 407.023 84.7207 407.512 84.7207C408.156 84.7207 408.729 84.5905 409.23 84.3301C409.732 84.0697 410.148 83.7246 410.48 83.2949L411.584 84.1543C411.232 84.6882 410.705 85.1634 410.002 85.5801C409.305 85.9902 408.443 86.1953 407.414 86.1953ZM407.18 76.7227C406.815 76.7227 406.47 76.791 406.145 76.9277C405.819 77.0579 405.526 77.25 405.266 77.5039C405.005 77.7643 404.784 78.0833 404.602 78.4609C404.426 78.832 404.302 79.2617 404.23 79.75H409.914V79.6621C409.914 79.3366 409.852 78.9883 409.729 78.6172C409.605 78.2396 409.432 77.9141 409.211 77.6406C408.99 77.3672 408.71 77.1458 408.371 76.9766C408.039 76.8073 407.642 76.7227 407.18 76.7227ZM425.426 86.1953C424.684 86.1953 424 86.0684 423.375 85.8145C422.757 85.5605 422.226 85.2057 421.783 84.75C421.34 84.2943 420.995 83.7539 420.748 83.1289C420.501 82.5039 420.377 81.8236 420.377 81.0879V80.6777C420.377 79.8249 420.514 79.0632 420.787 78.3926C421.061 77.7155 421.425 77.1426 421.881 76.6738C422.33 76.2116 422.841 75.8568 423.414 75.6094C423.993 75.362 424.586 75.2383 425.191 75.2383C425.953 75.2383 426.617 75.3717 427.184 75.6387C427.757 75.8991 428.232 76.2604 428.609 76.7227C428.987 77.1914 429.267 77.7415 429.449 78.373C429.638 79.0046 429.732 79.6882 429.732 80.4238V81.2344H422.184V81.3027C422.229 81.8171 422.33 82.2695 422.486 82.6602C422.649 83.0508 422.87 83.3958 423.15 83.6953C423.437 84.0143 423.782 84.265 424.186 84.4473C424.589 84.6296 425.035 84.7207 425.523 84.7207C426.168 84.7207 426.741 84.5905 427.242 84.3301C427.743 84.0697 428.16 83.7246 428.492 83.2949L429.596 84.1543C429.244 84.6882 428.717 85.1634 428.014 85.5801C427.317 85.9902 426.454 86.1953 425.426 86.1953ZM425.191 76.7227C424.827 76.7227 424.482 76.791 424.156 76.9277C423.831 77.0579 423.538 77.25 423.277 77.5039C423.017 77.7643 422.796 78.0833 422.613 78.4609C422.438 78.832 422.314 79.2617 422.242 79.75H427.926V79.6621C427.926 79.3366 427.864 78.9883 427.74 78.6172C427.617 78.2396 427.444 77.9141 427.223 77.6406C427.001 77.3672 426.721 77.1458 426.383 76.9766C426.051 76.8073 425.654 76.7227 425.191 76.7227ZM439.053 71H444.453V84.4375H447.9V86H439.053V84.4375H442.646V72.5723H439.053V71ZM457.064 75.4336H462.465V84.4375H465.912V86H457.064V84.4375H460.658V77.0059H457.064V75.4336ZM460.424 72.6602C460.424 72.5039 460.447 72.3574 460.492 72.2207C460.544 72.084 460.622 71.9668 460.727 71.8691C460.811 71.7845 460.919 71.7194 461.049 71.6738C461.186 71.6217 461.339 71.5957 461.508 71.5957C461.677 71.5957 461.827 71.6217 461.957 71.6738C462.087 71.7194 462.195 71.7845 462.279 71.8691C462.383 71.9603 462.462 72.0742 462.514 72.2109C462.566 72.3477 462.592 72.4974 462.592 72.6602C462.592 72.9531 462.501 73.1973 462.318 73.3926C462.136 73.5879 461.866 73.6855 461.508 73.6855C461.143 73.6855 460.87 73.5879 460.688 73.3926C460.512 73.1973 460.424 72.9531 460.424 72.6602ZM474.793 86V75.4336H476.414L476.541 76.9961C476.697 76.7747 476.867 76.5729 477.049 76.3906C477.238 76.2018 477.436 76.0391 477.645 75.9023C477.957 75.694 478.296 75.5345 478.66 75.4238C479.031 75.3066 479.422 75.2448 479.832 75.2383C480.385 75.2383 480.887 75.3164 481.336 75.4727C481.792 75.6289 482.179 75.873 482.498 76.2051C482.817 76.5371 483.061 76.9603 483.23 77.4746C483.406 77.9824 483.494 78.5879 483.494 79.291V86H481.688V79.3301C481.688 78.8613 481.635 78.4642 481.531 78.1387C481.427 77.8132 481.274 77.5495 481.072 77.3477C480.864 77.1458 480.61 76.9993 480.311 76.9082C480.018 76.8171 479.679 76.7715 479.295 76.7715C478.963 76.7715 478.654 76.8203 478.367 76.918C478.081 77.0091 477.817 77.1361 477.576 77.2988C477.381 77.4421 477.199 77.6081 477.029 77.7969C476.867 77.9857 476.723 78.194 476.6 78.4219V86H474.793ZM492.473 80.6289C492.473 79.8411 492.567 79.1185 492.756 78.4609C492.951 77.7969 493.231 77.2272 493.596 76.752C493.96 76.2767 494.403 75.9056 494.924 75.6387C495.445 75.3717 496.034 75.2383 496.691 75.2383C497.115 75.2383 497.502 75.2871 497.854 75.3848C498.212 75.4824 498.534 75.6257 498.82 75.8145C498.977 75.9121 499.123 76.026 499.26 76.1562C499.403 76.2865 499.536 76.4297 499.66 76.5859L499.748 75.4336H501.389V85.7754C501.389 86.472 501.278 87.0905 501.057 87.6309C500.842 88.1712 500.539 88.6302 500.148 89.0078C499.751 89.3854 499.279 89.6719 498.732 89.8672C498.186 90.0625 497.58 90.1602 496.916 90.1602C496.643 90.1602 496.33 90.1276 495.979 90.0625C495.627 90.0039 495.272 89.903 494.914 89.7598C494.549 89.623 494.198 89.4375 493.859 89.2031C493.527 88.9688 493.241 88.679 493 88.334L493.938 87.25C494.159 87.5169 494.387 87.7415 494.621 87.9238C494.855 88.1126 495.093 88.2624 495.334 88.373C495.575 88.4837 495.816 88.5618 496.057 88.6074C496.298 88.6595 496.538 88.6855 496.779 88.6855C497.209 88.6855 497.596 88.6237 497.941 88.5C498.286 88.3763 498.583 88.194 498.83 87.9531C499.071 87.7188 499.257 87.4258 499.387 87.0742C499.517 86.7227 499.582 86.319 499.582 85.8633V84.9551C499.445 85.1113 499.299 85.2546 499.143 85.3848C498.993 85.515 498.83 85.6289 498.654 85.7266C498.381 85.8763 498.078 85.9902 497.746 86.0684C497.414 86.153 497.056 86.1953 496.672 86.1953C496.027 86.1953 495.445 86.0586 494.924 85.7852C494.403 85.5117 493.964 85.1341 493.605 84.6523C493.241 84.1706 492.961 83.6042 492.766 82.9531C492.57 82.2956 492.473 81.5892 492.473 80.834V80.6289ZM494.279 80.834C494.279 81.3483 494.331 81.8366 494.436 82.2988C494.546 82.7611 494.719 83.168 494.953 83.5195C495.181 83.8711 495.474 84.151 495.832 84.3594C496.19 84.5612 496.62 84.6621 497.121 84.6621C497.434 84.6621 497.714 84.6263 497.961 84.5547C498.215 84.4766 498.443 84.3691 498.645 84.2324C498.84 84.0957 499.016 83.9329 499.172 83.7441C499.328 83.5553 499.465 83.347 499.582 83.1191V78.2754C499.465 78.054 499.328 77.8522 499.172 77.6699C499.016 77.4876 498.837 77.3281 498.635 77.1914C498.433 77.0612 498.208 76.9603 497.961 76.8887C497.714 76.8105 497.44 76.7715 497.141 76.7715C496.633 76.7715 496.197 76.8757 495.832 77.084C495.474 77.2923 495.181 77.5723 494.953 77.9238C494.719 78.2819 494.546 78.6953 494.436 79.1641C494.331 79.6263 494.279 80.1146 494.279 80.6289V80.834ZM535.771 86C535.7 85.8633 535.641 85.694 535.596 85.4922C535.557 85.2839 535.527 85.069 535.508 84.8477C535.326 85.0299 535.12 85.2025 534.893 85.3652C534.671 85.528 534.427 85.6712 534.16 85.7949C533.887 85.9186 533.597 86.0163 533.291 86.0879C532.985 86.1595 532.66 86.1953 532.314 86.1953C531.755 86.1953 531.247 86.1139 530.791 85.9512C530.342 85.7884 529.961 85.5671 529.648 85.2871C529.329 85.0137 529.082 84.6882 528.906 84.3105C528.737 83.9264 528.652 83.513 528.652 83.0703C528.652 82.4909 528.766 81.9831 528.994 81.5469C529.229 81.1107 529.557 80.7461 529.98 80.4531C530.404 80.1667 530.911 79.9518 531.504 79.8086C532.103 79.6654 532.77 79.5938 533.506 79.5938H535.479V78.7637C535.479 78.4447 535.42 78.1582 535.303 77.9043C535.186 77.6504 535.02 77.4323 534.805 77.25C534.59 77.0742 534.326 76.9375 534.014 76.8398C533.708 76.7422 533.363 76.6934 532.979 76.6934C532.62 76.6934 532.298 76.7389 532.012 76.8301C531.732 76.9212 531.494 77.0417 531.299 77.1914C531.104 77.3411 530.951 77.5202 530.84 77.7285C530.736 77.9303 530.684 78.1419 530.684 78.3633H528.867C528.874 77.9792 528.971 77.6016 529.16 77.2305C529.355 76.8594 529.635 76.5241 530 76.2246C530.358 75.9316 530.794 75.694 531.309 75.5117C531.829 75.3294 532.419 75.2383 533.076 75.2383C533.675 75.2383 534.232 75.3132 534.746 75.4629C535.26 75.6061 535.706 75.8242 536.084 76.1172C536.455 76.4167 536.748 76.7878 536.963 77.2305C537.178 77.6732 537.285 78.1908 537.285 78.7832V83.6953C537.285 84.0469 537.318 84.4212 537.383 84.8184C537.448 85.209 537.539 85.5508 537.656 85.8438V86H535.771ZM532.578 84.623C532.93 84.623 533.258 84.5775 533.564 84.4863C533.87 84.3952 534.15 84.2747 534.404 84.125C534.652 83.9753 534.867 83.806 535.049 83.6172C535.231 83.4219 535.374 83.2201 535.479 83.0117V80.873H533.799C533.174 80.873 532.627 80.9284 532.158 81.0391C531.696 81.1432 531.328 81.306 531.055 81.5273C530.859 81.6836 530.71 81.8691 530.605 82.084C530.508 82.2988 530.459 82.543 530.459 82.8164C530.459 83.0768 530.501 83.3177 530.586 83.5391C530.677 83.7604 530.811 83.9492 530.986 84.1055C531.162 84.2682 531.383 84.3952 531.65 84.4863C531.917 84.5775 532.227 84.623 532.578 84.623ZM547.67 75.4336L547.719 76.4297C547.934 76.0586 548.214 75.7689 548.559 75.5605C548.91 75.3522 549.333 75.2448 549.828 75.2383C550.108 75.2383 550.359 75.2708 550.58 75.3359C550.808 75.3945 551.007 75.4824 551.176 75.5996C551.299 75.6908 551.41 75.8014 551.508 75.9316C551.612 76.0618 551.7 76.2083 551.771 76.3711C551.863 76.2214 551.97 76.0814 552.094 75.9512C552.217 75.821 552.351 75.707 552.494 75.6094C552.676 75.4987 552.878 75.4108 553.1 75.3457C553.327 75.2806 553.575 75.2448 553.842 75.2383C554.206 75.2383 554.535 75.2936 554.828 75.4043C555.121 75.5085 555.368 75.6647 555.57 75.873C555.792 76.1074 555.961 76.4134 556.078 76.791C556.195 77.1621 556.254 77.6016 556.254 78.1094V86H554.535V78.0898C554.535 77.8685 554.509 77.6732 554.457 77.5039C554.405 77.3346 554.33 77.1947 554.232 77.084C554.128 76.9798 553.998 76.9017 553.842 76.8496C553.692 76.7975 553.516 76.7715 553.314 76.7715C553.1 76.7715 552.914 76.8008 552.758 76.8594C552.602 76.918 552.471 76.9961 552.367 77.0938C552.263 77.1979 552.182 77.3184 552.123 77.4551C552.064 77.5853 552.025 77.7318 552.006 77.8945C552.006 77.9271 552.006 77.9596 552.006 77.9922C552.006 78.0182 552.006 78.0508 552.006 78.0898V86H550.287V78.0801C550.287 77.8587 550.261 77.6634 550.209 77.4941C550.163 77.3249 550.089 77.1849 549.984 77.0742C549.887 76.9701 549.763 76.8952 549.613 76.8496C549.47 76.7975 549.301 76.7715 549.105 76.7715C548.891 76.7715 548.702 76.7975 548.539 76.8496C548.383 76.8952 548.249 76.9635 548.139 77.0547C548.054 77.1263 547.979 77.2077 547.914 77.2988C547.855 77.39 547.807 77.4876 547.768 77.5918V86H546.049V75.4336H547.67ZM571.795 86C571.723 85.8633 571.665 85.694 571.619 85.4922C571.58 85.2839 571.551 85.069 571.531 84.8477C571.349 85.0299 571.144 85.2025 570.916 85.3652C570.695 85.528 570.451 85.6712 570.184 85.7949C569.91 85.9186 569.62 86.0163 569.314 86.0879C569.008 86.1595 568.683 86.1953 568.338 86.1953C567.778 86.1953 567.27 86.1139 566.814 85.9512C566.365 85.7884 565.984 85.5671 565.672 85.2871C565.353 85.0137 565.105 84.6882 564.93 84.3105C564.76 83.9264 564.676 83.513 564.676 83.0703C564.676 82.4909 564.79 81.9831 565.018 81.5469C565.252 81.1107 565.581 80.7461 566.004 80.4531C566.427 80.1667 566.935 79.9518 567.527 79.8086C568.126 79.6654 568.794 79.5938 569.529 79.5938H571.502V78.7637C571.502 78.4447 571.443 78.1582 571.326 77.9043C571.209 77.6504 571.043 77.4323 570.828 77.25C570.613 77.0742 570.35 76.9375 570.037 76.8398C569.731 76.7422 569.386 76.6934 569.002 76.6934C568.644 76.6934 568.322 76.7389 568.035 76.8301C567.755 76.9212 567.518 77.0417 567.322 77.1914C567.127 77.3411 566.974 77.5202 566.863 77.7285C566.759 77.9303 566.707 78.1419 566.707 78.3633H564.891C564.897 77.9792 564.995 77.6016 565.184 77.2305C565.379 76.8594 565.659 76.5241 566.023 76.2246C566.382 75.9316 566.818 75.694 567.332 75.5117C567.853 75.3294 568.442 75.2383 569.1 75.2383C569.699 75.2383 570.255 75.3132 570.77 75.4629C571.284 75.6061 571.73 75.8242 572.107 76.1172C572.479 76.4167 572.771 76.7878 572.986 77.2305C573.201 77.6732 573.309 78.1908 573.309 78.7832V83.6953C573.309 84.0469 573.341 84.4212 573.406 84.8184C573.471 85.209 573.562 85.5508 573.68 85.8438V86H571.795ZM568.602 84.623C568.953 84.623 569.282 84.5775 569.588 84.4863C569.894 84.3952 570.174 84.2747 570.428 84.125C570.675 83.9753 570.89 83.806 571.072 83.6172C571.255 83.4219 571.398 83.2201 571.502 83.0117V80.873H569.822C569.197 80.873 568.65 80.9284 568.182 81.0391C567.719 81.1432 567.352 81.306 567.078 81.5273C566.883 81.6836 566.733 81.8691 566.629 82.084C566.531 82.2988 566.482 82.543 566.482 82.8164C566.482 83.0768 566.525 83.3177 566.609 83.5391C566.701 83.7604 566.834 83.9492 567.01 84.1055C567.186 84.2682 567.407 84.3952 567.674 84.4863C567.941 84.5775 568.25 84.623 568.602 84.623ZM585.031 84.5254H591.76V86H582.727V84.6719L589.035 76.9277H582.814V75.4336H591.408V76.7129L585.031 84.5254ZM601.158 75.4336H606.559V84.4375H610.006V86H601.158V84.4375H604.752V77.0059H601.158V75.4336ZM604.518 72.6602C604.518 72.5039 604.54 72.3574 604.586 72.2207C604.638 72.084 604.716 71.9668 604.82 71.8691C604.905 71.7845 605.012 71.7194 605.143 71.6738C605.279 71.6217 605.432 71.5957 605.602 71.5957C605.771 71.5957 605.921 71.6217 606.051 71.6738C606.181 71.7194 606.288 71.7845 606.373 71.8691C606.477 71.9603 606.555 72.0742 606.607 72.2109C606.66 72.3477 606.686 72.4974 606.686 72.6602C606.686 72.9531 606.594 73.1973 606.412 73.3926C606.23 73.5879 605.96 73.6855 605.602 73.6855C605.237 73.6855 604.964 73.5879 604.781 73.3926C604.605 73.1973 604.518 72.9531 604.518 72.6602ZM618.887 86V75.4336H620.508L620.635 76.9961C620.791 76.7747 620.96 76.5729 621.143 76.3906C621.331 76.2018 621.53 76.0391 621.738 75.9023C622.051 75.694 622.389 75.5345 622.754 75.4238C623.125 75.3066 623.516 75.2448 623.926 75.2383C624.479 75.2383 624.98 75.3164 625.43 75.4727C625.885 75.6289 626.273 75.873 626.592 76.2051C626.911 76.5371 627.155 76.9603 627.324 77.4746C627.5 77.9824 627.588 78.5879 627.588 79.291V86H625.781V79.3301C625.781 78.8613 625.729 78.4642 625.625 78.1387C625.521 77.8132 625.368 77.5495 625.166 77.3477C624.958 77.1458 624.704 76.9993 624.404 76.9082C624.111 76.8171 623.773 76.7715 623.389 76.7715C623.057 76.7715 622.747 76.8203 622.461 76.918C622.174 77.0091 621.911 77.1361 621.67 77.2988C621.475 77.4421 621.292 77.6081 621.123 77.7969C620.96 77.9857 620.817 78.194 620.693 78.4219V86H618.887ZM636.566 80.6289C636.566 79.8411 636.661 79.1185 636.85 78.4609C637.045 77.7969 637.325 77.2272 637.689 76.752C638.054 76.2767 638.497 75.9056 639.018 75.6387C639.538 75.3717 640.128 75.2383 640.785 75.2383C641.208 75.2383 641.596 75.2871 641.947 75.3848C642.305 75.4824 642.628 75.6257 642.914 75.8145C643.07 75.9121 643.217 76.026 643.354 76.1562C643.497 76.2865 643.63 76.4297 643.754 76.5859L643.842 75.4336H645.482V85.7754C645.482 86.472 645.372 87.0905 645.15 87.6309C644.936 88.1712 644.633 88.6302 644.242 89.0078C643.845 89.3854 643.373 89.6719 642.826 89.8672C642.279 90.0625 641.674 90.1602 641.01 90.1602C640.736 90.1602 640.424 90.1276 640.072 90.0625C639.721 90.0039 639.366 89.903 639.008 89.7598C638.643 89.623 638.292 89.4375 637.953 89.2031C637.621 88.9688 637.335 88.679 637.094 88.334L638.031 87.25C638.253 87.5169 638.48 87.7415 638.715 87.9238C638.949 88.1126 639.187 88.2624 639.428 88.373C639.669 88.4837 639.91 88.5618 640.15 88.6074C640.391 88.6595 640.632 88.6855 640.873 88.6855C641.303 88.6855 641.69 88.6237 642.035 88.5C642.38 88.3763 642.676 88.194 642.924 87.9531C643.165 87.7188 643.35 87.4258 643.48 87.0742C643.611 86.7227 643.676 86.319 643.676 85.8633V84.9551C643.539 85.1113 643.393 85.2546 643.236 85.3848C643.087 85.515 642.924 85.6289 642.748 85.7266C642.475 85.8763 642.172 85.9902 641.84 86.0684C641.508 86.153 641.15 86.1953 640.766 86.1953C640.121 86.1953 639.538 86.0586 639.018 85.7852C638.497 85.5117 638.057 85.1341 637.699 84.6523C637.335 84.1706 637.055 83.6042 636.859 82.9531C636.664 82.2956 636.566 81.5892 636.566 80.834V80.6289ZM638.373 80.834C638.373 81.3483 638.425 81.8366 638.529 82.2988C638.64 82.7611 638.812 83.168 639.047 83.5195C639.275 83.8711 639.568 84.151 639.926 84.3594C640.284 84.5612 640.714 84.6621 641.215 84.6621C641.527 84.6621 641.807 84.6263 642.055 84.5547C642.309 84.4766 642.536 84.3691 642.738 84.2324C642.934 84.0957 643.109 83.9329 643.266 83.7441C643.422 83.5553 643.559 83.347 643.676 83.1191V78.2754C643.559 78.054 643.422 77.8522 643.266 77.6699C643.109 77.4876 642.93 77.3281 642.729 77.1914C642.527 77.0612 642.302 76.9603 642.055 76.8887C641.807 76.8105 641.534 76.7715 641.234 76.7715C640.727 76.7715 640.29 76.8757 639.926 77.084C639.568 77.2923 639.275 77.5723 639.047 77.9238C638.812 78.2819 638.64 78.6953 638.529 79.1641C638.425 79.6263 638.373 80.1146 638.373 80.6289V80.834Z" fill="white"/>
<g clip-path="url(#clip0_84_22)">
<path d="M156.41 89.5993C151.479 93.6958 145.483 96.3034 139.125 97.1168C132.766 97.9302 126.307 96.9159 120.504 94.1926C114.701 91.4692 109.793 87.1494 106.356 81.7387C102.918 76.328 101.092 70.0501 101.092 63.6396C101.092 57.2292 102.918 50.9513 106.356 45.5405C109.793 40.1298 114.701 35.81 120.504 33.0867C126.307 30.3633 132.766 29.349 139.125 30.1624C145.483 30.9759 151.479 33.5834 156.41 37.68C150.192 38.6125 144.515 41.7457 140.413 46.5098C136.31 51.2739 134.053 57.3523 134.053 63.6396C134.053 69.9269 136.31 76.0053 140.413 80.7694C144.515 85.5335 150.192 88.6667 156.41 89.5993Z" stroke="white" stroke-width="2" stroke-linecap="round" stroke-linejoin="round"/>
</g>
<path d="M174.523 65.1562L180.48 51.5625H185.715L176.809 69.8438L176.77 80H172.18L172.16 69.707L163.332 51.5625H168.547L174.523 65.1562ZM220.586 71.25C220.456 72.6302 220.13 73.8867 219.609 75.0195C219.089 76.1393 218.405 77.0964 217.559 77.8906C216.699 78.6979 215.677 79.3229 214.492 79.7656C213.32 80.1953 212.018 80.4102 210.586 80.4102C209.414 80.4102 208.333 80.2539 207.344 79.9414C206.367 79.6159 205.495 79.1602 204.727 78.5742C203.984 78.0273 203.333 77.3698 202.773 76.6016C202.227 75.8203 201.764 74.9674 201.387 74.043C201.009 73.1315 200.723 72.1419 200.527 71.0742C200.345 70.0065 200.254 68.8932 200.254 67.7344V63.8477C200.254 62.7409 200.345 61.6732 200.527 60.6445C200.71 59.6159 200.983 58.6458 201.348 57.7344C201.738 56.7188 202.24 55.8008 202.852 54.9805C203.477 54.1471 204.193 53.4375 205 52.8516C205.768 52.3177 206.615 51.901 207.539 51.6016C208.477 51.3021 209.499 51.1523 210.605 51.1523C212.103 51.1523 213.438 51.3737 214.609 51.8164C215.794 52.2591 216.803 52.8841 217.637 53.6914C218.483 54.5117 219.147 55.5013 219.629 56.6602C220.124 57.819 220.443 59.1081 220.586 60.5273H215.898C215.82 59.681 215.658 58.9193 215.41 58.2422C215.176 57.5521 214.85 56.9661 214.434 56.4844C214.004 56.0026 213.477 55.638 212.852 55.3906C212.227 55.1302 211.478 55 210.605 55C209.993 55 209.44 55.0846 208.945 55.2539C208.464 55.4232 208.034 55.6641 207.656 55.9766C207.135 56.3542 206.699 56.849 206.348 57.4609C206.009 58.0599 205.729 58.7305 205.508 59.4727C205.339 60.1237 205.208 60.8203 205.117 61.5625C205.039 62.2917 205 63.0404 205 63.8086V67.7344C205 68.6849 205.052 69.5768 205.156 70.4102C205.273 71.2435 205.449 72.0052 205.684 72.6953C205.866 73.2682 206.094 73.7891 206.367 74.2578C206.654 74.7266 206.992 75.1302 207.383 75.4688C207.786 75.8333 208.249 76.1133 208.77 76.3086C209.303 76.4909 209.909 76.582 210.586 76.582C211.393 76.582 212.109 76.4648 212.734 76.2305C213.359 75.9961 213.893 75.651 214.336 75.1953C214.766 74.7526 215.111 74.1992 215.371 73.5352C215.632 72.8711 215.801 72.1094 215.879 71.25H220.586ZM242.527 76.1328H256.102V80H237.82V51.5625H242.527V76.1328ZM290.152 67.2461H278.395V76.1328H292.125V80H273.688V51.5625H292.027V55.4492H278.395V63.457H290.152V67.2461Z" fill="white"/>
<path d="M162.453 83.9062H294.527V85.8594H162.453V83.9062Z" fill="white"/>
<path d="M19.125 53.4062L19.1602 70.7383C19.1602 71.9336 18.9492 73.0527 18.5273 74.0957C18.1055 75.1387 17.5254 76.0469 16.7871 76.8203C16.0488 77.6055 15.1699 78.2266 14.1504 78.6836C13.1309 79.1289 12.0117 79.3516 10.793 79.3516C9.55078 79.3516 8.41992 79.1289 7.40039 78.6836C6.38086 78.2383 5.50781 77.623 4.78125 76.8379C4.05469 76.0645 3.48633 75.1562 3.07617 74.1133C2.66602 73.0586 2.45508 71.9336 2.44336 70.7383L2.47852 53.4062H5.57227L5.64258 70.7383C5.6543 71.5 5.77148 72.2324 5.99414 72.9355C6.22852 73.6387 6.5625 74.2598 6.99609 74.7988C7.41797 75.3379 7.94531 75.7715 8.57812 76.0996C9.22266 76.4277 9.96094 76.5918 10.793 76.5918C11.625 76.5918 12.3574 76.4336 12.9902 76.1172C13.623 75.7891 14.1562 75.3496 14.5898 74.7988C15.0117 74.2598 15.334 73.6387 15.5566 72.9355C15.7793 72.2324 15.9023 71.5 15.9258 70.7383L15.9785 53.4062H19.125ZM48.1184 73.9551C48.1184 73.5684 48.0422 73.2227 47.8898 72.918C47.7375 72.6016 47.4797 72.3145 47.1164 72.0566C46.7531 71.7988 46.2727 71.5645 45.675 71.3535C45.0773 71.1309 44.3332 70.9316 43.4426 70.7559C42.3527 70.5332 41.3566 70.2637 40.4543 69.9473C39.5637 69.6309 38.802 69.25 38.1691 68.8047C37.5246 68.3711 37.0266 67.8613 36.675 67.2754C36.3234 66.6777 36.1477 65.9863 36.1477 65.2012C36.1477 64.4277 36.3293 63.707 36.6926 63.0391C37.0559 62.3594 37.5656 61.7676 38.2219 61.2637C38.8781 60.7598 39.6574 60.3613 40.5598 60.0684C41.4738 59.7754 42.4758 59.6289 43.5656 59.6289C44.7375 59.6289 45.7922 59.7812 46.7297 60.0859C47.6672 60.3906 48.4641 60.8125 49.1203 61.3516C49.7766 61.8906 50.2805 62.5234 50.632 63.25C50.9953 63.9648 51.177 64.7383 51.177 65.5703H47.925C47.925 65.1602 47.8195 64.7617 47.6086 64.375C47.3977 63.9766 47.1047 63.625 46.7297 63.3203C46.3547 63.0156 45.8977 62.7695 45.3586 62.582C44.8312 62.3945 44.2336 62.3008 43.5656 62.3008C42.8742 62.3008 42.2648 62.377 41.7375 62.5293C41.2219 62.6816 40.7941 62.8867 40.4543 63.1445C40.1027 63.4023 39.8391 63.7012 39.6633 64.041C39.4875 64.3809 39.3996 64.7324 39.3996 65.0957C39.3996 65.4707 39.4699 65.8047 39.6105 66.0977C39.7512 66.3906 39.9973 66.6543 40.3488 66.8887C40.6887 67.123 41.1457 67.334 41.7199 67.5215C42.3059 67.709 43.0441 67.8906 43.9348 68.0664C45.1066 68.3125 46.1555 68.5996 47.0812 68.9277C48.007 69.2441 48.7863 69.625 49.4191 70.0703C50.052 70.5273 50.5324 71.0547 50.8605 71.6523C51.2004 72.25 51.3703 72.9414 51.3703 73.7266C51.3703 74.5703 51.177 75.3379 50.7902 76.0293C50.4152 76.7207 49.8879 77.3125 49.2082 77.8047C48.5285 78.2969 47.7141 78.6777 46.7648 78.9473C45.8156 79.2168 44.7785 79.3516 43.6535 79.3516C42.3645 79.3516 41.216 79.1816 40.2082 78.8418C39.2004 78.4902 38.3508 78.0273 37.6594 77.4531C36.9562 76.8906 36.4172 76.2344 36.0422 75.4844C35.6789 74.7344 35.4973 73.9551 35.4973 73.1465H38.7492C38.7961 73.8145 38.9719 74.377 39.2766 74.834C39.593 75.291 39.9855 75.6602 40.4543 75.9414C40.9113 76.2227 41.4211 76.4219 41.9836 76.5391C42.5461 76.6562 43.1027 76.7148 43.6535 76.7148C44.5207 76.7148 45.2766 76.6152 45.9211 76.416C46.5656 76.2051 47.0695 75.918 47.4328 75.5547C47.6555 75.332 47.8254 75.0859 47.9426 74.8164C48.0598 74.5469 48.1184 74.2598 48.1184 73.9551ZM76.3031 79.3516C74.9672 79.3516 73.7367 79.123 72.6117 78.666C71.4984 78.209 70.5434 77.5703 69.7465 76.75C68.9496 75.9297 68.3285 74.957 67.8832 73.832C67.4379 72.707 67.2152 71.4824 67.2152 70.1582V69.4199C67.2152 67.8848 67.4613 66.5137 67.9535 65.3066C68.4457 64.0879 69.102 63.0566 69.9223 62.2129C70.7309 61.3809 71.6508 60.7422 72.682 60.2969C73.725 59.8516 74.7914 59.6289 75.8812 59.6289C77.2523 59.6289 78.4477 59.8691 79.4672 60.3496C80.4984 60.8184 81.3539 61.4688 82.0336 62.3008C82.7133 63.1445 83.2172 64.1348 83.5453 65.2715C83.8852 66.4082 84.0551 67.6387 84.0551 68.9629V70.4219H70.4672V70.5449C70.5492 71.4707 70.7309 72.2852 71.0121 72.9883C71.3051 73.6914 71.7035 74.3125 72.2074 74.8516C72.723 75.4258 73.3441 75.877 74.0707 76.2051C74.7973 76.5332 75.6 76.6973 76.4789 76.6973C77.6391 76.6973 78.6703 76.4629 79.5727 75.9941C80.475 75.5254 81.225 74.9043 81.8227 74.1309L83.809 75.6777C83.1762 76.6387 82.227 77.4941 80.9613 78.2441C79.7074 78.9824 78.1547 79.3516 76.3031 79.3516ZM75.8812 62.3008C75.225 62.3008 74.6039 62.4238 74.018 62.6699C73.432 62.9043 72.9047 63.25 72.4359 63.707C71.9672 64.1758 71.5687 64.75 71.2406 65.4297C70.9242 66.0977 70.7016 66.8711 70.5727 67.75H80.8031V67.5918C80.8031 67.0059 80.6918 66.3789 80.4691 65.7109C80.2465 65.0312 79.9359 64.4453 79.5375 63.9531C79.1391 63.4609 78.6352 63.0625 78.0258 62.7578C77.4281 62.4531 76.7133 62.3008 75.8812 62.3008Z" fill="white"/>
<defs>
<clipPath id="clip0_84_22">
<rect width="90" height="90" fill="white" transform="translate(134.64) rotate(45)"/>
</clipPath>
</defs>
</svg>
