<svg width="224" height="128" viewBox="0 0 224 128" fill="none" xmlns="http://www.w3.org/2000/svg">
<g clip-path="url(#clip0_88_2)">
<path d="M85.4098 89.5993C80.479 93.6958 74.4835 96.3034 68.1249 97.1168C61.7662 97.9302 55.3074 96.9159 49.5042 94.1926C43.701 91.4692 38.7934 87.1494 35.3557 81.7387C31.9179 76.328 30.0922 70.0501 30.0922 63.6396C30.0922 57.2292 31.9179 50.9513 35.3556 45.5405C38.7934 40.1298 43.701 35.81 49.5042 33.0867C55.3074 30.3633 61.7662 29.349 68.1249 30.1624C74.4835 30.9759 80.479 33.5834 85.4098 37.68C79.192 38.6125 73.5155 41.7457 69.4127 46.5098C65.3098 51.2739 63.0532 57.3523 63.0532 63.6396C63.0532 69.9269 65.3098 76.0053 69.4127 80.7694C73.5155 85.5335 79.192 88.6667 85.4098 89.5993Z" stroke="white" stroke-width="2" stroke-linecap="round" stroke-linejoin="round"/>
</g>
<path d="M103.523 65.1562L109.48 51.5625H114.715L105.809 69.8438L105.77 80H101.18L101.16 69.707L92.332 51.5625H97.5469L103.523 65.1562ZM149.586 71.25C149.456 72.6302 149.13 73.8867 148.609 75.0195C148.089 76.1393 147.405 77.0964 146.559 77.8906C145.699 78.6979 144.677 79.3229 143.492 79.7656C142.32 80.1953 141.018 80.4102 139.586 80.4102C138.414 80.4102 137.333 80.2539 136.344 79.9414C135.367 79.6159 134.495 79.1602 133.727 78.5742C132.984 78.0273 132.333 77.3698 131.773 76.6016C131.227 75.8203 130.764 74.9674 130.387 74.043C130.009 73.1315 129.723 72.1419 129.527 71.0742C129.345 70.0065 129.254 68.8932 129.254 67.7344V63.8477C129.254 62.7409 129.345 61.6732 129.527 60.6445C129.71 59.6159 129.983 58.6458 130.348 57.7344C130.738 56.7188 131.24 55.8008 131.852 54.9805C132.477 54.1471 133.193 53.4375 134 52.8516C134.768 52.3177 135.615 51.901 136.539 51.6016C137.477 51.3021 138.499 51.1523 139.605 51.1523C141.103 51.1523 142.438 51.3737 143.609 51.8164C144.794 52.2591 145.803 52.8841 146.637 53.6914C147.483 54.5117 148.147 55.5013 148.629 56.6602C149.124 57.819 149.443 59.1081 149.586 60.5273H144.898C144.82 59.681 144.658 58.9193 144.41 58.2422C144.176 57.5521 143.85 56.9661 143.434 56.4844C143.004 56.0026 142.477 55.638 141.852 55.3906C141.227 55.1302 140.478 55 139.605 55C138.993 55 138.44 55.0846 137.945 55.2539C137.464 55.4232 137.034 55.6641 136.656 55.9766C136.135 56.3542 135.699 56.849 135.348 57.4609C135.009 58.0599 134.729 58.7305 134.508 59.4727C134.339 60.1237 134.208 60.8203 134.117 61.5625C134.039 62.2917 134 63.0404 134 63.8086V67.7344C134 68.6849 134.052 69.5768 134.156 70.4102C134.273 71.2435 134.449 72.0052 134.684 72.6953C134.866 73.2682 135.094 73.7891 135.367 74.2578C135.654 74.7266 135.992 75.1302 136.383 75.4688C136.786 75.8333 137.249 76.1133 137.77 76.3086C138.303 76.4909 138.909 76.582 139.586 76.582C140.393 76.582 141.109 76.4648 141.734 76.2305C142.359 75.9961 142.893 75.651 143.336 75.1953C143.766 74.7526 144.111 74.1992 144.371 73.5352C144.632 72.8711 144.801 72.1094 144.879 71.25H149.586ZM171.527 76.1328H185.102V80H166.82V51.5625H171.527V76.1328ZM219.152 67.2461H207.395V76.1328H221.125V80H202.688V51.5625H221.027V55.4492H207.395V63.457H219.152V67.2461Z" fill="white"/>
<path d="M91.4531 83.9062H223.527V85.8594H91.4531V83.9062Z" fill="white"/>
<defs>
<clipPath id="clip0_88_2">
<rect width="90" height="90" fill="white" transform="translate(63.6396) rotate(45)"/>
</clipPath>
</defs>
</svg>
