<svg width="237" height="27" viewBox="0 0 237 27" fill="none" xmlns="http://www.w3.org/2000/svg">
<g filter="url(#filter0_d_28_25)">
<mask id="path-1-outside-1_28_25" maskUnits="userSpaceOnUse" x="3.01281" y="-1.00001" width="231.044" height="21.493" fill="black">
<rect fill="white" x="3.01281" y="-1.00001" width="231.044" height="21.493"/>
<path d="M4.8932 18.4891L4.85678 1.4266L9.07552 1.41759C9.8099 1.41603 10.5015 1.50049 11.1503 1.67098C11.7991 1.83366 12.3894 2.06286 12.9213 2.35861C13.5001 2.66206 14.0126 3.04378 14.4589 3.50376C14.913 3.96373 15.293 4.47855 15.5989 5.04821C15.9127 5.64129 16.1563 6.29312 16.3296 7.00368C16.503 7.71425 16.5906 8.47188 16.5923 9.27657L16.5952 10.6125C16.5968 11.3859 16.5164 12.1205 16.3538 12.8161C16.199 13.504 15.9738 14.1334 15.6781 14.7043C15.3902 15.2596 15.0398 15.7643 14.6267 16.2183C14.2214 16.6723 13.7691 17.06 13.2698 17.3813C12.708 17.7341 12.0836 18.005 11.3965 18.1939C10.7172 18.3829 9.98694 18.4782 9.20569 18.4799L4.8932 18.4891ZM7.70933 3.71739L7.73597 16.1978L9.20081 16.1947C9.70081 16.1936 10.1577 16.1341 10.5715 16.016C10.9931 15.8901 11.3717 15.7135 11.7071 15.4862C12.0504 15.2511 12.3544 14.9575 12.6193 14.6054C12.892 14.2454 13.1138 13.8348 13.2846 13.3735C13.4322 12.9825 13.5446 12.5565 13.6218 12.0954C13.6989 11.6343 13.7369 11.142 13.7358 10.6186L13.7329 9.25923C13.7318 8.74361 13.6917 8.25541 13.6126 7.79464C13.5335 7.33387 13.4193 6.90833 13.27 6.51803C13.0815 6.04187 12.8306 5.61271 12.5173 5.23057C12.2039 4.84061 11.8322 4.525 11.402 4.28373C11.0891 4.10471 10.7372 3.96874 10.3464 3.87582C9.95556 3.77509 9.53356 3.72131 9.08042 3.71446L7.70933 3.71739ZM32.3524 11.8093L29.4696 11.8155L29.4838 18.4366L26.6713 18.4426L26.6349 1.38011L32.0489 1.36856C32.9317 1.37449 33.7445 1.48603 34.4871 1.7032C35.2298 1.92036 35.8711 2.23931 36.411 2.66003C36.9432 3.08858 37.3584 3.62286 37.6567 4.26285C37.9549 4.89502 38.1049 5.63689 38.1067 6.48845C38.108 7.07439 38.031 7.6058 37.8758 8.0827C37.7283 8.55958 37.5183 8.98971 37.2457 9.37311C36.9731 9.75651 36.6457 10.0931 36.2635 10.383C35.8813 10.6729 35.456 10.9238 34.9877 11.1357L38.6475 18.2647L38.6478 18.417L35.6361 18.4234L32.3524 11.8093ZM29.4647 9.51862L32.1014 9.513C32.6014 9.50412 33.0505 9.42894 33.4486 9.28746C33.8546 9.13816 34.1979 8.92649 34.4785 8.65245C34.728 8.41754 34.9227 8.12807 35.0626 7.78402C35.2025 7.43997 35.272 7.04919 35.271 6.61169C35.27 6.11951 35.191 5.68999 35.0339 5.32313C34.8847 4.94845 34.6614 4.63643 34.3639 4.38706C34.09 4.15327 33.7576 3.9782 33.3667 3.86185C32.9758 3.73768 32.5382 3.67221 32.0538 3.66543L29.4523 3.67098L29.4647 9.51862ZM58.265 10.7228L51.2104 10.7378L51.2217 16.0699L59.46 16.0523L59.465 18.3726L48.4025 18.3962L48.3661 1.33373L59.3699 1.31024L59.3749 3.64227L51.1952 3.65973L51.2055 8.46441L58.2602 8.44935L58.265 10.7228ZM78.1409 14.4069L72.7854 14.4184L71.6337 18.3466L68.704 18.3529L74.2222 1.27854L76.7183 1.27322L82.2157 18.324L79.2977 18.3303L78.1409 14.4069ZM73.4951 12.0028L77.4443 11.9943L75.4729 5.24854L73.4951 12.0028ZM94.7816 1.23466L96.9065 8.53093L99.223 1.22518L102.727 1.2177L102.763 18.2802L100.115 18.2858L100.103 12.4968L100.25 4.87925L97.6427 13.0294L96.1779 13.0325L93.7822 5.17431L93.9502 12.5099L93.9625 18.299L91.3258 18.3046L91.2894 1.24212L94.7816 1.23466ZM143.591 13.7985C143.59 13.4 143.508 13.0487 143.343 12.7443C143.178 12.44 142.947 12.167 142.65 11.9255C142.337 11.6996 141.965 11.4973 141.535 11.3185C141.113 11.1319 140.64 10.9649 140.116 10.8176C139.311 10.5928 138.568 10.317 137.888 9.99033C137.215 9.65583 136.64 9.28206 136.163 8.86901C135.685 8.44816 135.309 7.9724 135.035 7.44173C134.768 6.90324 134.634 6.29805 134.632 5.62618C134.631 4.89962 134.786 4.24694 135.097 3.66815C135.408 3.08155 135.829 2.58065 136.359 2.16545C136.89 1.75807 137.506 1.44816 138.209 1.23572C138.919 1.01546 139.665 0.904488 140.447 0.902821C141.275 0.901053 142.045 1.02832 142.756 1.28461C143.475 1.53308 144.101 1.8833 144.633 2.33529C145.165 2.7951 145.585 3.34498 145.891 3.98496C146.205 4.6171 146.362 5.31989 146.364 6.09333L143.575 6.09928C143.535 5.66968 143.44 5.27925 143.291 4.92801C143.15 4.56893 142.95 4.26077 142.692 4.0035C142.425 3.75407 142.101 3.55945 141.718 3.41964C141.342 3.27201 140.909 3.19871 140.416 3.19977C139.987 3.20068 139.588 3.26013 139.221 3.3781C138.862 3.48824 138.55 3.64516 138.285 3.84885C138.02 4.06035 137.813 4.3147 137.665 4.61189C137.518 4.90908 137.444 5.24127 137.445 5.60846C137.454 5.99906 137.556 6.3426 137.752 6.63905C137.948 6.9277 138.21 7.18105 138.539 7.3991C138.875 7.61713 139.258 7.80772 139.688 7.97086C140.126 8.13399 140.583 8.28536 141.06 8.42497C141.662 8.59556 142.249 8.80915 142.819 9.06574C143.398 9.31451 143.93 9.61806 144.415 9.9764C145.018 10.4282 145.499 10.9702 145.86 11.6022C146.229 12.2264 146.414 12.9487 146.415 13.769C146.417 14.5268 146.258 15.1951 145.939 15.7739C145.628 16.3527 145.207 16.8341 144.677 17.218C144.139 17.6176 143.514 17.9197 142.804 18.1244C142.093 18.3212 141.343 18.4205 140.554 18.4222C139.718 18.4239 138.894 18.2968 138.081 18.0407C137.268 17.7768 136.56 17.3955 135.957 16.8968C135.402 16.4292 134.959 15.8794 134.63 15.2473C134.308 14.6152 134.142 13.889 134.133 13.0687L136.945 13.0627C136.985 13.586 137.096 14.0428 137.276 14.4331C137.465 14.8155 137.719 15.1313 138.04 15.3806C138.353 15.6378 138.721 15.8284 139.143 15.9525C139.573 16.0766 140.042 16.1381 140.549 16.137C140.979 16.1361 141.377 16.0845 141.744 15.9821C142.119 15.8798 142.443 15.7267 142.716 15.523C142.981 15.3271 143.192 15.0845 143.347 14.7951C143.511 14.5057 143.592 14.1735 143.591 13.7985ZM159.33 11.6555L159.344 18.1594L156.531 18.1654L156.495 1.10294L162.202 1.09076C163.061 1.09674 163.85 1.22396 164.57 1.47243C165.297 1.72088 165.923 2.07501 166.447 2.53483C166.971 2.99465 167.379 3.55237 167.669 4.20801C167.96 4.86364 168.106 5.60161 168.108 6.42192C168.109 7.21098 167.966 7.92613 167.679 8.56737C167.391 9.2008 166.986 9.74463 166.463 10.1989C165.941 10.6609 165.317 11.0177 164.591 11.2693C163.872 11.5208 163.084 11.6475 162.224 11.6493L159.33 11.6555ZM159.325 9.35864L162.219 9.35246C162.696 9.34363 163.122 9.26851 163.496 9.12708C163.879 8.97783 164.203 8.77401 164.468 8.51563C164.733 8.25725 164.931 7.95214 165.063 7.60029C165.203 7.24843 165.273 6.86547 165.272 6.45141C165.271 5.99829 165.2 5.58828 165.058 5.22139C164.925 4.84668 164.725 4.52289 164.458 4.25002C164.192 3.97715 163.868 3.7669 163.484 3.61928C163.109 3.47164 162.683 3.39443 162.207 3.38763L159.312 3.39381L159.325 9.35864ZM186.211 14.1763L180.856 14.1877L179.704 18.1159L176.774 18.1222L182.292 1.04788L184.788 1.04255L190.286 18.0934L187.368 18.0996L186.211 14.1763ZM181.565 11.7721L185.514 11.7637L183.543 5.01788L181.565 11.7721ZM211.057 12.799C210.98 13.6273 210.786 14.3816 210.475 15.062C210.164 15.7345 209.755 16.3096 209.249 16.7873C208.734 17.2727 208.122 17.649 207.411 17.9162C206.709 18.1755 205.928 18.3061 205.068 18.3079C204.365 18.3094 203.717 18.217 203.122 18.0308C202.536 17.8367 202.012 17.5644 201.55 17.2138C201.104 16.8867 200.713 16.493 200.376 16.0328C200.047 15.5647 199.768 15.0536 199.541 14.4994C199.313 13.953 199.14 13.3596 199.021 12.7192C198.91 12.0788 198.854 11.411 198.853 10.7157L198.848 8.38366C198.846 7.71959 198.9 7.07885 199.008 6.46144C199.116 5.84402 199.279 5.26164 199.496 4.71429C199.729 4.10442 200.029 3.553 200.395 3.06003C200.769 2.55923 201.198 2.13253 201.681 1.77994C202.142 1.45864 202.649 1.20756 203.203 1.02669C203.765 0.845799 204.378 0.754647 205.043 0.753229C205.941 0.751312 206.742 0.882415 207.446 1.14654C208.157 1.41065 208.763 1.78435 209.265 2.26766C209.773 2.75876 210.173 3.35166 210.464 4.04635C210.762 4.74103 210.955 5.51406 211.043 6.36544L208.23 6.37144C208.182 5.86373 208.084 5.40691 207.934 5.00097C207.793 4.58721 207.597 4.23607 207.346 3.94754C207.088 3.65903 206.771 3.44095 206.396 3.29332C206.02 3.13787 205.571 3.0607 205.047 3.06182C204.68 3.0626 204.348 3.11409 204.052 3.21629C203.763 3.31847 203.505 3.46355 203.279 3.65153C202.967 3.87876 202.706 4.17619 202.496 4.54383C202.294 4.90364 202.126 5.30634 201.995 5.75193C201.894 6.14277 201.817 6.56091 201.763 7.00634C201.717 7.44394 201.694 7.8932 201.695 8.35414L201.7 10.7096C201.702 11.2799 201.734 11.815 201.798 12.3149C201.869 12.8147 201.975 13.2715 202.117 13.6853C202.227 14.0288 202.364 14.341 202.529 14.6219C202.702 14.9028 202.905 15.1445 203.14 15.3472C203.383 15.5654 203.66 15.7328 203.973 15.8493C204.294 15.958 204.657 16.0119 205.063 16.011C205.548 16.01 205.977 15.9388 206.352 15.7973C206.727 15.6559 207.047 15.4482 207.312 15.1742C207.569 14.908 207.775 14.5756 207.931 14.1768C208.086 13.778 208.187 13.3208 208.232 12.805L211.057 12.799ZM231.177 10.3537L224.122 10.3688L224.134 15.7008L232.372 15.6832L232.377 18.0035L221.315 18.0271L221.278 0.96467L232.282 0.941184L232.287 3.27321L224.107 3.29067L224.118 8.09535L231.172 8.08029L231.177 10.3537Z"/>
</mask>
<path d="M4.8932 18.4891L4.85678 1.4266L9.07552 1.41759C9.8099 1.41603 10.5015 1.50049 11.1503 1.67098C11.7991 1.83366 12.3894 2.06286 12.9213 2.35861C13.5001 2.66206 14.0126 3.04378 14.4589 3.50376C14.913 3.96373 15.293 4.47855 15.5989 5.04821C15.9127 5.64129 16.1563 6.29312 16.3296 7.00368C16.503 7.71425 16.5906 8.47188 16.5923 9.27657L16.5952 10.6125C16.5968 11.3859 16.5164 12.1205 16.3538 12.8161C16.199 13.504 15.9738 14.1334 15.6781 14.7043C15.3902 15.2596 15.0398 15.7643 14.6267 16.2183C14.2214 16.6723 13.7691 17.06 13.2698 17.3813C12.708 17.7341 12.0836 18.005 11.3965 18.1939C10.7172 18.3829 9.98694 18.4782 9.20569 18.4799L4.8932 18.4891ZM7.70933 3.71739L7.73597 16.1978L9.20081 16.1947C9.70081 16.1936 10.1577 16.1341 10.5715 16.016C10.9931 15.8901 11.3717 15.7135 11.7071 15.4862C12.0504 15.2511 12.3544 14.9575 12.6193 14.6054C12.892 14.2454 13.1138 13.8348 13.2846 13.3735C13.4322 12.9825 13.5446 12.5565 13.6218 12.0954C13.6989 11.6343 13.7369 11.142 13.7358 10.6186L13.7329 9.25923C13.7318 8.74361 13.6917 8.25541 13.6126 7.79464C13.5335 7.33387 13.4193 6.90833 13.27 6.51803C13.0815 6.04187 12.8306 5.61271 12.5173 5.23057C12.2039 4.84061 11.8322 4.525 11.402 4.28373C11.0891 4.10471 10.7372 3.96874 10.3464 3.87582C9.95556 3.77509 9.53356 3.72131 9.08042 3.71446L7.70933 3.71739ZM32.3524 11.8093L29.4696 11.8155L29.4838 18.4366L26.6713 18.4426L26.6349 1.38011L32.0489 1.36856C32.9317 1.37449 33.7445 1.48603 34.4871 1.7032C35.2298 1.92036 35.8711 2.23931 36.411 2.66003C36.9432 3.08858 37.3584 3.62286 37.6567 4.26285C37.9549 4.89502 38.1049 5.63689 38.1067 6.48845C38.108 7.07439 38.031 7.6058 37.8758 8.0827C37.7283 8.55958 37.5183 8.98971 37.2457 9.37311C36.9731 9.75651 36.6457 10.0931 36.2635 10.383C35.8813 10.6729 35.456 10.9238 34.9877 11.1357L38.6475 18.2647L38.6478 18.417L35.6361 18.4234L32.3524 11.8093ZM29.4647 9.51862L32.1014 9.513C32.6014 9.50412 33.0505 9.42894 33.4486 9.28746C33.8546 9.13816 34.1979 8.92649 34.4785 8.65245C34.728 8.41754 34.9227 8.12807 35.0626 7.78402C35.2025 7.43997 35.272 7.04919 35.271 6.61169C35.27 6.11951 35.191 5.68999 35.0339 5.32313C34.8847 4.94845 34.6614 4.63643 34.3639 4.38706C34.09 4.15327 33.7576 3.9782 33.3667 3.86185C32.9758 3.73768 32.5382 3.67221 32.0538 3.66543L29.4523 3.67098L29.4647 9.51862ZM58.265 10.7228L51.2104 10.7378L51.2217 16.0699L59.46 16.0523L59.465 18.3726L48.4025 18.3962L48.3661 1.33373L59.3699 1.31024L59.3749 3.64227L51.1952 3.65973L51.2055 8.46441L58.2602 8.44935L58.265 10.7228ZM78.1409 14.4069L72.7854 14.4184L71.6337 18.3466L68.704 18.3529L74.2222 1.27854L76.7183 1.27322L82.2157 18.324L79.2977 18.3303L78.1409 14.4069ZM73.4951 12.0028L77.4443 11.9943L75.4729 5.24854L73.4951 12.0028ZM94.7816 1.23466L96.9065 8.53093L99.223 1.22518L102.727 1.2177L102.763 18.2802L100.115 18.2858L100.103 12.4968L100.25 4.87925L97.6427 13.0294L96.1779 13.0325L93.7822 5.17431L93.9502 12.5099L93.9625 18.299L91.3258 18.3046L91.2894 1.24212L94.7816 1.23466ZM143.591 13.7985C143.59 13.4 143.508 13.0487 143.343 12.7443C143.178 12.44 142.947 12.167 142.65 11.9255C142.337 11.6996 141.965 11.4973 141.535 11.3185C141.113 11.1319 140.64 10.9649 140.116 10.8176C139.311 10.5928 138.568 10.317 137.888 9.99033C137.215 9.65583 136.64 9.28206 136.163 8.86901C135.685 8.44816 135.309 7.9724 135.035 7.44173C134.768 6.90324 134.634 6.29805 134.632 5.62618C134.631 4.89962 134.786 4.24694 135.097 3.66815C135.408 3.08155 135.829 2.58065 136.359 2.16545C136.89 1.75807 137.506 1.44816 138.209 1.23572C138.919 1.01546 139.665 0.904488 140.447 0.902821C141.275 0.901053 142.045 1.02832 142.756 1.28461C143.475 1.53308 144.101 1.8833 144.633 2.33529C145.165 2.7951 145.585 3.34498 145.891 3.98496C146.205 4.6171 146.362 5.31989 146.364 6.09333L143.575 6.09928C143.535 5.66968 143.44 5.27925 143.291 4.92801C143.15 4.56893 142.95 4.26077 142.692 4.0035C142.425 3.75407 142.101 3.55945 141.718 3.41964C141.342 3.27201 140.909 3.19871 140.416 3.19977C139.987 3.20068 139.588 3.26013 139.221 3.3781C138.862 3.48824 138.55 3.64516 138.285 3.84885C138.02 4.06035 137.813 4.3147 137.665 4.61189C137.518 4.90908 137.444 5.24127 137.445 5.60846C137.454 5.99906 137.556 6.3426 137.752 6.63905C137.948 6.9277 138.21 7.18105 138.539 7.3991C138.875 7.61713 139.258 7.80772 139.688 7.97086C140.126 8.13399 140.583 8.28536 141.06 8.42497C141.662 8.59556 142.249 8.80915 142.819 9.06574C143.398 9.31451 143.93 9.61806 144.415 9.9764C145.018 10.4282 145.499 10.9702 145.86 11.6022C146.229 12.2264 146.414 12.9487 146.415 13.769C146.417 14.5268 146.258 15.1951 145.939 15.7739C145.628 16.3527 145.207 16.8341 144.677 17.218C144.139 17.6176 143.514 17.9197 142.804 18.1244C142.093 18.3212 141.343 18.4205 140.554 18.4222C139.718 18.4239 138.894 18.2968 138.081 18.0407C137.268 17.7768 136.56 17.3955 135.957 16.8968C135.402 16.4292 134.959 15.8794 134.63 15.2473C134.308 14.6152 134.142 13.889 134.133 13.0687L136.945 13.0627C136.985 13.586 137.096 14.0428 137.276 14.4331C137.465 14.8155 137.719 15.1313 138.04 15.3806C138.353 15.6378 138.721 15.8284 139.143 15.9525C139.573 16.0766 140.042 16.1381 140.549 16.137C140.979 16.1361 141.377 16.0845 141.744 15.9821C142.119 15.8798 142.443 15.7267 142.716 15.523C142.981 15.3271 143.192 15.0845 143.347 14.7951C143.511 14.5057 143.592 14.1735 143.591 13.7985ZM159.33 11.6555L159.344 18.1594L156.531 18.1654L156.495 1.10294L162.202 1.09076C163.061 1.09674 163.85 1.22396 164.57 1.47243C165.297 1.72088 165.923 2.07501 166.447 2.53483C166.971 2.99465 167.379 3.55237 167.669 4.20801C167.96 4.86364 168.106 5.60161 168.108 6.42192C168.109 7.21098 167.966 7.92613 167.679 8.56737C167.391 9.2008 166.986 9.74463 166.463 10.1989C165.941 10.6609 165.317 11.0177 164.591 11.2693C163.872 11.5208 163.084 11.6475 162.224 11.6493L159.33 11.6555ZM159.325 9.35864L162.219 9.35246C162.696 9.34363 163.122 9.26851 163.496 9.12708C163.879 8.97783 164.203 8.77401 164.468 8.51563C164.733 8.25725 164.931 7.95214 165.063 7.60029C165.203 7.24843 165.273 6.86547 165.272 6.45141C165.271 5.99829 165.2 5.58828 165.058 5.22139C164.925 4.84668 164.725 4.52289 164.458 4.25002C164.192 3.97715 163.868 3.7669 163.484 3.61928C163.109 3.47164 162.683 3.39443 162.207 3.38763L159.312 3.39381L159.325 9.35864ZM186.211 14.1763L180.856 14.1877L179.704 18.1159L176.774 18.1222L182.292 1.04788L184.788 1.04255L190.286 18.0934L187.368 18.0996L186.211 14.1763ZM181.565 11.7721L185.514 11.7637L183.543 5.01788L181.565 11.7721ZM211.057 12.799C210.98 13.6273 210.786 14.3816 210.475 15.062C210.164 15.7345 209.755 16.3096 209.249 16.7873C208.734 17.2727 208.122 17.649 207.411 17.9162C206.709 18.1755 205.928 18.3061 205.068 18.3079C204.365 18.3094 203.717 18.217 203.122 18.0308C202.536 17.8367 202.012 17.5644 201.55 17.2138C201.104 16.8867 200.713 16.493 200.376 16.0328C200.047 15.5647 199.768 15.0536 199.541 14.4994C199.313 13.953 199.14 13.3596 199.021 12.7192C198.91 12.0788 198.854 11.411 198.853 10.7157L198.848 8.38366C198.846 7.71959 198.9 7.07885 199.008 6.46144C199.116 5.84402 199.279 5.26164 199.496 4.71429C199.729 4.10442 200.029 3.553 200.395 3.06003C200.769 2.55923 201.198 2.13253 201.681 1.77994C202.142 1.45864 202.649 1.20756 203.203 1.02669C203.765 0.845799 204.378 0.754647 205.043 0.753229C205.941 0.751312 206.742 0.882415 207.446 1.14654C208.157 1.41065 208.763 1.78435 209.265 2.26766C209.773 2.75876 210.173 3.35166 210.464 4.04635C210.762 4.74103 210.955 5.51406 211.043 6.36544L208.23 6.37144C208.182 5.86373 208.084 5.40691 207.934 5.00097C207.793 4.58721 207.597 4.23607 207.346 3.94754C207.088 3.65903 206.771 3.44095 206.396 3.29332C206.02 3.13787 205.571 3.0607 205.047 3.06182C204.68 3.0626 204.348 3.11409 204.052 3.21629C203.763 3.31847 203.505 3.46355 203.279 3.65153C202.967 3.87876 202.706 4.17619 202.496 4.54383C202.294 4.90364 202.126 5.30634 201.995 5.75193C201.894 6.14277 201.817 6.56091 201.763 7.00634C201.717 7.44394 201.694 7.8932 201.695 8.35414L201.7 10.7096C201.702 11.2799 201.734 11.815 201.798 12.3149C201.869 12.8147 201.975 13.2715 202.117 13.6853C202.227 14.0288 202.364 14.341 202.529 14.6219C202.702 14.9028 202.905 15.1445 203.14 15.3472C203.383 15.5654 203.66 15.7328 203.973 15.8493C204.294 15.958 204.657 16.0119 205.063 16.011C205.548 16.01 205.977 15.9388 206.352 15.7973C206.727 15.6559 207.047 15.4482 207.312 15.1742C207.569 14.908 207.775 14.5756 207.931 14.1768C208.086 13.778 208.187 13.3208 208.232 12.805L211.057 12.799ZM231.177 10.3537L224.122 10.3688L224.134 15.7008L232.372 15.6832L232.377 18.0035L221.315 18.0271L221.278 0.96467L232.282 0.941184L232.287 3.27321L224.107 3.29067L224.118 8.09535L231.172 8.08029L231.177 10.3537Z" fill="white"/>
<path d="M4.8932 18.4891L3.8932 18.4912L3.89534 19.4912L4.89533 19.4891L4.8932 18.4891ZM4.85678 1.4266L4.85465 0.426599L3.85465 0.428734L3.85678 1.42873L4.85678 1.4266ZM11.1503 1.67098L10.8961 2.6382L10.9071 2.64095L11.1503 1.67098ZM12.9213 2.35861L12.4353 3.23259L12.4461 3.23856L12.4569 3.24426L12.9213 2.35861ZM14.4589 3.50376L13.7412 4.20014L13.7473 4.20632L14.4589 3.50376ZM15.5989 5.04821L16.4829 4.58057L16.4799 4.57511L15.5989 5.04821ZM16.3538 12.8161L15.38 12.5886L15.3782 12.5966L16.3538 12.8161ZM15.6781 14.7043L16.5659 15.1646L16.5661 15.1642L15.6781 14.7043ZM14.6267 16.2183L13.887 15.5453L13.8807 15.5523L14.6267 16.2183ZM13.2698 17.3813L13.8016 18.2283L13.811 18.2222L13.2698 17.3813ZM11.3965 18.1939L11.1313 17.2297L11.1285 17.2305L11.3965 18.1939ZM7.70933 3.71739L7.7072 2.71739L6.7072 2.71953L6.70934 3.71952L7.70933 3.71739ZM7.73597 16.1978L6.73597 16.2L6.73811 17.2L7.73811 17.1978L7.73597 16.1978ZM10.5715 16.016L10.8459 16.9777L10.8577 16.9742L10.5715 16.016ZM11.7071 15.4862L12.268 16.3141L12.2722 16.3112L11.7071 15.4862ZM12.6193 14.6054L11.8222 14.0015L11.8201 14.0042L12.6193 14.6054ZM13.2846 13.3735L12.3491 13.0203L12.3469 13.0261L13.2846 13.3735ZM13.27 6.51803L14.2041 6.16079L14.1998 6.14992L13.27 6.51803ZM12.5173 5.23057L11.7377 5.85696L11.744 5.8646L12.5173 5.23057ZM11.402 4.28373L10.9053 5.15173L10.9128 5.15593L11.402 4.28373ZM10.3464 3.87582L10.0968 4.84418L10.1059 4.84653L10.1151 4.84871L10.3464 3.87582ZM9.08042 3.71446L9.09553 2.71458L9.08691 2.71445L9.07829 2.71446L9.08042 3.71446ZM5.8932 18.4869L5.85678 1.42446L3.85678 1.42873L3.8932 18.4912L5.8932 18.4869ZM4.85892 2.42659L9.07766 2.41759L9.07339 0.417595L4.85465 0.426599L4.85892 2.42659ZM9.07766 2.41759C9.73364 2.41619 10.3385 2.4916 10.8961 2.63814L11.4044 0.703812C10.6645 0.509373 9.88615 0.41586 9.07339 0.417595L9.07766 2.41759ZM10.9071 2.64095C11.4794 2.78446 11.987 2.98328 12.4353 3.23259L13.4072 1.48462C12.7919 1.14245 12.1187 0.882855 11.3935 0.701005L10.9071 2.64095ZM12.4569 3.24426C12.9436 3.49943 13.3702 3.81777 13.7412 4.20011L15.1766 2.80742C14.655 2.26979 14.0565 1.82469 13.3856 1.47295L12.4569 3.24426ZM13.7473 4.20632C14.1342 4.59826 14.4572 5.0358 14.7179 5.52131L16.4799 4.57511C16.1288 3.9213 15.6918 3.3292 15.1705 2.80121L13.7473 4.20632ZM14.715 5.51584C14.9869 6.02975 15.2026 6.60321 15.3582 7.24075L17.3011 6.76662C17.1099 5.98302 16.8385 5.25283 16.4828 4.58057L14.715 5.51584ZM15.3582 7.24075C15.511 7.86717 15.5907 8.54536 15.5923 9.2787L17.5923 9.27443C17.5904 8.3984 17.4951 7.56133 17.3011 6.76662L15.3582 7.24075ZM15.5923 9.2787L15.5952 10.6146L17.5952 10.6104L17.5923 9.27443L15.5923 9.2787ZM15.5952 10.6146C15.5967 11.3171 15.5236 11.9741 15.38 12.5886L17.3275 13.0437C17.5091 12.2668 17.597 11.4548 17.5952 10.6104L15.5952 10.6146ZM15.3782 12.5966C15.2404 13.2089 15.0428 13.7565 14.7901 14.2445L16.5661 15.1642C16.9047 14.5103 17.1576 13.7991 17.3294 13.0357L15.3782 12.5966ZM14.7903 14.2441C14.5416 14.7238 14.2406 15.1567 13.887 15.5453L15.3663 16.8913C15.8389 16.3719 16.2389 15.7954 16.5659 15.1646L14.7903 14.2441ZM13.8807 15.5523C13.5339 15.9407 13.1501 16.2691 12.7285 16.5405L13.811 18.2222C14.388 17.8508 14.9088 17.4038 15.3726 16.8842L13.8807 15.5523ZM12.738 16.5345C12.2648 16.8316 11.7313 17.0647 11.1313 17.2297L11.6617 19.1581C12.4359 18.9452 13.1512 18.6366 13.8016 18.2282L12.738 16.5345ZM11.1285 17.2305C10.5446 17.3929 9.90452 17.4784 9.20355 17.4799L9.20782 19.4799C10.0694 19.478 10.8899 19.3728 11.6645 19.1574L11.1285 17.2305ZM9.20355 17.4799L4.89106 17.4891L4.89533 19.4891L9.20782 19.4799L9.20355 17.4799ZM6.70934 3.71952L6.73597 16.2L8.73597 16.1957L8.70933 3.71525L6.70934 3.71952ZM7.73811 17.1978L9.20295 17.1947L9.19868 15.1947L7.73384 15.1978L7.73811 17.1978ZM9.20295 17.1947C9.78051 17.1935 10.3306 17.1246 10.8459 16.9776L10.2972 15.0544C9.98484 15.1435 9.62111 15.1938 9.19868 15.1947L9.20295 17.1947ZM10.8577 16.9742C11.3686 16.8216 11.8412 16.6033 12.268 16.3141L11.1462 14.6583C10.9021 14.8237 10.6177 14.9586 10.2854 15.0578L10.8577 16.9742ZM12.2722 16.3112C12.7103 16.0112 13.0921 15.6403 13.4185 15.2065L11.8201 14.0042C11.6167 14.2747 11.3904 14.4911 11.142 14.6612L12.2722 16.3112ZM13.4164 15.2092C13.7533 14.7645 14.0205 14.2659 14.2224 13.7209L12.3469 13.0261C12.2071 13.4037 12.0306 13.7264 11.8222 14.0015L13.4164 15.2092ZM14.2202 13.7267C14.3933 13.2681 14.5214 12.7783 14.6081 12.2604L12.6355 11.9304C12.5678 12.3347 12.4712 12.6969 12.3491 13.0203L14.2202 13.7267ZM14.6081 12.2604C14.6955 11.738 14.737 11.1894 14.7358 10.6165L12.7358 10.6207C12.7368 11.0947 12.7023 11.5306 12.6355 11.9304L14.6081 12.2604ZM14.7358 10.6165L14.7329 9.2571L12.7329 9.26137L12.7358 10.6207L14.7358 10.6165ZM14.7329 9.2571C14.7317 8.69112 14.6877 8.14669 14.5982 7.62543L12.627 7.96385C12.6957 8.36414 12.7319 8.7961 12.7329 9.26137L14.7329 9.2571ZM14.5982 7.62543C14.5093 7.10792 14.3791 6.61864 14.204 6.16081L12.336 6.87524C12.4594 7.19803 12.5576 7.55983 12.627 7.96385L14.5982 7.62543ZM14.1998 6.14992C13.9746 5.58108 13.6718 5.06158 13.2906 4.59654L11.744 5.8646C11.9893 6.16385 12.1884 6.50265 12.3402 6.88614L14.1998 6.14992ZM13.2968 4.60421C12.9045 4.11593 12.4346 3.71631 11.8911 3.41153L10.9128 5.15593C11.2298 5.33368 11.5034 5.56529 11.7377 5.85693L13.2968 4.60421ZM11.8986 3.41576C11.4939 3.18419 11.051 3.01547 10.5777 2.90294L10.1151 4.84871C10.4234 4.92201 10.6843 5.02523 10.9053 5.1517L11.8986 3.41576ZM10.596 2.90747C10.1198 2.78475 9.61827 2.72247 9.09553 2.71458L9.06532 4.71435C9.44886 4.72014 9.79132 4.76544 10.0968 4.84418L10.596 2.90747ZM9.07829 2.71446L7.7072 2.71739L7.71147 4.71739L9.08256 4.71446L9.07829 2.71446ZM32.3524 11.8093L33.2481 11.3647L32.9718 10.808L32.3503 10.8093L32.3524 11.8093ZM29.4696 11.8155L29.4675 10.8155L28.4675 10.8176L28.4696 11.8176L29.4696 11.8155ZM29.4838 18.4366L29.4859 19.4366L30.4859 19.4344L30.4838 18.4344L29.4838 18.4366ZM26.6713 18.4426L25.6713 18.4447L25.6734 19.4447L26.6734 19.4426L26.6713 18.4426ZM26.6349 1.38011L26.6327 0.380117L25.6327 0.382251L25.6349 1.38225L26.6349 1.38011ZM32.0489 1.36856L32.0556 0.368542L32.0468 0.368561L32.0489 1.36856ZM36.411 2.66003L37.0383 1.88118L37.032 1.87615L37.0257 1.87121L36.411 2.66003ZM37.6567 4.26285L36.7502 4.68525L36.7522 4.6895L37.6567 4.26285ZM37.8758 8.0827L36.9249 7.77318L36.9226 7.78025L36.9204 7.78735L37.8758 8.0827ZM34.9877 11.1357L34.5754 10.2247L33.6183 10.6579L34.0981 11.5924L34.9877 11.1357ZM38.6475 18.2647L39.6475 18.2625L39.647 18.022L39.5371 17.808L38.6475 18.2647ZM38.6478 18.417L38.6499 19.417L39.6499 19.4149L39.6478 18.4149L38.6478 18.417ZM35.6361 18.4234L34.7404 18.8681L35.0168 19.4248L35.6382 19.4234L35.6361 18.4234ZM29.4647 9.51862L28.4647 9.52076L28.4669 10.5208L29.4669 10.5186L29.4647 9.51862ZM32.1014 9.513L32.1036 10.513L32.1114 10.513L32.1192 10.5128L32.1014 9.513ZM33.4486 9.28746L33.7835 10.2298L33.7938 10.226L33.4486 9.28746ZM34.4785 8.65245L33.793 7.92438L33.7864 7.9306L33.7799 7.93695L34.4785 8.65245ZM35.0339 5.32313L34.1049 5.69317L34.1096 5.70497L34.1146 5.71665L35.0339 5.32313ZM34.3639 4.38706L33.7148 5.14774L33.7214 5.15335L34.3639 4.38706ZM33.3667 3.86185L33.064 4.81492L33.0727 4.81768L33.0814 4.82028L33.3667 3.86185ZM32.0538 3.66543L32.0678 2.66553L32.0597 2.66541L32.0517 2.66543L32.0538 3.66543ZM29.4523 3.67098L29.4501 2.67098L28.4501 2.67312L28.4523 3.67312L29.4523 3.67098ZM32.3503 10.8093L29.4675 10.8155L29.4718 12.8155L32.3546 12.8093L32.3503 10.8093ZM28.4696 11.8176L28.4838 18.4387L30.4838 18.4344L30.4696 11.8134L28.4696 11.8176ZM29.4816 17.4366L26.6691 17.4426L26.6734 19.4426L29.4859 19.4366L29.4816 17.4366ZM27.6713 18.4404L27.6349 1.37798L25.6349 1.38225L25.6713 18.4447L27.6713 18.4404ZM26.637 2.38011L32.051 2.36856L32.0468 0.368561L26.6327 0.380117L26.637 2.38011ZM32.0422 2.36854C32.8451 2.37393 33.5643 2.47523 34.2065 2.663L34.7678 0.743393C33.9246 0.496835 33.0184 0.375046 32.0556 0.368581L32.0422 2.36854ZM34.2065 2.663C34.8437 2.84934 35.3681 3.11513 35.7964 3.44885L37.0257 1.87121C36.374 1.36348 35.6159 0.991385 34.7678 0.743393L34.2065 2.663ZM35.7838 3.43888C36.1929 3.76828 36.5144 4.17908 36.7502 4.68524L38.5631 3.84045C38.2025 3.06663 37.6936 2.40889 37.0383 1.88118L35.7838 3.43888ZM36.7522 4.6895C36.9757 5.16314 37.1052 5.7544 37.1067 6.49059L39.1067 6.48632C39.1047 5.51938 38.9341 4.62691 38.5611 3.8362L36.7522 4.6895ZM37.1067 6.49059C37.1078 6.98809 37.0424 7.41222 36.9249 7.77318L38.8266 8.39222C39.0196 7.79939 39.1082 7.16069 39.1067 6.48632L37.1067 6.49059ZM36.9204 7.78735C36.8024 8.16887 36.6381 8.50202 36.4307 8.79361L38.0607 9.95261C38.3986 9.47741 38.6542 8.95028 38.8311 8.37804L36.9204 7.78735ZM36.4307 8.79361C36.2181 9.09269 35.9621 9.35648 35.6592 9.58627L36.8678 11.1798C37.3292 10.8298 37.7281 10.4203 38.0607 9.95261L36.4307 8.79361ZM35.6592 9.58627C35.3406 9.8279 34.9805 10.0414 34.5754 10.2247L35.4 12.0468C35.9316 11.8062 36.422 11.5179 36.8678 11.1798L35.6592 9.58627ZM34.0981 11.5924L37.7579 18.7214L39.5371 17.808L35.8774 10.679L34.0981 11.5924ZM37.6475 18.2668L37.6478 18.4191L39.6478 18.4149L39.6475 18.2625L37.6475 18.2668ZM38.6457 17.417L35.634 17.4234L35.6382 19.4234L38.6499 19.417L38.6457 17.417ZM36.5318 17.9788L33.2481 11.3647L31.4568 12.254L34.7404 18.8681L36.5318 17.9788ZM29.4669 10.5186L32.1036 10.513L32.0993 8.513L29.4626 8.51863L29.4669 10.5186ZM32.1192 10.5128C32.708 10.5024 33.2667 10.4134 33.7835 10.2297L33.1138 8.34519C32.8343 8.44451 32.4949 8.50585 32.0837 8.51315L32.1192 10.5128ZM33.7938 10.226C34.3183 10.0331 34.7858 9.75009 35.1771 9.36796L33.7799 7.93695C33.61 8.10289 33.3908 8.24322 33.1034 8.34893L33.7938 10.226ZM35.164 9.38053C35.5267 9.0391 35.7996 8.6265 35.989 8.16067L34.1363 7.40736C34.0459 7.62964 33.9294 7.79598 33.793 7.92438L35.164 9.38053ZM35.989 8.16067C36.1856 7.67694 36.2722 7.15418 36.271 6.60956L34.271 6.61383C34.2718 6.9442 34.2194 7.20299 34.1363 7.40736L35.989 8.16067ZM36.271 6.60956C36.2698 6.01332 36.174 5.44543 35.9532 4.92962L34.1146 5.71665C34.2079 5.93454 34.2702 6.2257 34.271 6.61383L36.271 6.60956ZM35.9629 4.9531C35.7549 4.4309 35.4357 3.98072 35.0065 3.62078L33.7214 5.15335C33.887 5.29214 34.0144 5.466 34.1049 5.69317L35.9629 4.9531ZM35.0131 3.62642C34.6198 3.29076 34.159 3.05431 33.652 2.90341L33.0814 4.82028C33.3562 4.90209 33.5602 5.01578 33.7148 5.14771L35.0131 3.62642ZM33.6695 2.90877C33.17 2.75013 32.633 2.67344 32.0678 2.66553L32.0398 4.66533C32.4434 4.67098 32.7817 4.72523 33.064 4.81492L33.6695 2.90877ZM32.0517 2.66543L29.4501 2.67098L29.4544 4.67098L32.0559 4.66543L32.0517 2.66543ZM28.4523 3.67312L28.4647 9.52076L30.4647 9.51649L30.4523 3.66885L28.4523 3.67312ZM58.265 10.7228L58.2672 11.7228L59.2672 11.7206L59.265 10.7206L58.265 10.7228ZM51.2104 10.7378L51.2082 9.73784L50.2082 9.73998L50.2104 10.74L51.2104 10.7378ZM51.2217 16.0699L50.2217 16.072L50.2239 17.072L51.2239 17.0699L51.2217 16.0699ZM59.46 16.0523L60.46 16.0501L60.4579 15.0501L59.4579 15.0523L59.46 16.0523ZM59.465 18.3726L59.4671 19.3726L60.4671 19.3704L60.4649 18.3704L59.465 18.3726ZM48.4025 18.3962L47.4025 18.3983L47.4046 19.3983L48.4046 19.3962L48.4025 18.3962ZM48.3661 1.33373L48.3639 0.333734L47.3639 0.335868L47.3661 1.33587L48.3661 1.33373ZM59.3699 1.31024L60.3699 1.30811L60.3678 0.308113L59.3678 0.310247L59.3699 1.31024ZM59.3749 3.64227L59.3771 4.64227L60.3771 4.64013L60.3749 3.64014L59.3749 3.64227ZM51.1952 3.65973L51.1931 2.65973L50.1931 2.66187L50.1953 3.66186L51.1952 3.65973ZM51.2055 8.46441L50.2055 8.46654L50.2076 9.46654L51.2076 9.4644L51.2055 8.46441ZM58.2602 8.44935L59.2602 8.44721L59.258 7.44722L58.258 7.44935L58.2602 8.44935ZM58.2629 9.72278L51.2082 9.73784L51.2125 11.7378L58.2672 11.7228L58.2629 9.72278ZM50.2104 10.74L50.2217 16.072L52.2217 16.0677L52.2104 10.7357L50.2104 10.74ZM51.2239 17.0699L59.4621 17.0523L59.4579 15.0523L51.2196 15.0699L51.2239 17.0699ZM58.46 16.0544L58.465 18.3747L60.4649 18.3704L60.46 16.0501L58.46 16.0544ZM59.4628 17.3726L48.4003 17.3962L48.4046 19.3962L59.4671 19.3726L59.4628 17.3726ZM49.4025 18.3941L49.3661 1.3316L47.3661 1.33587L47.4025 18.3983L49.4025 18.3941ZM48.3682 2.33373L59.3721 2.31024L59.3678 0.310247L48.3639 0.333734L48.3682 2.33373ZM58.3699 1.31238L58.3749 3.64441L60.3749 3.64014L60.3699 1.30811L58.3699 1.31238ZM59.3728 2.64227L51.1931 2.65973L51.1974 4.65973L59.3771 4.64227L59.3728 2.64227ZM50.1953 3.66186L50.2055 8.46654L52.2055 8.46227L52.1952 3.6576L50.1953 3.66186ZM51.2076 9.4644L58.2623 9.44935L58.258 7.44935L51.2034 7.46441L51.2076 9.4644ZM57.2602 8.45148L57.265 10.7249L59.265 10.7206L59.2602 8.44721L57.2602 8.45148ZM78.1409 14.4069L79.1001 14.1241L78.8881 13.4053L78.1388 13.4069L78.1409 14.4069ZM72.7854 14.4184L72.7833 13.4184L72.0361 13.42L71.8258 14.137L72.7854 14.4184ZM71.6337 18.3466L71.6358 19.3466L72.383 19.345L72.5933 18.628L71.6337 18.3466ZM68.704 18.3529L67.7525 18.0453L67.3289 19.3558L68.7061 19.3529L68.704 18.3529ZM74.2222 1.27854L74.2201 0.278547L73.494 0.280096L73.2707 0.971016L74.2222 1.27854ZM76.7183 1.27322L77.6701 0.966361L77.4461 0.271661L76.7162 0.273219L76.7183 1.27322ZM82.2157 18.324L82.2178 19.324L83.5878 19.3211L83.1674 18.0172L82.2157 18.324ZM79.2977 18.3303L78.3385 18.6131L78.5505 19.3318L79.2999 19.3302L79.2977 18.3303ZM73.4951 12.0028L72.5354 11.7218L72.1595 13.0056L73.4973 13.0028L73.4951 12.0028ZM77.4443 11.9943L77.4465 12.9943L78.7776 12.9915L78.4042 11.7138L77.4443 11.9943ZM75.4729 5.24854L76.4328 4.96803L75.4739 1.68686L74.5132 4.96752L75.4729 5.24854ZM78.1388 13.4069L72.7833 13.4184L72.7876 15.4184L78.143 15.4069L78.1388 13.4069ZM71.8258 14.137L70.6741 18.0653L72.5933 18.628L73.745 14.6997L71.8258 14.137ZM71.6315 17.3466L68.7019 17.3529L68.7061 19.3529L71.6358 19.3466L71.6315 17.3466ZM69.6555 18.6604L75.1738 1.58607L73.2707 0.971016L67.7525 18.0453L69.6555 18.6604ZM74.2244 2.27854L76.7205 2.27321L76.7162 0.273219L74.2201 0.278547L74.2244 2.27854ZM75.7666 1.58007L81.2639 18.6309L83.1674 18.0172L77.6701 0.966361L75.7666 1.58007ZM82.2135 17.324L79.2956 17.3303L79.2999 19.3302L82.2178 19.324L82.2135 17.324ZM80.2569 18.0474L79.1001 14.1241L77.1817 14.6897L78.3385 18.6131L80.2569 18.0474ZM73.4973 13.0028L77.4465 12.9943L77.4422 10.9944L73.493 11.0028L73.4973 13.0028ZM78.4042 11.7138L76.4328 4.96803L74.5131 5.52905L76.4845 12.2749L78.4042 11.7138ZM74.5132 4.96752L72.5354 11.7218L74.4548 12.2838L76.4326 5.52956L74.5132 4.96752ZM94.7816 1.23466L95.7417 0.955042L95.5314 0.23306L94.7794 0.234665L94.7816 1.23466ZM96.9065 8.53093L95.9464 8.81055L96.8659 11.9677L97.8598 8.83317L96.9065 8.53093ZM99.223 1.22518L99.2208 0.225186L98.4905 0.226744L98.2697 0.922941L99.223 1.22518ZM102.727 1.2177L103.727 1.21557L103.725 0.215572L102.725 0.217707L102.727 1.2177ZM102.763 18.2802L102.765 19.2802L103.765 19.278L103.763 18.278L102.763 18.2802ZM100.115 18.2858L99.1149 18.288L99.117 19.288L100.117 19.2858L100.115 18.2858ZM100.103 12.4968L99.1027 12.4774L99.1025 12.4881L99.1025 12.4989L100.103 12.4968ZM100.25 4.87925L101.25 4.89865L99.2979 4.57452L100.25 4.87925ZM97.6427 13.0294L97.6448 14.0294L98.3732 14.0278L98.5951 13.3341L97.6427 13.0294ZM96.1779 13.0325L95.2213 13.3241L95.4378 14.0341L96.18 14.0325L96.1779 13.0325ZM93.7822 5.17431L94.7387 4.88269L92.7824 5.1972L93.7822 5.17431ZM93.9502 12.5099L94.9502 12.5078L94.9502 12.4974L94.9499 12.487L93.9502 12.5099ZM93.9625 18.299L93.9647 19.2989L94.9647 19.2968L94.9625 18.2968L93.9625 18.299ZM91.3258 18.3046L90.3258 18.3067L90.328 19.3067L91.328 19.3046L91.3258 18.3046ZM91.2894 1.24212L91.2873 0.242119L90.2873 0.244253L90.2894 1.24425L91.2894 1.24212ZM93.8215 1.51428L95.9464 8.81055L97.8666 8.2513L95.7417 0.955042L93.8215 1.51428ZM97.8598 8.83317L100.176 1.52743L98.2697 0.922941L95.9533 8.22868L97.8598 8.83317ZM99.2251 2.22518L102.729 2.2177L102.725 0.217707L99.2208 0.225186L99.2251 2.22518ZM101.727 1.21984L101.763 18.2823L103.763 18.278L103.727 1.21557L101.727 1.21984ZM102.761 17.2802L100.113 17.2858L100.117 19.2858L102.765 19.2802L102.761 17.2802ZM101.115 18.2837L101.103 12.4946L99.1025 12.4989L99.1149 18.288L101.115 18.2837ZM101.102 12.5162L101.25 4.89865L99.2505 4.85985L99.1027 12.4774L101.102 12.5162ZM99.2979 4.57452L96.6903 12.7246L98.5951 13.3341L101.203 5.18398L99.2979 4.57452ZM97.6406 12.0294L96.1757 12.0325L96.18 14.0325L97.6448 14.0294L97.6406 12.0294ZM97.1344 12.7409L94.7387 4.88269L92.8256 5.46592L95.2213 13.3241L97.1344 12.7409ZM92.7824 5.1972L92.9504 12.5328L94.9499 12.487L94.7819 5.15141L92.7824 5.1972ZM92.9502 12.512L92.9625 18.3011L94.9625 18.2968L94.9502 12.5078L92.9502 12.512ZM93.9604 17.299L91.3237 17.3046L91.328 19.3046L93.9647 19.2989L93.9604 17.299ZM92.3258 18.3024L92.2894 1.23998L90.2894 1.24425L90.3258 18.3067L92.3258 18.3024ZM91.2915 2.24211L94.7837 2.23466L94.7794 0.234665L91.2873 0.242119L91.2915 2.24211ZM142.65 11.9255L143.28 11.1493L143.258 11.1313L143.235 11.1146L142.65 11.9255ZM141.535 11.3185L141.131 12.2332L141.141 12.2376L141.151 12.2419L141.535 11.3185ZM140.116 10.8176L140.387 9.85497L140.385 9.85446L140.116 10.8176ZM137.888 9.99033L137.443 10.8858L137.455 10.8918L137.888 9.99033ZM136.163 8.86901L135.502 9.61922L135.509 9.62528L136.163 8.86901ZM135.035 7.44173L134.139 7.88565L134.143 7.8935L134.147 7.90127L135.035 7.44173ZM135.097 3.66815L135.978 4.1418L135.98 4.13686L135.097 3.66815ZM136.359 2.16545L135.75 1.37236L135.743 1.37804L136.359 2.16545ZM138.209 1.23572L138.498 2.19296L138.505 2.19087L138.209 1.23572ZM142.756 1.28461L142.417 2.22551L142.43 2.22981L142.756 1.28461ZM144.633 2.33529L145.287 1.57855L145.281 1.57308L144.633 2.33529ZM145.891 3.98496L144.989 4.41639L144.992 4.42304L144.995 4.42965L145.891 3.98496ZM146.364 6.09333L146.366 7.09333L147.366 7.09119L147.364 6.09119L146.364 6.09333ZM143.575 6.09928L142.579 6.19194L142.664 7.10123L143.577 7.09928L143.575 6.09928ZM143.291 4.92801L142.361 5.29439L142.366 5.30674L142.371 5.31895L143.291 4.92801ZM142.692 4.0035L143.397 3.29489L143.386 3.2842L143.375 3.27384L142.692 4.0035ZM141.718 3.41964L141.352 4.35023L141.363 4.35479L141.375 4.35905L141.718 3.41964ZM139.221 3.3781L139.515 4.33424L139.527 4.33011L139.221 3.3781ZM138.285 3.84885L137.676 3.05579L137.669 3.06136L137.661 3.06707L138.285 3.84885ZM137.445 5.60846L136.445 5.61059L136.445 5.62059L136.445 5.63059L137.445 5.60846ZM137.752 6.63905L136.917 7.19049L136.924 7.20068L137.752 6.63905ZM138.539 7.3991L137.986 8.23238L137.995 8.23826L138.539 7.3991ZM139.688 7.97086L139.334 8.90586L139.339 8.90794L139.688 7.97086ZM141.06 8.42497L140.779 9.38472L140.788 9.38707L141.06 8.42497ZM142.819 9.06574L142.41 9.97784L142.417 9.9812L142.425 9.98444L142.819 9.06574ZM144.415 9.9764L145.015 9.17635L145.009 9.17203L144.415 9.9764ZM145.86 11.6022L144.992 12.0979L144.995 12.1043L144.999 12.1106L145.86 11.6022ZM145.939 15.7739L145.063 15.2911L145.059 15.3003L145.939 15.7739ZM144.677 17.218L144.09 16.4079L144.081 16.4151L144.677 17.218ZM142.804 18.1244L143.071 19.0881L143.08 19.0853L142.804 18.1244ZM138.081 18.0407L137.772 18.9919L137.78 18.9945L138.081 18.0407ZM135.957 16.8968L135.313 17.662L135.32 17.6672L135.957 16.8968ZM134.63 15.2473L133.738 15.7008L133.743 15.7095L134.63 15.2473ZM134.133 13.0687L134.131 12.0687L133.121 12.0708L133.133 13.0803L134.133 13.0687ZM136.945 13.0627L137.942 12.9861L137.871 12.0607L136.943 12.0627L136.945 13.0627ZM137.276 14.4331L136.369 14.8529L136.374 14.8639L136.379 14.8748L137.276 14.4331ZM138.04 15.3806L138.675 14.6079L138.664 14.5993L138.654 14.591L138.04 15.3806ZM139.143 15.9525L138.861 16.9119L138.865 16.9133L139.143 15.9525ZM141.744 15.9821L141.481 15.0174L141.476 15.0189L141.744 15.9821ZM142.716 15.523L142.122 14.7186L142.118 14.7215L142.716 15.523ZM143.347 14.7951L142.477 14.3034L142.472 14.3124L142.467 14.3215L143.347 14.7951ZM144.591 13.7963C144.59 13.2577 144.477 12.7389 144.222 12.2683L142.464 13.2203C142.538 13.3584 142.591 13.5424 142.591 13.8006L144.591 13.7963ZM144.222 12.2683C143.989 11.8368 143.669 11.4647 143.28 11.1493L142.019 12.7017C142.226 12.8694 142.368 13.0432 142.464 13.2203L144.222 12.2683ZM143.235 11.1146C142.848 10.8354 142.406 10.5976 141.919 10.3951L141.151 12.2419C141.524 12.3969 141.825 12.5638 142.065 12.7363L143.235 11.1146ZM141.939 10.4038C141.467 10.1951 140.948 10.0129 140.387 9.85497L139.845 11.7803C140.331 11.917 140.759 12.0687 141.131 12.2332L141.939 10.4038ZM140.385 9.85446C139.63 9.64369 138.943 9.38769 138.321 9.08886L137.455 10.8918C138.193 11.2463 138.992 11.5418 139.847 11.7808L140.385 9.85446ZM138.333 9.09495C137.722 8.79101 137.22 8.4616 136.817 8.11274L135.509 9.62528C136.06 10.1025 136.709 10.5207 137.443 10.8857L138.333 9.09495ZM136.824 8.11884C136.433 7.77456 136.137 7.39572 135.923 6.98219L134.147 7.90127C134.482 8.54907 134.937 9.12176 135.502 9.61919L136.824 8.11884ZM135.931 6.99781C135.74 6.61215 135.634 6.1609 135.632 5.62404L133.632 5.62831C133.634 6.4352 133.796 7.19432 134.139 7.88565L135.931 6.99781ZM135.632 5.62404C135.631 5.04564 135.753 4.55937 135.978 4.14179L134.216 3.19451C133.818 3.93451 133.631 4.7536 133.632 5.62831L135.632 5.62404ZM135.98 4.13686C136.225 3.67582 136.554 3.28297 136.976 2.95287L135.743 1.37804C135.104 1.87833 134.592 2.48727 134.214 3.19945L135.98 4.13686ZM136.969 2.95851C137.394 2.63157 137.9 2.37383 138.498 2.19293L137.92 0.278512C137.113 0.522492 136.385 0.884573 135.75 1.37239L136.969 2.95851ZM138.505 2.19087C139.116 2.00158 139.762 1.90428 140.449 1.90282L140.444 -0.0971771C139.569 -0.0953076 138.723 0.029332 137.913 0.280573L138.505 2.19087ZM140.449 1.90282C141.172 1.90128 141.825 2.01211 142.417 2.22543L143.095 0.343791C142.264 0.0445215 141.378 -0.0991692 140.444 -0.0971771L140.449 1.90282ZM142.43 2.22981C143.042 2.44138 143.557 2.73285 143.986 3.09751L145.281 1.57308C144.646 1.03376 143.909 0.62477 143.083 0.339415L142.43 2.22981ZM143.98 3.09201C144.406 3.46088 144.741 3.89971 144.989 4.41639L146.793 3.55353C146.428 2.79026 145.924 2.12932 145.287 1.57857L143.98 3.09201ZM144.995 4.42965C145.234 4.91145 145.363 5.46064 145.364 6.09546L147.364 6.09119C147.362 5.17914 147.175 4.32276 146.786 3.54026L144.995 4.42965ZM146.362 5.09333L143.573 5.09928L143.577 7.09928L146.366 7.09333L146.362 5.09333ZM144.571 6.00662C144.522 5.48752 144.406 4.99475 144.212 4.53707L142.371 5.31895C142.475 5.56376 142.548 5.85184 142.579 6.19194L144.571 6.00662ZM144.222 4.56162C144.033 4.08182 143.759 3.65512 143.397 3.29489L141.986 4.71212C142.141 4.86641 142.267 5.05605 142.361 5.29439L144.222 4.56162ZM143.375 3.27384C143 2.92193 142.555 2.6608 142.06 2.48024L141.375 4.35905C141.646 4.4581 141.851 4.58622 142.008 4.73317L143.375 3.27384ZM142.084 2.48905C141.568 2.28635 141.005 2.19851 140.414 2.19977L140.418 4.19976C140.812 4.19892 141.116 4.25766 141.352 4.35023L142.084 2.48905ZM140.414 2.19977C139.893 2.20088 139.391 2.27314 138.915 2.42609L139.527 4.33011C139.786 4.24711 140.08 4.20049 140.418 4.19976L140.414 2.19977ZM138.928 2.42205C138.469 2.56292 138.047 2.77092 137.676 3.05579L138.894 4.64191C139.054 4.51939 139.256 4.41356 139.515 4.33415L138.928 2.42205ZM137.661 3.06707C137.285 3.3675 136.984 3.73583 136.77 4.16659L138.561 5.05719C138.642 4.89357 138.755 4.7532 138.908 4.63063L137.661 3.06707ZM136.77 4.16659C136.546 4.61702 136.444 5.10489 136.445 5.61059L138.445 5.60632C138.444 5.37765 138.489 5.20114 138.561 5.05719L136.77 4.16659ZM136.445 5.63059C136.458 6.19028 136.607 6.72125 136.918 7.19045L138.586 6.08766C138.504 5.96394 138.45 5.80785 138.445 5.58633L136.445 5.63059ZM136.924 7.20068C137.202 7.60996 137.563 7.95176 137.986 8.23233L139.092 6.56586C138.857 6.41033 138.693 6.24544 138.579 6.07743L136.924 7.20068ZM137.995 8.23826C138.399 8.49999 138.847 8.72115 139.334 8.90584L140.043 7.03588C139.67 6.89428 139.351 6.73426 139.082 6.55993L137.995 8.23826ZM139.339 8.90794C139.801 9.07993 140.281 9.23877 140.779 9.38468L141.341 7.46525C140.886 7.33195 140.451 7.18805 140.037 7.03379L139.339 8.90794ZM140.788 9.38707C141.343 9.54436 141.883 9.74123 142.41 9.97784L143.229 8.15365C142.614 7.87706 141.982 7.64675 141.333 7.46286L140.788 9.38707ZM142.425 9.98444C142.936 10.2042 143.4 10.47 143.821 10.7808L145.009 9.17203C144.46 8.76608 143.861 8.4248 143.214 8.14704L142.425 9.98444ZM143.815 10.7764C144.312 11.1492 144.701 11.5888 144.992 12.0979L146.729 11.1065C146.298 10.3516 145.723 9.70731 145.015 9.17637L143.815 10.7764ZM144.999 12.1106C145.265 12.5621 145.414 13.105 145.415 13.7712L147.415 13.7669C147.413 12.7924 147.192 11.8908 146.721 11.0938L144.999 12.1106ZM145.415 13.7712C145.417 14.3845 145.289 14.8814 145.064 15.2912L146.815 16.2567C147.227 15.5089 147.417 14.6691 147.415 13.7669L145.415 13.7712ZM145.059 15.3003C144.819 15.7467 144.498 16.1129 144.09 16.408L145.263 18.0281C145.916 17.5553 146.438 16.9588 146.82 16.2476L145.059 15.3003ZM144.081 16.4151C143.648 16.7364 143.134 16.9885 142.527 17.1635L143.08 19.0853C143.894 18.851 144.629 18.4989 145.273 18.021L144.081 16.4151ZM142.537 17.1607C141.918 17.332 141.258 17.4207 140.552 17.4222L140.556 19.4222C141.429 19.4203 142.268 19.3104 143.071 19.0881L142.537 17.1607ZM140.552 17.4222C139.821 17.4237 139.098 17.3128 138.381 17.0869L137.78 18.9945C138.689 19.2808 139.616 19.4242 140.556 19.4222L140.552 17.4222ZM138.39 17.0896C137.685 16.861 137.092 16.5375 136.595 16.1264L135.32 17.6672C136.028 18.2536 136.85 18.6927 137.772 18.9919L138.39 17.0896ZM136.601 16.1316C136.144 15.7466 135.784 15.2991 135.516 14.7851L133.743 15.7095C134.134 16.4597 134.66 17.1119 135.313 17.662L136.601 16.1316ZM135.521 14.7938C135.279 14.3186 135.141 13.7477 135.133 13.057L133.133 13.0803C133.144 14.0302 133.337 14.9118 133.738 15.7008L135.521 14.7938ZM134.135 14.0687L136.947 14.0627L136.943 12.0627L134.131 12.0687L134.135 14.0687ZM135.948 13.1392C135.995 13.756 136.128 14.3335 136.369 14.8529L138.184 14.0132C138.063 13.7521 137.975 13.416 137.942 12.9861L135.948 13.1392ZM136.379 14.8748C136.631 15.3863 136.98 15.8234 137.426 16.1703L138.654 14.591C138.458 14.4392 138.298 14.2446 138.173 13.9913L136.379 14.8748ZM137.405 16.1534C137.831 16.5029 138.321 16.7532 138.861 16.9119L139.425 14.9931C139.12 14.9036 138.875 14.7727 138.675 14.6079L137.405 16.1534ZM138.865 16.9133C139.398 17.0668 139.962 17.1383 140.552 17.137L140.547 15.137C140.122 15.1379 139.748 15.0863 139.42 14.9917L138.865 16.9133ZM140.552 17.137C141.06 17.1359 141.549 17.0748 142.013 16.9454L141.476 15.0189C141.206 15.0942 140.898 15.1363 140.547 15.137L140.552 17.137ZM142.008 16.9468C142.487 16.816 142.928 16.6128 143.314 16.3245L142.118 14.7215C141.958 14.8406 141.752 14.9435 141.481 15.0174L142.008 16.9468ZM143.31 16.3274C143.694 16.0441 144.002 15.6886 144.228 15.2687L142.467 14.3215C142.381 14.4803 142.269 14.6102 142.122 14.7186L143.31 16.3274ZM144.218 15.2868C144.477 14.8282 144.592 14.3218 144.591 13.7963L142.591 13.8006C142.592 14.0252 142.544 14.1831 142.477 14.3034L144.218 15.2868ZM159.33 11.6555L159.328 10.6555L158.328 10.6576L158.33 11.6576L159.33 11.6555ZM159.344 18.1594L159.346 19.1594L160.346 19.1573L160.344 18.1573L159.344 18.1594ZM156.531 18.1654L155.531 18.1675L155.533 19.1675L156.533 19.1654L156.531 18.1654ZM156.495 1.10294L156.493 0.102946L155.493 0.10508L155.495 1.10508L156.495 1.10294ZM162.202 1.09076L162.209 0.0907452L162.2 0.0907646L162.202 1.09076ZM164.57 1.47243L164.243 2.41763L164.246 2.41871L164.57 1.47243ZM167.679 8.56737L168.589 8.98093L168.591 8.97671L167.679 8.56737ZM166.463 10.1989L165.807 9.44419L165.801 9.44979L166.463 10.1989ZM164.591 11.2693L164.263 10.3244L164.26 10.3255L164.591 11.2693ZM159.325 9.35864L158.325 9.36077L158.327 10.3608L159.327 10.3586L159.325 9.35864ZM162.219 9.35246L162.221 10.3525L162.23 10.3524L162.238 10.3523L162.219 9.35246ZM163.496 9.12708L163.849 10.0627L163.86 10.0587L163.496 9.12708ZM165.063 7.60029L164.134 7.23089L164.13 7.23986L164.127 7.24889L165.063 7.60029ZM165.058 5.22139L164.116 5.55725L164.121 5.5692L164.125 5.58103L165.058 5.22139ZM163.484 3.61928L163.118 4.54989L163.125 4.55241L163.484 3.61928ZM162.207 3.38763L162.221 2.38773L162.213 2.38762L162.204 2.38763L162.207 3.38763ZM159.312 3.39381L159.31 2.39381L158.31 2.39595L158.312 3.39594L159.312 3.39381ZM158.33 11.6576L158.344 18.1615L160.344 18.1573L160.33 11.6534L158.33 11.6576ZM159.341 17.1594L156.529 17.1654L156.533 19.1654L159.346 19.1594L159.341 17.1594ZM157.531 18.1633L157.495 1.10081L155.495 1.10508L155.531 18.1675L157.531 18.1633ZM156.497 2.10294L162.204 2.09076L162.2 0.0907646L156.493 0.102946L156.497 2.10294ZM162.195 2.09074C162.959 2.09606 163.639 2.20895 164.243 2.41762L164.896 0.527232C164.062 0.238978 163.163 0.097425 162.209 0.0907867L162.195 2.09074ZM164.246 2.41871C164.862 2.62923 165.371 2.92139 165.788 3.28673L167.106 1.78293C166.474 1.22863 165.731 0.812521 164.893 0.526146L164.246 2.41871ZM165.788 3.28673C166.2 3.64808 166.522 4.08634 166.755 4.61306L168.584 3.80295C168.236 3.01841 167.743 2.34121 167.106 1.78293L165.788 3.28673ZM166.755 4.61306C166.982 5.12478 167.106 5.72264 167.108 6.42405L169.108 6.41978C169.106 5.48057 168.938 4.6025 168.584 3.80295L166.755 4.61306ZM167.108 6.42405C167.109 7.08875 166.989 7.66121 166.766 8.15803L168.591 8.97671C168.944 8.19105 169.11 7.33321 169.108 6.41978L167.108 6.42405ZM166.768 8.15382C166.539 8.65727 166.221 9.08458 165.807 9.44421L167.119 10.9535C167.751 10.4047 168.242 9.74433 168.589 8.98092L166.768 8.15382ZM165.801 9.44979C165.386 9.81691 164.878 10.1112 164.263 10.3244L164.918 12.2142C165.755 11.9242 166.496 11.5049 167.126 10.948L165.801 9.44979ZM164.26 10.3255C163.66 10.5356 162.984 10.6477 162.222 10.6493L162.226 12.6493C163.183 12.6473 164.085 12.506 164.921 12.2131L164.26 10.3255ZM162.222 10.6493L159.328 10.6555L159.332 12.6555L162.226 12.6493L162.222 10.6493ZM159.327 10.3586L162.221 10.3525L162.217 8.35246L159.323 8.35864L159.327 10.3586ZM162.238 10.3523C162.808 10.3417 163.349 10.2513 163.849 10.0627L163.143 8.1915C162.894 8.28567 162.584 8.34553 162.201 8.35263L162.238 10.3523ZM163.86 10.0587C164.353 9.86604 164.795 9.59333 165.166 9.23172L163.77 7.79954C163.61 7.95468 163.404 8.08961 163.133 8.19549L163.86 10.0587ZM165.166 9.23172C165.538 8.86916 165.817 8.43897 166 7.9517L164.127 7.24889C164.046 7.46531 163.928 7.64534 163.77 7.79954L165.166 9.23172ZM165.993 7.9697C166.184 7.48901 166.273 6.97861 166.272 6.44928L164.272 6.45354C164.272 6.75233 164.223 7.00786 164.134 7.23089L165.993 7.9697ZM166.272 6.44928C166.271 5.89228 166.183 5.3587 165.991 4.86175L164.125 5.58103C164.216 5.81786 164.271 6.10429 164.272 6.45354L166.272 6.44928ZM166 4.88554C165.82 4.38118 165.545 3.9322 165.174 3.5517L163.743 4.94833C163.904 5.11357 164.029 5.31218 164.116 5.55725L166 4.88554ZM165.174 3.5517C164.8 3.16808 164.351 2.88145 163.844 2.68615L163.125 4.55241C163.384 4.65235 163.585 4.78622 163.743 4.94833L165.174 3.5517ZM163.851 2.68869C163.345 2.48972 162.797 2.39594 162.221 2.38773L162.192 4.38753C162.57 4.39291 162.874 4.45356 163.118 4.54987L163.851 2.68869ZM162.204 2.38763L159.31 2.39381L159.314 4.39381L162.209 4.38763L162.204 2.38763ZM158.312 3.39594L158.325 9.36077L160.325 9.35651L160.312 3.39168L158.312 3.39594ZM186.211 14.1763L187.17 13.8934L186.958 13.1747L186.209 13.1763L186.211 14.1763ZM180.856 14.1877L180.853 13.1877L180.106 13.1893L179.896 13.9063L180.856 14.1877ZM179.704 18.1159L179.706 19.1159L180.453 19.1143L180.663 18.3973L179.704 18.1159ZM176.774 18.1222L175.823 17.8147L175.399 19.1251L176.776 19.1222L176.774 18.1222ZM182.292 1.04788L182.29 0.0478835L181.564 0.0494333L181.341 0.740353L182.292 1.04788ZM184.788 1.04255L185.74 0.735698L185.516 0.040998L184.786 0.0425559L184.788 1.04255ZM190.286 18.0934L190.288 19.0934L191.658 19.0904L191.238 17.7865L190.286 18.0934ZM187.368 18.0996L186.409 18.3824L186.621 19.1012L187.37 19.0996L187.368 18.0996ZM181.565 11.7721L180.606 11.4911L180.23 12.775L181.567 12.7721L181.565 11.7721ZM185.514 11.7637L185.517 12.7637L186.848 12.7608L186.474 11.4832L185.514 11.7637ZM183.543 5.01788L184.503 4.73736L183.544 1.45619L182.583 4.73686L183.543 5.01788ZM186.209 13.1763L180.853 13.1877L180.858 15.1877L186.213 15.1763L186.209 13.1763ZM179.896 13.9063L178.744 17.8346L180.663 18.3973L181.815 14.4691L179.896 13.9063ZM179.702 17.1159L176.772 17.1222L176.776 19.1222L179.706 19.1159L179.702 17.1159ZM177.726 18.4297L183.244 1.35541L181.341 0.740353L175.823 17.8147L177.726 18.4297ZM182.294 2.04788L184.791 2.04255L184.786 0.0425559L182.29 0.0478835L182.294 2.04788ZM183.837 1.34941L189.334 18.4002L191.238 17.7865L185.74 0.735698L183.837 1.34941ZM190.284 17.0934L187.366 17.0996L187.37 19.0996L190.288 19.0934L190.284 17.0934ZM188.327 17.8168L187.17 13.8934L185.252 14.4591L186.409 18.3824L188.327 17.8168ZM181.567 12.7721L185.517 12.7637L185.512 10.7637L181.563 10.7721L181.567 12.7721ZM186.474 11.4832L184.503 4.73736L182.583 5.29839L184.555 12.0442L186.474 11.4832ZM182.583 4.73686L180.606 11.4911L182.525 12.0531L184.503 5.2989L182.583 4.73686ZM211.057 12.799L212.052 12.8908L212.153 11.7967L211.054 11.799L211.057 12.799ZM210.475 15.062L211.383 15.4818L211.385 15.4778L210.475 15.062ZM209.249 16.7873L208.563 16.0595L208.562 16.0599L209.249 16.7873ZM207.411 17.9162L207.757 18.8543L207.763 18.8522L207.411 17.9162ZM203.122 18.0308L202.808 18.9802L202.816 18.9827L202.823 18.985L203.122 18.0308ZM201.55 17.2138L202.155 16.4174L202.148 16.4124L202.142 16.4075L201.55 17.2138ZM200.376 16.0328L199.558 16.608L199.563 16.6158L199.569 16.6235L200.376 16.0328ZM199.541 14.4994L200.466 14.1193L200.464 14.1147L199.541 14.4994ZM199.021 12.7192L198.036 12.8896L198.038 12.9013L199.021 12.7192ZM199.496 4.71429L200.426 5.08374L200.43 5.07128L199.496 4.71429ZM200.395 3.06003L199.594 2.46174L199.592 2.46378L200.395 3.06003ZM201.681 1.77994L201.109 0.959968L201.101 0.965844L201.092 0.971892L201.681 1.77994ZM203.203 1.02669L202.897 0.0747527L202.893 0.0760175L203.203 1.02669ZM207.446 1.14654L207.094 2.08277L207.098 2.08403L207.446 1.14654ZM209.265 2.26766L209.959 1.54811L209.959 1.54794L209.265 2.26766ZM210.464 4.04635L209.541 4.43222L209.545 4.44099L210.464 4.04635ZM211.043 6.36544L211.045 7.36543L212.151 7.36307L212.038 6.2629L211.043 6.36544ZM208.23 6.37144L207.235 6.46548L207.32 7.37338L208.232 7.37144L208.23 6.37144ZM207.934 5.00097L206.988 5.32458L206.992 5.33542L206.996 5.34617L207.934 5.00097ZM207.346 3.94754L208.101 3.29177L208.096 3.28601L208.091 3.28033L207.346 3.94754ZM206.396 3.29332L206.013 4.21721L206.021 4.22063L206.03 4.22391L206.396 3.29332ZM204.052 3.21629L203.726 2.27078L203.718 2.27354L204.052 3.21629ZM203.279 3.65153L203.868 4.45989L203.894 4.44103L203.918 4.42056L203.279 3.65153ZM202.496 4.54383L201.628 4.04754L201.624 4.05363L202.496 4.54383ZM201.995 5.75193L201.036 5.46817L201.031 5.48519L201.026 5.50237L201.995 5.75193ZM201.763 7.00634L200.77 6.88656L200.769 6.89424L200.768 6.90193L201.763 7.00634ZM201.798 12.3149L200.806 12.441L200.807 12.4486L200.808 12.4562L201.798 12.3149ZM202.117 13.6853L203.069 13.38L203.066 13.3708L203.063 13.3617L202.117 13.6853ZM202.529 14.6219L201.666 15.1276L201.672 15.1365L201.677 15.1452L202.529 14.6219ZM203.14 15.3472L203.809 14.6036L203.801 14.5968L203.793 14.5901L203.14 15.3472ZM203.973 15.8493L203.624 16.7864L203.638 16.7916L203.652 16.7963L203.973 15.8493ZM207.312 15.1742L208.03 15.8695L208.031 15.8691L207.312 15.1742ZM208.232 12.805L208.23 11.805L207.317 11.807L207.236 12.7166L208.232 12.805ZM210.061 12.7072C209.994 13.4359 209.825 14.079 209.566 14.6462L211.385 15.4778C211.748 14.6843 211.967 13.8187 212.052 12.8908L210.061 12.7072ZM209.568 14.6422C209.307 15.2064 208.971 15.6749 208.563 16.0595L209.934 17.515C210.54 16.9443 211.022 16.2627 211.383 15.4818L209.568 14.6422ZM208.562 16.0599C208.151 16.4479 207.655 16.7563 207.059 16.9802L207.763 18.8522C208.589 18.5418 209.317 18.0976 209.935 17.5146L208.562 16.0599ZM207.065 16.978C206.488 17.1912 205.825 17.3063 205.066 17.3079L205.07 19.3079C206.03 19.3059 206.93 19.1598 207.757 18.8543L207.065 16.978ZM205.066 17.3079C204.452 17.3092 203.906 17.2286 203.421 17.0766L202.823 18.985C203.527 19.2055 204.278 19.3096 205.07 19.3079L205.066 17.3079ZM203.437 17.0814C202.948 16.9197 202.523 16.6971 202.155 16.4174L200.946 18.0103C201.501 18.4317 202.124 18.7538 202.808 18.9802L203.437 17.0814ZM202.142 16.4075C201.781 16.1427 201.461 15.8224 201.183 15.442L199.569 16.6235C199.964 17.1635 200.428 17.6307 200.959 18.0202L202.142 16.4075ZM201.194 15.4575C200.91 15.0532 200.666 14.6079 200.466 14.1193L198.616 14.8795C198.87 15.4993 199.184 16.0763 199.558 16.608L201.194 15.4575ZM200.464 14.1147C200.266 13.6396 200.111 13.1149 200.004 12.5372L198.038 12.9013C198.168 13.6043 198.36 14.2663 198.618 14.8841L200.464 14.1147ZM200.007 12.5488C199.906 11.9677 199.854 11.3564 199.853 10.7135L197.853 10.7178C197.854 11.4656 197.915 12.19 198.036 12.8896L200.007 12.5488ZM199.853 10.7135L199.848 8.38152L197.848 8.38579L197.853 10.7178L199.853 10.7135ZM199.848 8.38152C199.847 7.77252 199.895 7.19032 199.993 6.63383L198.023 6.28904C197.904 6.96738 197.846 7.66667 197.848 8.38579L199.848 8.38152ZM199.993 6.63383C200.09 6.07953 200.235 5.56353 200.426 5.0837L198.567 4.34489C198.323 4.95974 198.142 5.60851 198.023 6.28904L199.993 6.63383ZM200.43 5.07128C200.633 4.5414 200.89 4.07138 201.198 3.65628L199.592 2.46378C199.168 3.03462 198.826 3.66744 198.562 4.35731L200.43 5.07128ZM201.196 3.65832C201.513 3.23409 201.871 2.87909 202.271 2.58798L201.092 0.971892C200.524 1.38597 200.025 1.88437 199.594 2.46174L201.196 3.65832ZM202.254 2.59991C202.63 2.33696 203.049 2.12896 203.513 1.97736L202.893 0.0760175C202.249 0.286158 201.653 0.580317 201.109 0.959968L202.254 2.59991ZM203.51 1.97861C203.962 1.83303 204.471 1.75445 205.045 1.75323L205.04 -0.246769C204.286 -0.245158 203.569 -0.141428 202.897 0.0747608L203.51 1.97861ZM205.045 1.75323C205.845 1.75152 206.523 1.86846 207.094 2.08276L207.797 0.210314C206.961 -0.103627 206.037 -0.248895 205.04 -0.246769L205.045 1.75323ZM207.098 2.08403C207.692 2.30455 208.177 2.60809 208.57 2.98738L209.959 1.54794C209.35 0.960611 208.623 0.516739 207.794 0.209042L207.098 2.08403ZM208.57 2.98721C208.975 3.37774 209.3 3.85485 209.541 4.4322L211.386 3.6605C211.047 2.84847 210.572 2.13978 209.959 1.54811L208.57 2.98721ZM209.545 4.44099C209.798 5.03134 209.969 5.70416 210.048 6.46797L212.038 6.2629C211.941 5.32396 211.726 4.45072 211.382 3.65172L209.545 4.44099ZM211.041 5.36544L208.228 5.37144L208.232 7.37144L211.045 7.36543L211.041 5.36544ZM209.226 6.2774C209.171 5.69873 209.057 5.15553 208.873 4.65578L206.996 5.34617C207.111 5.65828 207.193 6.02873 207.235 6.46548L209.226 6.2774ZM208.881 4.67737C208.703 4.15904 208.448 3.69067 208.101 3.29177L206.591 4.6033C206.746 4.78146 206.882 5.01538 206.988 5.32458L208.881 4.67737ZM208.091 3.28033C207.724 2.87086 207.276 2.565 206.762 2.36273L206.03 4.22391C206.266 4.3169 206.451 4.4472 206.601 4.61474L208.091 3.28033ZM206.778 2.36942C206.251 2.15117 205.664 2.0605 205.045 2.06182L205.05 4.06182C205.477 4.0609 205.789 4.12457 206.013 4.21721L206.778 2.36942ZM205.045 2.06182C204.586 2.0628 204.143 2.12723 203.726 2.27082L204.377 4.16176C204.554 4.10095 204.774 4.0624 205.05 4.06182L205.045 2.06182ZM203.718 2.27354C203.323 2.41344 202.961 2.61587 202.64 2.8825L203.918 4.42056C204.05 4.31122 204.203 4.22349 204.385 4.15904L203.718 2.27354ZM202.69 2.84318C202.254 3.16131 201.901 3.56934 201.628 4.04756L203.364 5.0401C203.511 4.78305 203.681 4.59621 203.868 4.45989L202.69 2.84318ZM201.624 4.05363C201.381 4.48633 201.186 4.95955 201.036 5.46817L202.953 6.03569C203.067 5.65313 203.206 5.32094 203.368 5.03403L201.624 4.05363ZM201.026 5.50237C200.913 5.94029 200.829 6.40214 200.77 6.88656L202.756 7.12611C202.805 6.71967 202.874 6.34526 202.963 6.0015L201.026 5.50237ZM200.768 6.90193C200.719 7.37655 200.694 7.86143 200.695 8.35627L202.695 8.35201C202.695 7.92498 202.715 7.51133 202.757 7.11075L200.768 6.90193ZM200.695 8.35627L200.7 10.7117L202.7 10.7075L202.695 8.35201L200.695 8.35627ZM200.7 10.7117C200.702 11.3182 200.736 11.8951 200.806 12.441L202.79 12.1887C202.732 11.7349 202.702 11.2416 202.7 10.7075L200.7 10.7117ZM200.808 12.4562C200.887 13.0088 201.006 13.5276 201.171 14.0089L203.063 13.3617C202.945 13.0154 202.851 12.6206 202.788 12.1735L200.808 12.4562ZM201.165 13.9905C201.295 14.3965 201.461 14.777 201.666 15.1276L203.392 14.1162C203.268 13.905 203.159 13.6611 203.069 13.38L201.165 13.9905ZM201.677 15.1452C201.9 15.5083 202.169 15.8303 202.487 16.1043L203.793 14.5901C203.641 14.4588 203.503 14.2973 203.381 14.0986L201.677 15.1452ZM202.471 16.0907C202.81 16.3949 203.196 16.627 203.624 16.7864L204.322 14.9122C204.125 14.8385 203.956 14.7359 203.809 14.6036L202.471 16.0907ZM203.652 16.7963C204.095 16.9466 204.571 17.0121 205.066 17.011L205.061 15.011C204.744 15.0117 204.492 14.9694 204.294 14.9023L203.652 16.7963ZM205.066 17.011C205.645 17.0098 206.197 16.9245 206.705 16.7329L205.999 14.8618C205.757 14.953 205.45 15.0102 205.061 15.011L205.066 17.011ZM206.705 16.7329C207.211 16.5421 207.657 16.2549 208.03 15.8695L206.593 14.4789C206.436 14.6415 206.243 14.7698 205.999 14.8618L206.705 16.7329ZM208.031 15.8691C208.393 15.4938 208.666 15.0432 208.862 14.5399L206.999 13.8137C206.884 14.1079 206.744 14.3222 206.593 14.4793L208.031 15.8691ZM208.862 14.5399C209.058 14.0369 209.176 13.4843 209.228 12.8935L207.236 12.7166C207.197 13.1572 207.114 13.5191 206.999 13.8137L208.862 14.5399ZM208.234 13.805L211.059 13.799L211.054 11.799L208.23 11.805L208.234 13.805ZM231.177 10.3537L231.179 11.3537L232.179 11.3516L232.177 10.3516L231.177 10.3537ZM224.122 10.3688L224.12 9.36878L223.12 9.37091L223.122 10.3709L224.122 10.3688ZM224.134 15.7008L223.134 15.7029L223.136 16.7029L224.136 16.7008L224.134 15.7008ZM232.372 15.6832L233.372 15.6811L233.37 14.6811L232.37 14.6832L232.372 15.6832ZM232.377 18.0035L232.379 19.0035L233.379 19.0014L233.377 18.0014L232.377 18.0035ZM221.315 18.0271L220.315 18.0293L220.317 19.0293L221.317 19.0271L221.315 18.0271ZM221.278 0.96467L221.276 -0.0353273L220.276 -0.0331929L220.278 0.966805L221.278 0.96467ZM232.282 0.941184L233.282 0.93905L233.28 -0.0609482L232.28 -0.0588138L232.282 0.941184ZM232.287 3.27321L232.289 4.27321L233.289 4.27107L233.287 3.27108L232.287 3.27321ZM224.107 3.29067L224.105 2.29067L223.105 2.29281L223.107 3.2928L224.107 3.29067ZM224.118 8.09535L223.118 8.09748L223.12 9.09748L224.12 9.09534L224.118 8.09535ZM231.172 8.08029L232.172 8.07815L232.17 7.07816L231.17 7.08029L231.172 8.08029ZM231.175 9.35372L224.12 9.36878L224.125 11.3688L231.179 11.3537L231.175 9.35372ZM223.122 10.3709L223.134 15.7029L225.134 15.6987L225.122 10.3666L223.122 10.3709ZM224.136 16.7008L232.374 16.6832L232.37 14.6832L224.132 14.7008L224.136 16.7008ZM231.372 15.6853L231.377 18.0057L233.377 18.0014L233.372 15.6811L231.372 15.6853ZM232.375 17.0035L221.312 17.0271L221.317 19.0271L232.379 19.0035L232.375 17.0035ZM222.315 18.025L222.278 0.962536L220.278 0.966805L220.315 18.0293L222.315 18.025ZM221.28 1.96467L232.284 1.94118L232.28 -0.0588138L221.276 -0.0353273L221.28 1.96467ZM231.282 0.943318L231.287 3.27534L233.287 3.27108L233.282 0.93905L231.282 0.943318ZM232.285 2.27321L224.105 2.29067L224.109 4.29067L232.289 4.27321L232.285 2.27321ZM223.107 3.2928L223.118 8.09748L225.118 8.09321L225.107 3.28853L223.107 3.2928ZM224.12 9.09534L231.174 9.08029L231.17 7.08029L224.115 7.09535L224.12 9.09534ZM230.172 8.08242L230.177 10.3559L232.177 10.3516L232.172 8.07815L230.172 8.08242Z" fill="black" mask="url(#path-1-outside-1_28_25)"/>
</g>
<defs>
<filter id="filter0_d_28_25" x="0.856201" y="0.694977" width="235.521" height="26.0402" filterUnits="userSpaceOnUse" color-interpolation-filters="sRGB">
<feFlood flood-opacity="0" result="BackgroundImageFix"/>
<feColorMatrix in="SourceAlpha" type="matrix" values="0 0 0 0 0 0 0 0 0 0 0 0 0 0 0 0 0 0 127 0" result="hardAlpha"/>
<feOffset dy="4"/>
<feGaussianBlur stdDeviation="2"/>
<feComposite in2="hardAlpha" operator="out"/>
<feColorMatrix type="matrix" values="0 0 0 0 0 0 0 0 0 0 0 0 0 0 0 0 0 0 0.68 0"/>
<feBlend mode="normal" in2="BackgroundImageFix" result="effect1_dropShadow_28_25"/>
<feBlend mode="normal" in="SourceGraphic" in2="effect1_dropShadow_28_25" result="shape"/>
</filter>
</defs>
</svg>
