<svg width="271" height="60" viewBox="0 0 271 60" fill="none" xmlns="http://www.w3.org/2000/svg">
<path d="M86.7398 26.3203L86.8219 27.7148C87.0641 27.207 87.3961 26.8086 87.818 26.5195C88.2477 26.2305 88.7633 26.0859 89.3648 26.0859C89.6773 26.0859 89.9586 26.1211 90.2086 26.1914C90.4586 26.2617 90.6734 26.3711 90.8531 26.5195C90.9938 26.6289 91.1188 26.7617 91.2281 26.918C91.3375 27.0664 91.4313 27.2383 91.5094 27.4336C91.6188 27.2539 91.7438 27.0859 91.8844 26.9297C92.025 26.7734 92.1773 26.6406 92.3414 26.5312C92.5523 26.3906 92.7867 26.2812 93.0445 26.2031C93.3102 26.125 93.5992 26.0859 93.9117 26.0859C94.318 26.0859 94.6891 26.1562 95.025 26.2969C95.3688 26.4297 95.6656 26.6367 95.9156 26.918C96.1656 27.2148 96.357 27.6016 96.4898 28.0781C96.6305 28.5469 96.7008 29.1133 96.7008 29.7773V39H94.1227V29.7539C94.1227 29.5039 94.0953 29.293 94.0406 29.1211C93.9859 28.9414 93.9078 28.7969 93.8063 28.6875C93.7047 28.5859 93.5797 28.5117 93.4313 28.4648C93.2906 28.418 93.1344 28.3945 92.9625 28.3945C92.7828 28.3945 92.6266 28.418 92.4938 28.4648C92.3609 28.5117 92.2438 28.5781 92.1422 28.6641C92.0484 28.7422 91.9703 28.8359 91.9078 28.9453C91.8453 29.0469 91.7984 29.1641 91.7672 29.2969C91.7672 29.3281 91.7672 29.3672 91.7672 29.4141C91.7672 29.4531 91.7672 29.5117 91.7672 29.5898V39H89.2359V29.7422C89.2359 29.4922 89.2086 29.2812 89.1539 29.1094C89.107 28.9297 89.0328 28.7891 88.9313 28.6875C88.8297 28.5859 88.7086 28.5117 88.568 28.4648C88.4352 28.418 88.2828 28.3945 88.1109 28.3945C87.9234 28.3945 87.7555 28.4219 87.607 28.4766C87.4664 28.5234 87.3453 28.5977 87.2438 28.6992C87.1656 28.7695 87.0953 28.8516 87.0328 28.9453C86.9781 29.0391 86.9273 29.1445 86.8805 29.2617V39H84.3023V26.3203H86.7398ZM105.954 44.1211C105.68 44.1211 105.419 44.0977 105.169 44.0508C104.927 44.0117 104.692 43.9648 104.466 43.9102L104.852 41.7188C105.009 41.7266 105.184 41.7344 105.38 41.7422C105.583 41.7578 105.747 41.7656 105.872 41.7656C106.145 41.7656 106.391 41.6836 106.61 41.5195C106.829 41.3633 107.02 41.1836 107.184 40.9805C107.341 40.7773 107.466 40.5977 107.559 40.4414C107.661 40.2852 107.755 40.1211 107.841 39.9492L108.638 38.4375L103.235 26.3203H106.317L109.47 34.0664L109.903 35.4609L110.43 34.1016L113.489 26.3203H116.595L110.161 40.9219C110.013 41.25 109.825 41.5977 109.598 41.9648C109.38 42.3398 109.102 42.6836 108.766 42.9961C108.43 43.3164 108.032 43.582 107.571 43.793C107.11 44.0117 106.571 44.1211 105.954 44.1211ZM150.886 39C150.8 38.8438 150.73 38.6562 150.675 38.4375C150.628 38.2109 150.585 37.9766 150.546 37.7344C150.351 37.9375 150.128 38.1328 149.878 38.3203C149.636 38.5 149.363 38.6562 149.058 38.7891C148.753 38.9297 148.425 39.0391 148.073 39.1172C147.722 39.1953 147.343 39.2344 146.937 39.2344C146.28 39.2344 145.679 39.1406 145.132 38.9531C144.593 38.7578 144.132 38.4922 143.749 38.1562C143.359 37.8281 143.054 37.4336 142.835 36.9727C142.624 36.5039 142.519 36 142.519 35.4609C142.519 34.7656 142.655 34.1523 142.929 33.6211C143.21 33.082 143.616 32.6367 144.148 32.2852C144.64 31.957 145.245 31.707 145.964 31.5352C146.691 31.3633 147.511 31.2773 148.425 31.2773H150.464V30.4219C150.464 30.0938 150.405 29.7969 150.288 29.5312C150.179 29.2656 150.019 29.0352 149.808 28.8398C149.581 28.6445 149.304 28.4961 148.976 28.3945C148.655 28.2852 148.284 28.2305 147.863 28.2305C147.48 28.2305 147.144 28.2773 146.855 28.3711C146.573 28.4648 146.339 28.5938 146.152 28.7578C145.964 28.9062 145.823 29.0898 145.73 29.3086C145.644 29.5195 145.601 29.7461 145.601 29.9883H142.788C142.796 29.4805 142.917 28.9922 143.152 28.5234C143.386 28.0547 143.73 27.6406 144.183 27.2812C144.62 26.9141 145.159 26.625 145.8 26.4141C146.448 26.1953 147.187 26.0859 148.015 26.0859C148.757 26.0859 149.448 26.1797 150.089 26.3672C150.738 26.5469 151.296 26.8164 151.765 27.1758C152.234 27.5352 152.601 27.9922 152.866 28.5469C153.132 29.0938 153.265 29.7266 153.265 30.4453V36.082C153.265 36.6523 153.304 37.168 153.382 37.6289C153.468 38.082 153.589 38.4727 153.745 38.8008V39H150.886ZM147.476 36.9844C147.843 36.9844 148.183 36.9375 148.495 36.8438C148.816 36.75 149.105 36.6289 149.363 36.4805C149.62 36.332 149.843 36.1641 150.03 35.9766C150.218 35.7891 150.363 35.5938 150.464 35.3906V33.0469H148.659C148.05 33.0469 147.523 33.1055 147.077 33.2227C146.632 33.332 146.277 33.4922 146.011 33.7031C145.777 33.8828 145.601 34.0977 145.484 34.3477C145.374 34.5977 145.32 34.8789 145.32 35.1914C145.32 35.4492 145.366 35.6914 145.46 35.918C145.554 36.1367 145.691 36.3242 145.87 36.4805C146.05 36.6367 146.273 36.7617 146.538 36.8555C146.804 36.9414 147.116 36.9844 147.476 36.9844ZM167.522 36.9844C167.873 36.9844 168.209 36.9336 168.53 36.832C168.858 36.7227 169.147 36.5703 169.397 36.375C169.639 36.1797 169.83 35.9492 169.971 35.6836C170.12 35.418 170.194 35.125 170.194 34.8047H172.83C172.838 35.4219 172.698 36.0039 172.409 36.5508C172.127 37.0898 171.745 37.5547 171.26 37.9453C170.768 38.3516 170.202 38.6719 169.561 38.9062C168.928 39.1328 168.26 39.2461 167.557 39.2461C166.58 39.2461 165.725 39.0781 164.991 38.7422C164.264 38.3984 163.659 37.9375 163.174 37.3594C162.682 36.7812 162.311 36.1094 162.061 35.3438C161.811 34.5703 161.686 33.7461 161.686 32.8711V32.4609C161.686 31.5938 161.807 30.7734 162.049 30C162.299 29.2266 162.67 28.5508 163.162 27.9727C163.655 27.3945 164.264 26.9375 164.991 26.6016C165.725 26.2578 166.577 26.0859 167.545 26.0859C168.311 26.0859 169.018 26.2031 169.666 26.4375C170.323 26.6719 170.885 27 171.354 27.4219C171.823 27.8438 172.186 28.3477 172.444 28.9336C172.709 29.5195 172.838 30.1641 172.83 30.8672H170.194C170.194 30.5234 170.127 30.1992 169.995 29.8945C169.87 29.5898 169.69 29.3242 169.455 29.0977C169.213 28.8711 168.924 28.6914 168.588 28.5586C168.26 28.4258 167.905 28.3594 167.522 28.3594C166.936 28.3594 166.448 28.4805 166.057 28.7227C165.674 28.957 165.37 29.2656 165.143 29.6484C164.901 30.0312 164.729 30.4688 164.627 30.9609C164.534 31.4531 164.487 31.9531 164.487 32.4609V32.8711C164.487 33.3867 164.534 33.8945 164.627 34.3945C164.729 34.8867 164.897 35.3203 165.131 35.6953C165.358 36.0859 165.666 36.3984 166.057 36.6328C166.448 36.8672 166.936 36.9844 167.522 36.9844ZM186.736 36.9844C187.088 36.9844 187.423 36.9336 187.744 36.832C188.072 36.7227 188.361 36.5703 188.611 36.375C188.853 36.1797 189.045 35.9492 189.185 35.6836C189.334 35.418 189.408 35.125 189.408 34.8047H192.045C192.052 35.4219 191.912 36.0039 191.623 36.5508C191.341 37.0898 190.959 37.5547 190.474 37.9453C189.982 38.3516 189.416 38.6719 188.775 38.9062C188.142 39.1328 187.474 39.2461 186.771 39.2461C185.795 39.2461 184.939 39.0781 184.205 38.7422C183.478 38.3984 182.873 37.9375 182.388 37.3594C181.896 36.7812 181.525 36.1094 181.275 35.3438C181.025 34.5703 180.9 33.7461 180.9 32.8711V32.4609C180.9 31.5938 181.021 30.7734 181.263 30C181.513 29.2266 181.884 28.5508 182.377 27.9727C182.869 27.3945 183.478 26.9375 184.205 26.6016C184.939 26.2578 185.791 26.0859 186.759 26.0859C187.525 26.0859 188.232 26.2031 188.88 26.4375C189.537 26.6719 190.099 27 190.568 27.4219C191.037 27.8438 191.4 28.3477 191.658 28.9336C191.923 29.5195 192.052 30.1641 192.045 30.8672H189.408C189.408 30.5234 189.341 30.1992 189.209 29.8945C189.084 29.5898 188.904 29.3242 188.67 29.0977C188.427 28.8711 188.138 28.6914 187.802 28.5586C187.474 28.4258 187.119 28.3594 186.736 28.3594C186.15 28.3594 185.662 28.4805 185.271 28.7227C184.888 28.957 184.584 29.2656 184.357 29.6484C184.115 30.0312 183.943 30.4688 183.841 30.9609C183.748 31.4531 183.701 31.9531 183.701 32.4609V32.8711C183.701 33.3867 183.748 33.8945 183.841 34.3945C183.943 34.8867 184.111 35.3203 184.345 35.6953C184.572 36.0859 184.88 36.3984 185.271 36.6328C185.662 36.8672 186.15 36.9844 186.736 36.9844ZM199.915 32.543C199.915 31.6211 200.048 30.7695 200.313 29.9883C200.579 29.1992 200.966 28.5156 201.473 27.9375C201.973 27.3594 202.587 26.9062 203.313 26.5781C204.04 26.25 204.868 26.0859 205.798 26.0859C206.727 26.0859 207.555 26.25 208.282 26.5781C209.016 26.9062 209.638 27.3594 210.145 27.9375C210.645 28.5156 211.028 29.1992 211.294 29.9883C211.559 30.7695 211.692 31.6211 211.692 32.543V32.7891C211.692 33.7188 211.559 34.5742 211.294 35.3555C211.028 36.1367 210.645 36.8164 210.145 37.3945C209.645 37.9727 209.028 38.4258 208.294 38.7539C207.567 39.082 206.743 39.2461 205.821 39.2461C204.891 39.2461 204.059 39.082 203.325 38.7539C202.591 38.4258 201.973 37.9727 201.473 37.3945C200.966 36.8164 200.579 36.1367 200.313 35.3555C200.048 34.5742 199.915 33.7188 199.915 32.7891V32.543ZM202.716 32.7891C202.716 33.3594 202.774 33.8984 202.891 34.4062C203.016 34.9141 203.208 35.3594 203.466 35.7422C203.716 36.125 204.036 36.4297 204.427 36.6562C204.817 36.875 205.282 36.9844 205.821 36.9844C206.345 36.9844 206.802 36.875 207.192 36.6562C207.583 36.4297 207.903 36.125 208.153 35.7422C208.403 35.3594 208.587 34.9141 208.704 34.4062C208.829 33.8984 208.891 33.3594 208.891 32.7891V32.543C208.891 31.9883 208.829 31.457 208.704 30.9492C208.579 30.4414 208.395 29.9961 208.153 29.6133C207.895 29.2305 207.571 28.9258 207.18 28.6992C206.798 28.4727 206.337 28.3594 205.798 28.3594C205.266 28.3594 204.805 28.4727 204.415 28.6992C204.032 28.9258 203.716 29.2305 203.466 29.6133C203.208 29.9961 203.016 30.4414 202.891 30.9492C202.774 31.457 202.716 31.9883 202.716 32.543V32.7891ZM227.953 39L227.789 37.2305C227.359 37.8633 226.836 38.3594 226.219 38.7188C225.602 39.0703 224.91 39.2461 224.145 39.2461C223.488 39.2461 222.887 39.1445 222.34 38.9414C221.801 38.7305 221.336 38.4062 220.945 37.9688C220.562 37.5312 220.266 36.9727 220.055 36.293C219.844 35.6055 219.738 34.7852 219.738 33.832V26.3203H222.539V33.8555C222.539 34.4414 222.582 34.9336 222.668 35.332C222.754 35.7227 222.891 36.0352 223.078 36.2695C223.266 36.5117 223.504 36.6836 223.793 36.7852C224.082 36.8867 224.422 36.9375 224.812 36.9375C225.219 36.9375 225.582 36.8945 225.902 36.8086C226.223 36.7148 226.504 36.5898 226.746 36.4336C226.949 36.293 227.129 36.1289 227.285 35.9414C227.441 35.7461 227.574 35.5312 227.684 35.2969V26.3203H230.496V39H227.953ZM238.859 39V26.3203H241.39L241.566 28.125C241.737 27.8828 241.925 27.6602 242.128 27.457C242.339 27.2461 242.562 27.0586 242.796 26.8945C243.171 26.6367 243.581 26.4375 244.027 26.2969C244.472 26.1562 244.941 26.0859 245.433 26.0859C246.081 26.0859 246.675 26.1797 247.214 26.3672C247.753 26.5547 248.214 26.8516 248.597 27.2578C248.98 27.6641 249.277 28.1836 249.487 28.8164C249.698 29.4414 249.804 30.1992 249.804 31.0898V39H247.003V31.1367C247.003 30.6133 246.945 30.1758 246.827 29.8242C246.71 29.4727 246.538 29.1914 246.312 28.9805C246.085 28.7695 245.812 28.6211 245.491 28.5352C245.171 28.4414 244.804 28.3945 244.39 28.3945C244.046 28.3945 243.726 28.4414 243.429 28.5352C243.132 28.6211 242.862 28.7461 242.62 28.9102C242.433 29.0352 242.257 29.1875 242.093 29.3672C241.929 29.5469 241.784 29.7422 241.659 29.9531V39H238.859ZM263.698 23.2266V26.3203H268.467V28.418H263.698V34.4766C263.698 34.9453 263.752 35.3398 263.862 35.6602C263.979 35.9727 264.139 36.2188 264.342 36.3984C264.545 36.5859 264.788 36.7188 265.069 36.7969C265.35 36.875 265.659 36.9141 265.995 36.9141C266.237 36.9141 266.487 36.9023 266.745 36.8789C267.002 36.8555 267.252 36.8242 267.495 36.7852C267.729 36.7539 267.948 36.7188 268.151 36.6797C268.362 36.6328 268.538 36.5938 268.678 36.5625L268.983 38.4961C268.78 38.6211 268.534 38.7305 268.245 38.8242C267.963 38.9102 267.659 38.9844 267.33 39.0469C267.002 39.1094 266.659 39.1562 266.299 39.1875C265.948 39.2266 265.596 39.2461 265.245 39.2461C264.604 39.2461 264.014 39.1602 263.475 38.9883C262.944 38.8086 262.487 38.5312 262.104 38.1562C261.721 37.7891 261.42 37.3164 261.202 36.7383C260.991 36.1602 260.885 35.4648 260.885 34.6523V28.418H257.815V26.3203H260.885V23.2266H263.698Z" fill="white"/>
<rect x="1" y="1" width="58" height="58" stroke="white" stroke-width="2"/>
</svg>
