<svg width="452" height="192" viewBox="0 0 452 192" fill="none" xmlns="http://www.w3.org/2000/svg">
<path d="M41.736 119V114.904H43.144C44.8507 114.904 46.4293 114.648 47.88 114.136C49.3307 113.539 50.5253 112.685 51.464 111.576C52.4027 110.467 52.872 108.973 52.872 107.096V36.824C52.872 35.544 52.4027 34.6053 51.464 34.008C50.5253 33.3253 49.288 32.856 47.752 32.6C46.3013 32.344 44.7653 32.216 43.144 32.216H41.736V28.12H67.976L114.952 107.48L112.776 107.864V36.312C112.776 35.2027 112.349 34.3493 111.496 33.752C110.643 33.1547 109.491 32.7707 108.04 32.6C106.589 32.344 104.925 32.216 103.048 32.216H99.976V28.12H129.8V32.216H128.392C126.685 32.216 125.064 32.5147 123.528 33.112C122.077 33.624 120.883 34.4347 119.944 35.544C119.005 36.6533 118.536 38.1467 118.536 40.024V119H108.68L56.584 30.808L58.632 30.296V110.808C58.632 111.917 59.0587 112.771 59.912 113.368C60.8507 113.965 62.0453 114.392 63.496 114.648C65.032 114.819 66.696 114.904 68.488 114.904H71.56V119H41.736ZM176.898 77.016L188.162 75.096L207.362 110.936C208.045 112.131 208.77 113.027 209.538 113.624C210.391 114.221 211.415 114.605 212.61 114.776C213.805 114.861 215.213 114.904 216.834 114.904H217.346V119H198.018L176.898 77.016ZM161.026 113.624C161.026 113.88 161.325 114.093 161.922 114.264C162.605 114.349 163.458 114.477 164.482 114.648C165.506 114.733 166.615 114.819 167.81 114.904C169.09 114.904 170.327 114.904 171.522 114.904H172.93V119H137.986V114.904H138.882C141.613 114.904 144.002 114.605 146.05 114.008C148.098 113.411 149.122 112.173 149.122 110.296V36.824C149.122 34.9467 148.098 33.7093 146.05 33.112C144.002 32.5147 141.613 32.216 138.882 32.216H137.986V28.12H174.338C181.25 28.12 187.138 29.1867 192.002 31.32C196.951 33.4533 200.749 36.44 203.394 40.28C206.039 44.0347 207.362 48.3867 207.362 53.336C207.362 57.8587 206.253 61.8267 204.034 65.24C201.815 68.6533 198.658 71.4693 194.562 73.688C190.551 75.9067 185.773 77.3147 180.226 77.912C179.543 77.9973 178.818 78.0827 178.05 78.168C177.282 78.168 176.514 78.2107 175.746 78.296C174.978 78.296 174.21 78.296 173.442 78.296H158.466V73.688H173.57C178.605 73.688 182.658 72.92 185.73 71.384C188.887 69.7627 191.191 67.416 192.642 64.344C194.093 61.272 194.818 57.6027 194.818 53.336C194.818 49.24 194.05 45.656 192.514 42.584C190.978 39.512 188.674 37.1653 185.602 35.544C182.615 33.8373 178.775 32.984 174.082 32.984H161.026V113.624ZM291.067 92.376V119H223.611V114.904H224.507C227.238 114.904 229.627 114.605 231.675 114.008C233.723 113.411 234.747 112.173 234.747 110.296V36.824C234.747 34.9467 233.723 33.7093 231.675 33.112C229.627 32.5147 227.238 32.216 224.507 32.216H223.611V28.12H288.251V51.544H283.771L281.467 39.896C281.211 38.1893 280.486 36.824 279.291 35.8C278.182 34.776 276.475 34.0507 274.171 33.624C271.952 33.1973 269.008 32.984 265.339 32.984H246.651V114.136H267.899C270.63 114.136 272.976 114.008 274.939 113.752C276.902 113.496 278.523 113.112 279.803 112.6C281.083 112.088 282.064 111.363 282.747 110.424C283.43 109.4 283.899 108.205 284.155 106.84L286.331 92.376H291.067ZM245.243 70.36C249.936 70.2747 254.075 70.1893 257.659 70.104C261.328 69.9333 264.699 69.72 267.771 69.464C270.928 69.1227 274.043 68.6107 277.115 67.928V77.4C274.043 76.632 270.928 76.0773 267.771 75.736C264.699 75.3093 261.328 75.0533 257.659 74.968C254.075 74.7973 249.936 74.6693 245.243 74.584V70.36ZM303.361 119V114.904H304.769C306.476 114.904 308.054 114.648 309.505 114.136C310.956 113.624 312.15 112.813 313.089 111.704C314.028 110.509 314.497 108.973 314.497 107.096V36.824C314.497 35.544 314.028 34.6053 313.089 34.008C312.15 33.3253 310.956 32.856 309.505 32.6C308.054 32.344 306.476 32.216 304.769 32.216H303.361V28.12H330.625L357.121 110.936H354.817L382.721 28.12H409.985V32.216H409.089C407.297 32.216 405.59 32.344 403.969 32.6C402.433 32.856 401.153 33.3253 400.129 34.008C399.19 34.6053 398.721 35.544 398.721 36.824V110.296C398.721 111.491 399.19 112.429 400.129 113.112C401.068 113.795 402.348 114.264 403.969 114.52C405.59 114.776 407.297 114.904 409.089 114.904H409.985V119H375.809V114.904H376.961C378.497 114.904 379.99 114.861 381.441 114.776C382.977 114.691 384.257 114.563 385.281 114.392C386.305 114.136 386.817 113.88 386.817 113.624V28.76L388.097 29.016L357.505 119.256H349.441L318.849 29.144L320.257 29.016V110.936C320.257 111.96 320.684 112.771 321.537 113.368C322.39 113.965 323.542 114.392 324.993 114.648C326.529 114.819 328.15 114.904 329.857 114.904H331.777V119H303.361Z" fill="white"/>
<path d="M1.408 184V182.56H1.76C2.29333 182.56 2.752 182.517 3.136 182.432C3.54133 182.325 3.86133 182.165 4.096 181.952C4.33067 181.739 4.448 181.472 4.448 181.152V163.872C4.448 163.552 4.33067 163.317 4.096 163.168C3.86133 162.997 3.54133 162.88 3.136 162.816C2.73067 162.752 2.272 162.72 1.76 162.72H1.408V161.28H8.48L19.616 181.024L19.232 181.12V163.264C19.232 163.157 19.0827 163.072 18.784 163.008C18.5067 162.923 18.144 162.859 17.696 162.816C17.2693 162.752 16.8213 162.72 16.352 162.72H15.872V161.28H24.288V162.72H23.904C23.392 162.72 22.9333 162.773 22.528 162.88C22.1227 162.965 21.8027 163.115 21.568 163.328C21.3333 163.52 21.216 163.787 21.216 164.128V184H18.208L6.048 162.496L6.464 162.368V182.016C6.464 182.101 6.60267 182.187 6.88 182.272C7.17867 182.357 7.552 182.432 8 182.496C8.448 182.539 8.896 182.56 9.344 182.56H9.824V184H1.408ZM38.1095 184.32C36.5308 184.32 35.0695 184.043 33.7255 183.488C32.3815 182.912 31.1975 182.112 30.1735 181.088C29.1495 180.043 28.3495 178.805 27.7735 177.376C27.2188 175.947 26.9415 174.368 26.9415 172.64C26.9415 170.912 27.2188 169.333 27.7735 167.904C28.3495 166.475 29.1495 165.248 30.1735 164.224C31.1975 163.179 32.3815 162.379 33.7255 161.824C35.0908 161.248 36.5522 160.96 38.1095 160.96C39.6882 160.96 41.1495 161.248 42.4935 161.824C43.8588 162.379 45.0535 163.179 46.0775 164.224C47.1015 165.248 47.8908 166.475 48.4455 167.904C49.0215 169.333 49.3095 170.912 49.3095 172.64C49.3095 174.368 49.0215 175.947 48.4455 177.376C47.8908 178.805 47.1015 180.043 46.0775 181.088C45.0535 182.112 43.8588 182.912 42.4935 183.488C41.1495 184.043 39.6882 184.32 38.1095 184.32ZM38.1095 182.464C39.2828 182.464 40.3495 182.24 41.3095 181.792C42.2908 181.344 43.1335 180.693 43.8375 179.84C44.5628 178.965 45.1175 177.931 45.5015 176.736C45.9068 175.52 46.1095 174.155 46.1095 172.64C46.1095 171.125 45.9068 169.771 45.5015 168.576C45.1175 167.36 44.5628 166.325 43.8375 165.472C43.1335 164.597 42.2908 163.936 41.3095 163.488C40.3495 163.04 39.2828 162.816 38.1095 162.816C36.9575 162.816 35.8908 163.04 34.9095 163.488C33.9495 163.936 33.1068 164.597 32.3815 165.472C31.6775 166.325 31.1228 167.36 30.7175 168.576C30.3335 169.771 30.1415 171.125 30.1415 172.64C30.1415 174.155 30.3335 175.52 30.7175 176.736C31.1228 177.931 31.6775 178.965 32.3815 179.84C33.1068 180.693 33.9495 181.344 34.9095 181.792C35.8908 182.24 36.9575 182.464 38.1095 182.464ZM52.2518 184V182.56H52.6038C53.1371 182.56 53.5958 182.517 53.9798 182.432C54.3851 182.325 54.7051 182.165 54.9398 181.952C55.1744 181.739 55.2918 181.472 55.2918 181.152V163.872C55.2918 163.552 55.1744 163.317 54.9398 163.168C54.7051 162.997 54.3851 162.88 53.9798 162.816C53.5744 162.752 53.1158 162.72 52.6038 162.72H52.2518V161.28H59.3238L70.4598 181.024L70.0758 181.12V163.264C70.0758 163.157 69.9264 163.072 69.6278 163.008C69.3504 162.923 68.9878 162.859 68.5398 162.816C68.1131 162.752 67.6651 162.72 67.1958 162.72H66.7158V161.28H75.1318V162.72H74.7478C74.2358 162.72 73.7771 162.773 73.3718 162.88C72.9664 162.965 72.6464 163.115 72.4118 163.328C72.1771 163.52 72.0598 163.787 72.0598 164.128V184H69.0518L56.8918 162.496L57.3078 162.368V182.016C57.3078 182.101 57.4464 182.187 57.7238 182.272C58.0224 182.357 58.3958 182.432 58.8438 182.496C59.2918 182.539 59.7398 182.56 60.1878 182.56H60.6678V184H52.2518ZM87.6733 173.696L90.5213 173.216L95.2253 181.632C95.3746 181.909 95.5453 182.112 95.7373 182.24C95.9506 182.368 96.2066 182.453 96.5053 182.496C96.8039 182.539 97.1239 182.56 97.4653 182.56H97.7213V184H93.0493L87.6733 173.696ZM83.6733 182.24C83.6733 182.304 83.7479 182.357 83.8973 182.4C84.0466 182.421 84.2386 182.453 84.4733 182.496C84.7293 182.517 85.0066 182.539 85.3053 182.56C85.6039 182.56 85.8919 182.56 86.1693 182.56H86.5853V184H77.6893V182.56H78.0413C78.8093 182.56 79.4493 182.485 79.9613 182.336C80.4733 182.187 80.7293 181.877 80.7293 181.408V163.872C80.7293 163.403 80.4733 163.093 79.9613 162.944C79.4493 162.795 78.8093 162.72 78.0413 162.72H77.6893V161.28H86.9053C88.6333 161.28 90.1053 161.557 91.3213 162.112C92.5586 162.645 93.5079 163.403 94.1693 164.384C94.8306 165.365 95.1613 166.496 95.1613 167.776C95.1613 168.843 94.9266 169.792 94.4573 170.624C94.0093 171.456 93.3693 172.171 92.5373 172.768C91.7053 173.344 90.7026 173.76 89.5293 174.016C89.2519 174.08 88.9533 174.133 88.6333 174.176C88.3346 174.197 88.0253 174.229 87.7053 174.272C87.3853 174.293 87.0546 174.304 86.7133 174.304H83.0333V172.576H86.7133C87.9293 172.576 88.9213 172.384 89.6893 172C90.4573 171.616 91.0226 171.072 91.3853 170.368C91.7693 169.643 91.9613 168.779 91.9613 167.776C91.9613 166.816 91.7693 165.984 91.3853 165.28C91.0013 164.576 90.4253 164.043 89.6573 163.68C88.9106 163.296 87.9719 163.104 86.8413 163.104H83.6733V182.24ZM104.701 174.432H114.301L114.333 176.16H104.477L104.701 174.432ZM109.021 162.528L109.565 163.392L103.197 181.952C103.197 182.059 103.325 182.165 103.581 182.272C103.837 182.357 104.168 182.432 104.573 182.496C104.979 182.539 105.395 182.56 105.821 182.56H106.333V184H99.0373V182.56H99.1973C99.7733 182.56 100.232 182.475 100.573 182.304C100.936 182.112 101.224 181.717 101.437 181.12L108.317 161.28H111.485L118.621 181.632C118.771 182.037 119.016 182.293 119.357 182.4C119.72 182.507 120.157 182.56 120.669 182.56H120.829V184H112.573V182.56H113.117C113.523 182.56 113.928 182.549 114.333 182.528C114.76 182.507 115.112 182.475 115.389 182.432C115.688 182.368 115.837 182.304 115.837 182.24L109.021 162.528ZM128.582 182.176C128.582 182.261 128.656 182.325 128.806 182.368C128.955 182.389 129.147 182.421 129.382 182.464C129.638 182.507 129.915 182.539 130.214 182.56C130.512 182.56 130.8 182.56 131.078 182.56H131.91V184H122.598V182.56H122.918C123.707 182.56 124.358 182.485 124.87 182.336C125.382 182.187 125.638 181.877 125.638 181.408V163.872C125.638 163.403 125.382 163.093 124.87 162.944C124.358 162.795 123.707 162.72 122.918 162.72H122.598V161.28H132.038C134.704 161.28 136.774 161.888 138.246 163.104C139.718 164.299 140.454 165.909 140.454 167.936C140.454 169.301 140.102 170.507 139.398 171.552C138.715 172.576 137.734 173.387 136.454 173.984C135.174 174.581 133.648 174.88 131.878 174.88H127.622V173.12H131.814C133.051 173.12 134.064 172.907 134.854 172.48C135.664 172.053 136.262 171.456 136.646 170.688C137.051 169.92 137.254 169.013 137.254 167.968C137.254 166.923 137.062 166.048 136.678 165.344C136.294 164.619 135.707 164.064 134.918 163.68C134.15 163.296 133.168 163.104 131.974 163.104H128.582V182.176ZM145.792 181.408V163.872C145.792 163.403 145.536 163.093 145.024 162.944C144.512 162.795 143.872 162.72 143.104 162.72H142.752V161.28H151.808V162.72H151.488C150.698 162.72 150.048 162.795 149.536 162.944C149.024 163.093 148.768 163.403 148.768 163.872V181.408C148.768 181.877 149.024 182.187 149.536 182.336C150.048 182.485 150.698 182.56 151.488 182.56H151.808V184H142.752V182.56H143.104C143.872 182.56 144.512 182.485 145.024 182.336C145.536 182.187 145.792 181.877 145.792 181.408ZM154.658 162.72V161.28H164.418C166.21 161.28 167.831 161.547 169.282 162.08C170.754 162.592 172.023 163.339 173.09 164.32C174.178 165.301 175.01 166.496 175.586 167.904C176.162 169.291 176.45 170.848 176.45 172.576C176.45 174.304 176.162 175.872 175.586 177.28C175.01 178.667 174.178 179.872 173.09 180.896C172.023 181.899 170.754 182.667 169.282 183.2C167.831 183.733 166.21 184 164.418 184H154.658V182.56H155.042C155.81 182.56 156.45 182.485 156.962 182.336C157.474 182.187 157.73 181.877 157.73 181.408V163.872C157.73 163.445 157.474 163.147 156.962 162.976C156.45 162.805 155.81 162.72 155.042 162.72H154.658ZM164.418 163.104H160.674V182.176H164.418C165.783 182.176 166.999 181.963 168.066 181.536C169.154 181.109 170.082 180.48 170.85 179.648C171.639 178.816 172.237 177.813 172.642 176.64C173.047 175.445 173.25 174.091 173.25 172.576C173.25 171.061 173.047 169.717 172.642 168.544C172.237 167.371 171.639 166.379 170.85 165.568C170.082 164.757 169.154 164.149 168.066 163.744C166.999 163.317 165.783 163.104 164.418 163.104ZM204.466 177.088V184H187.346V182.56H187.698C188.466 182.56 189.106 182.485 189.618 182.336C190.13 182.187 190.386 181.877 190.386 181.408V163.872C190.386 163.403 190.13 163.093 189.618 162.944C189.106 162.795 188.466 162.72 187.698 162.72H187.346V161.28H203.538V167.392H201.81L201.49 164.512C201.447 164.128 201.287 163.829 201.01 163.616C200.732 163.403 200.306 163.264 199.73 163.2C199.154 163.136 198.407 163.104 197.49 163.104H193.33V182.176H198.386C199.068 182.176 199.655 182.165 200.146 182.144C200.658 182.101 201.074 182.027 201.394 181.92C201.714 181.813 201.948 181.664 202.097 181.472C202.268 181.28 202.364 181.045 202.385 180.768L202.706 177.088H204.466ZM192.434 171.552C193.372 171.509 194.279 171.477 195.154 171.456C196.05 171.435 196.935 171.413 197.81 171.392C198.684 171.349 199.548 171.307 200.402 171.264V173.504C199.548 173.461 198.684 173.419 197.81 173.376C196.935 173.333 196.05 173.301 195.154 173.28C194.279 173.237 193.372 173.205 192.434 173.184V171.552ZM215.439 173.824L215.887 175.232L208.975 163.584C208.805 163.307 208.602 163.115 208.367 163.008C208.133 162.88 207.866 162.805 207.567 162.784C207.269 162.741 206.949 162.72 206.607 162.72H206.447V161.28H214.799V162.72H214.255C213.871 162.72 213.477 162.731 213.071 162.752C212.666 162.773 212.325 162.816 212.047 162.88C211.77 162.923 211.631 162.987 211.631 163.072L217.839 173.664L217.007 173.6L222.767 163.328C222.767 163.2 222.639 163.093 222.383 163.008C222.127 162.923 221.797 162.859 221.391 162.816C221.007 162.752 220.602 162.72 220.175 162.72H219.663V161.28H227.279V162.72H227.119C226.757 162.72 226.415 162.752 226.095 162.816C225.775 162.88 225.477 163.008 225.199 163.2C224.922 163.392 224.666 163.701 224.431 164.128L218.063 175.264L218.415 173.824V181.408C218.415 181.877 218.671 182.187 219.183 182.336C219.695 182.485 220.346 182.56 221.135 182.56H221.647V184H212.239V182.56H212.751C213.519 182.56 214.159 182.485 214.671 182.336C215.183 182.187 215.439 181.877 215.439 181.408V173.824ZM246.216 177.088V184H229.096V182.56H229.448C230.216 182.56 230.856 182.485 231.368 182.336C231.88 182.187 232.136 181.877 232.136 181.408V163.872C232.136 163.403 231.88 163.093 231.368 162.944C230.856 162.795 230.216 162.72 229.448 162.72H229.096V161.28H245.288V167.392H243.56L243.24 164.512C243.197 164.128 243.037 163.829 242.76 163.616C242.482 163.403 242.056 163.264 241.48 163.2C240.904 163.136 240.157 163.104 239.24 163.104H235.08V182.176H240.136C240.818 182.176 241.405 182.165 241.896 182.144C242.408 182.101 242.824 182.027 243.144 181.92C243.464 181.813 243.698 181.664 243.847 181.472C244.018 181.28 244.114 181.045 244.135 180.768L244.456 177.088H246.216ZM234.184 171.552C235.122 171.509 236.029 171.477 236.904 171.456C237.8 171.435 238.685 171.413 239.56 171.392C240.434 171.349 241.298 171.307 242.152 171.264V173.504C241.298 173.461 240.434 173.419 239.56 173.376C238.685 173.333 237.8 173.301 236.904 173.28C236.029 173.237 235.122 173.205 234.184 173.184V171.552ZM257.502 184V182.56H257.854C258.387 182.56 258.846 182.528 259.23 182.464C259.635 182.379 259.955 182.251 260.19 182.08C260.424 181.888 260.542 181.632 260.542 181.312V163.872C260.542 163.552 260.424 163.317 260.19 163.168C259.955 162.997 259.635 162.88 259.23 162.816C258.846 162.752 258.387 162.72 257.854 162.72H257.502V161.28H265.086L271.55 181.248L270.942 181.152L277.566 161.28H285.022V162.72H284.67C284.179 162.72 283.72 162.752 283.294 162.816C282.888 162.88 282.568 162.997 282.334 163.168C282.099 163.317 281.982 163.552 281.982 163.872V181.408C281.982 181.707 282.099 181.941 282.334 182.112C282.568 182.283 282.888 182.4 283.294 182.464C283.72 182.528 284.179 182.56 284.67 182.56H285.022V184H276.254V182.56H276.542C276.947 182.56 277.331 182.549 277.694 182.528C278.078 182.507 278.387 182.475 278.622 182.432C278.878 182.368 279.006 182.304 279.006 182.24V161.92L279.326 161.984L271.71 184.064H269.822L262.238 161.952L262.558 162.016V182.144C262.558 182.229 262.696 182.304 262.974 182.368C263.251 182.432 263.592 182.485 263.998 182.528C264.424 182.549 264.808 182.56 265.15 182.56H265.31V184H257.502ZM299.11 184.32C297.531 184.32 296.07 184.043 294.726 183.488C293.382 182.912 292.198 182.112 291.174 181.088C290.15 180.043 289.35 178.805 288.774 177.376C288.219 175.947 287.942 174.368 287.942 172.64C287.942 170.912 288.219 169.333 288.774 167.904C289.35 166.475 290.15 165.248 291.174 164.224C292.198 163.179 293.382 162.379 294.726 161.824C296.091 161.248 297.552 160.96 299.11 160.96C300.688 160.96 302.15 161.248 303.494 161.824C304.859 162.379 306.054 163.179 307.078 164.224C308.102 165.248 308.891 166.475 309.446 167.904C310.022 169.333 310.31 170.912 310.31 172.64C310.31 174.368 310.022 175.947 309.446 177.376C308.891 178.805 308.102 180.043 307.078 181.088C306.054 182.112 304.859 182.912 303.494 183.488C302.15 184.043 300.688 184.32 299.11 184.32ZM299.11 182.464C300.283 182.464 301.35 182.24 302.31 181.792C303.291 181.344 304.134 180.693 304.838 179.84C305.563 178.965 306.118 177.931 306.502 176.736C306.907 175.52 307.11 174.155 307.11 172.64C307.11 171.125 306.907 169.771 306.502 168.576C306.118 167.36 305.563 166.325 304.838 165.472C304.134 164.597 303.291 163.936 302.31 163.488C301.35 163.04 300.283 162.816 299.11 162.816C297.958 162.816 296.891 163.04 295.91 163.488C294.95 163.936 294.107 164.597 293.382 165.472C292.678 166.325 292.123 167.36 291.718 168.576C291.334 169.771 291.141 171.125 291.141 172.64C291.141 174.155 291.334 175.52 291.718 176.736C292.123 177.931 292.678 178.965 293.382 179.84C294.107 180.693 294.95 181.344 295.91 181.792C296.891 182.24 297.958 182.464 299.11 182.464ZM323.252 182.752L322.708 181.888L329.076 163.328C329.076 163.2 328.948 163.093 328.692 163.008C328.436 162.923 328.105 162.859 327.7 162.816C327.294 162.752 326.889 162.72 326.484 162.72H325.94V161.28H333.236V162.72H333.076C332.5 162.72 332.03 162.816 331.668 163.008C331.326 163.179 331.049 163.563 330.836 164.16L323.956 184H320.788L313.684 163.648C313.534 163.221 313.278 162.965 312.916 162.88C312.574 162.773 312.137 162.72 311.604 162.72H311.444V161.28H319.7V162.72H319.156C318.772 162.72 318.366 162.731 317.94 162.752C317.513 162.773 317.15 162.805 316.852 162.848C316.574 162.891 316.436 162.955 316.436 163.04L323.252 182.752ZM352.028 177.088V184H334.908V182.56H335.26C336.028 182.56 336.668 182.485 337.18 182.336C337.692 182.187 337.948 181.877 337.948 181.408V163.872C337.948 163.403 337.692 163.093 337.18 162.944C336.668 162.795 336.028 162.72 335.26 162.72H334.908V161.28H351.1V167.392H349.372L349.052 164.512C349.009 164.128 348.849 163.829 348.572 163.616C348.295 163.403 347.868 163.264 347.292 163.2C346.716 163.136 345.969 163.104 345.052 163.104H340.892V182.176H345.948C346.631 182.176 347.217 182.165 347.708 182.144C348.22 182.101 348.636 182.027 348.956 181.92C349.276 181.813 349.511 181.664 349.66 181.472C349.831 181.28 349.927 181.045 349.948 180.768L350.268 177.088H352.028ZM339.996 171.552C340.935 171.509 341.841 171.477 342.716 171.456C343.612 171.435 344.497 171.413 345.372 171.392C346.247 171.349 347.111 171.307 347.964 171.264V173.504C347.111 173.461 346.247 173.419 345.372 173.376C344.497 173.333 343.612 173.301 342.716 173.28C341.841 173.237 340.935 173.205 339.996 173.184V171.552ZM355.346 184V182.56H355.698C356.231 182.56 356.69 182.528 357.074 182.464C357.479 182.379 357.799 182.251 358.034 182.08C358.268 181.888 358.386 181.632 358.386 181.312V163.872C358.386 163.552 358.268 163.317 358.034 163.168C357.799 162.997 357.479 162.88 357.074 162.816C356.69 162.752 356.231 162.72 355.698 162.72H355.346V161.28H362.93L369.394 181.248L368.786 181.152L375.41 161.28H382.866V162.72H382.514C382.023 162.72 381.564 162.752 381.138 162.816C380.732 162.88 380.412 162.997 380.178 163.168C379.943 163.317 379.826 163.552 379.826 163.872V181.408C379.826 181.707 379.943 181.941 380.178 182.112C380.412 182.283 380.732 182.4 381.138 182.464C381.564 182.528 382.023 182.56 382.514 182.56H382.866V184H374.098V182.56H374.386C374.791 182.56 375.175 182.549 375.538 182.528C375.922 182.507 376.231 182.475 376.466 182.432C376.722 182.368 376.85 182.304 376.85 182.24V161.92L377.17 161.984L369.554 184.064H367.666L360.082 161.952L360.402 162.016V182.144C360.402 182.229 360.54 182.304 360.818 182.368C361.095 182.432 361.436 182.485 361.842 182.528C362.268 182.549 362.652 182.56 362.994 182.56H363.154V184H355.346ZM402.841 177.088V184H385.721V182.56H386.073C386.841 182.56 387.481 182.485 387.993 182.336C388.505 182.187 388.761 181.877 388.761 181.408V163.872C388.761 163.403 388.505 163.093 387.993 162.944C387.481 162.795 386.841 162.72 386.073 162.72H385.721V161.28H401.913V167.392H400.185L399.865 164.512C399.822 164.128 399.662 163.829 399.385 163.616C399.107 163.403 398.681 163.264 398.105 163.2C397.529 163.136 396.782 163.104 395.865 163.104H391.705V182.176H396.761C397.443 182.176 398.03 182.165 398.521 182.144C399.033 182.101 399.449 182.027 399.769 181.92C400.089 181.813 400.323 181.664 400.472 181.472C400.643 181.28 400.739 181.045 400.76 180.768L401.081 177.088H402.841ZM390.809 171.552C391.747 171.509 392.654 171.477 393.529 171.456C394.425 171.435 395.31 171.413 396.185 171.392C397.059 171.349 397.923 171.307 398.777 171.264V173.504C397.923 173.461 397.059 173.419 396.185 173.376C395.31 173.333 394.425 173.301 393.529 173.28C392.654 173.237 391.747 173.205 390.809 173.184V171.552ZM406.158 184V182.56H406.51C407.043 182.56 407.502 182.517 407.886 182.432C408.291 182.325 408.611 182.165 408.846 181.952C409.081 181.739 409.198 181.472 409.198 181.152V163.872C409.198 163.552 409.081 163.317 408.846 163.168C408.611 162.997 408.291 162.88 407.886 162.816C407.481 162.752 407.022 162.72 406.51 162.72H406.158V161.28H413.23L424.366 181.024L423.982 181.12V163.264C423.982 163.157 423.833 163.072 423.534 163.008C423.257 162.923 422.894 162.859 422.446 162.816C422.019 162.752 421.571 162.72 421.102 162.72H420.622V161.28H429.038V162.72H428.654C428.142 162.72 427.683 162.773 427.278 162.88C426.873 162.965 426.553 163.115 426.318 163.328C426.083 163.52 425.966 163.787 425.966 164.128V184H422.958L410.798 162.496L411.214 162.368V182.016C411.214 182.101 411.353 182.187 411.63 182.272C411.929 182.357 412.302 182.432 412.75 182.496C413.198 182.539 413.646 182.56 414.094 182.56H414.574V184H406.158ZM439.34 181.408V163.008H437.484C436.566 163.008 435.82 163.04 435.244 163.104C434.668 163.168 434.241 163.307 433.964 163.52C433.686 163.733 433.516 164.032 433.452 164.416L433.132 167.552H431.436V161.28H450.22V167.552H448.524L448.204 164.416C448.161 164.032 447.99 163.733 447.692 163.52C447.414 163.307 446.988 163.168 446.412 163.104C445.836 163.04 445.089 163.008 444.172 163.008H442.316V181.408C442.316 181.877 442.572 182.187 443.084 182.336C443.596 182.485 444.236 182.56 445.004 182.56H445.516V184H436.108V182.56H436.62C437.409 182.56 438.06 182.485 438.572 182.336C439.084 182.187 439.34 181.877 439.34 181.408Z" fill="white"/>
</svg>
