<svg width="376" height="192" viewBox="0 0 376 192" fill="none" xmlns="http://www.w3.org/2000/svg">
<path d="M90.648 77.016L101.912 75.096L121.112 110.936C121.795 112.131 122.52 113.027 123.288 113.624C124.141 114.221 125.165 114.605 126.36 114.776C127.555 114.861 128.963 114.904 130.584 114.904H131.096V119H111.768L90.648 77.016ZM74.776 113.624C74.776 113.88 75.0747 114.093 75.672 114.264C76.3547 114.349 77.208 114.477 78.232 114.648C79.256 114.733 80.3653 114.819 81.56 114.904C82.84 114.904 84.0773 114.904 85.272 114.904H86.68V119H51.736V114.904H52.632C55.3627 114.904 57.752 114.605 59.8 114.008C61.848 113.411 62.872 112.173 62.872 110.296V36.824C62.872 34.9467 61.848 33.7093 59.8 33.112C57.752 32.5147 55.3627 32.216 52.632 32.216H51.736V28.12H88.088C95 28.12 100.888 29.1867 105.752 31.32C110.701 33.4533 114.499 36.44 117.144 40.28C119.789 44.0347 121.112 48.3867 121.112 53.336C121.112 57.8587 120.003 61.8267 117.784 65.24C115.565 68.6533 112.408 71.4693 108.312 73.688C104.301 75.9067 99.5227 77.3147 93.976 77.912C93.2933 77.9973 92.568 78.0827 91.8 78.168C91.032 78.168 90.264 78.2107 89.496 78.296C88.728 78.296 87.96 78.296 87.192 78.296H72.216V73.688H87.32C92.3547 73.688 96.408 72.92 99.48 71.384C102.637 69.7627 104.941 67.416 106.392 64.344C107.843 61.272 108.568 57.6027 108.568 53.336C108.568 49.24 107.8 45.656 106.264 42.584C104.728 39.512 102.424 37.1653 99.352 35.544C96.3653 33.8373 92.5253 32.984 87.832 32.984H74.776V113.624ZM204.817 92.376V119H137.361V114.904H138.257C140.988 114.904 143.377 114.605 145.425 114.008C147.473 113.411 148.497 112.173 148.497 110.296V36.824C148.497 34.9467 147.473 33.7093 145.425 33.112C143.377 32.5147 140.988 32.216 138.257 32.216H137.361V28.12H202.001V51.544H197.521L195.217 39.896C194.961 38.1893 194.236 36.824 193.041 35.8C191.932 34.776 190.225 34.0507 187.921 33.624C185.702 33.1973 182.758 32.984 179.089 32.984H160.401V114.136H181.649C184.38 114.136 186.726 114.008 188.689 113.752C190.652 113.496 192.273 113.112 193.553 112.6C194.833 112.088 195.814 111.363 196.497 110.424C197.18 109.4 197.649 108.205 197.905 106.84L200.081 92.376H204.817ZM158.993 70.36C163.686 70.2747 167.825 70.1893 171.409 70.104C175.078 69.9333 178.449 69.72 181.521 69.464C184.678 69.1227 187.793 68.6107 190.865 67.928V77.4C187.793 76.632 184.678 76.0773 181.521 75.736C178.449 75.3093 175.078 75.0533 171.409 74.968C167.825 74.7973 163.686 74.6693 158.993 74.584V70.36ZM217.111 119V114.904H218.519C220.226 114.904 221.804 114.648 223.255 114.136C224.706 113.624 225.9 112.813 226.839 111.704C227.778 110.509 228.247 108.973 228.247 107.096V36.824C228.247 35.544 227.778 34.6053 226.839 34.008C225.9 33.3253 224.706 32.856 223.255 32.6C221.804 32.344 220.226 32.216 218.519 32.216H217.111V28.12H244.375L270.871 110.936H268.567L296.471 28.12H323.735V32.216H322.839C321.047 32.216 319.34 32.344 317.719 32.6C316.183 32.856 314.903 33.3253 313.879 34.008C312.94 34.6053 312.471 35.544 312.471 36.824V110.296C312.471 111.491 312.94 112.429 313.879 113.112C314.818 113.795 316.098 114.264 317.719 114.52C319.34 114.776 321.047 114.904 322.839 114.904H323.735V119H289.559V114.904H290.711C292.247 114.904 293.74 114.861 295.191 114.776C296.727 114.691 298.007 114.563 299.031 114.392C300.055 114.136 300.567 113.88 300.567 113.624V28.76L301.847 29.016L271.255 119.256H263.191L232.599 29.144L234.007 29.016V110.936C234.007 111.96 234.434 112.771 235.287 113.368C236.14 113.965 237.292 114.392 238.743 114.648C240.279 114.819 241.9 114.904 243.607 114.904H245.527V119H217.111Z" fill="white"/>
<path d="M11.392 173.696L14.24 173.216L18.944 181.632C19.0933 181.909 19.264 182.112 19.456 182.24C19.6693 182.368 19.9253 182.453 20.224 182.496C20.5227 182.539 20.8427 182.56 21.184 182.56H21.44V184H16.768L11.392 173.696ZM7.392 182.24C7.392 182.304 7.46667 182.357 7.616 182.4C7.76533 182.421 7.95733 182.453 8.192 182.496C8.448 182.517 8.72533 182.539 9.024 182.56C9.32267 182.56 9.61067 182.56 9.888 182.56H10.304V184H1.408V182.56H1.76C2.528 182.56 3.168 182.485 3.68 182.336C4.192 182.187 4.448 181.877 4.448 181.408V163.872C4.448 163.403 4.192 163.093 3.68 162.944C3.168 162.795 2.528 162.72 1.76 162.72H1.408V161.28H10.624C12.352 161.28 13.824 161.557 15.04 162.112C16.2773 162.645 17.2267 163.403 17.888 164.384C18.5493 165.365 18.88 166.496 18.88 167.776C18.88 168.843 18.6453 169.792 18.176 170.624C17.728 171.456 17.088 172.171 16.256 172.768C15.424 173.344 14.4213 173.76 13.248 174.016C12.9707 174.08 12.672 174.133 12.352 174.176C12.0533 174.197 11.744 174.229 11.424 174.272C11.104 174.293 10.7733 174.304 10.432 174.304H6.752V172.576H10.432C11.648 172.576 12.64 172.384 13.408 172C14.176 171.616 14.7413 171.072 15.104 170.368C15.488 169.643 15.68 168.779 15.68 167.776C15.68 166.816 15.488 165.984 15.104 165.28C14.72 164.576 14.144 164.043 13.376 163.68C12.6293 163.296 11.6907 163.104 10.56 163.104H7.392V182.24ZM28.42 174.432H38.02L38.052 176.16H28.196L28.42 174.432ZM32.74 162.528L33.284 163.392L26.916 181.952C26.916 182.059 27.044 182.165 27.3 182.272C27.556 182.357 27.8867 182.432 28.292 182.496C28.6973 182.539 29.1133 182.56 29.54 182.56H30.052V184H22.756V182.56H22.916C23.492 182.56 23.9507 182.475 24.292 182.304C24.6547 182.112 24.9427 181.717 25.156 181.12L32.036 161.28H35.204L42.34 181.632C42.4893 182.037 42.7347 182.293 43.076 182.4C43.4387 182.507 43.876 182.56 44.388 182.56H44.548V184H36.292V182.56H36.836C37.2413 182.56 37.6467 182.549 38.052 182.528C38.4787 182.507 38.8307 182.475 39.108 182.432C39.4067 182.368 39.556 182.304 39.556 182.24L32.74 162.528ZM52.3005 182.176C52.3005 182.261 52.3752 182.325 52.5245 182.368C52.6738 182.389 52.8658 182.421 53.1005 182.464C53.3565 182.507 53.6338 182.539 53.9325 182.56C54.2312 182.56 54.5192 182.56 54.7965 182.56H55.6285V184H46.3165V182.56H46.6365C47.4258 182.56 48.0765 182.485 48.5885 182.336C49.1005 182.187 49.3565 181.877 49.3565 181.408V163.872C49.3565 163.403 49.1005 163.093 48.5885 162.944C48.0765 162.795 47.4258 162.72 46.6365 162.72H46.3165V161.28H55.7565C58.4232 161.28 60.4925 161.888 61.9645 163.104C63.4365 164.299 64.1725 165.909 64.1725 167.936C64.1725 169.301 63.8205 170.507 63.1165 171.552C62.4338 172.576 61.4525 173.387 60.1725 173.984C58.8925 174.581 57.3672 174.88 55.5965 174.88H51.3405V173.12H55.5325C56.7698 173.12 57.7832 172.907 58.5725 172.48C59.3832 172.053 59.9805 171.456 60.3645 170.688C60.7698 169.92 60.9725 169.013 60.9725 167.968C60.9725 166.923 60.7805 166.048 60.3965 165.344C60.0125 164.619 59.4258 164.064 58.6365 163.68C57.8685 163.296 56.8872 163.104 55.6925 163.104H52.3005V182.176ZM69.5105 181.408V163.872C69.5105 163.403 69.2545 163.093 68.7425 162.944C68.2305 162.795 67.5905 162.72 66.8225 162.72H66.4705V161.28H75.5265V162.72H75.2065C74.4172 162.72 73.7665 162.795 73.2545 162.944C72.7425 163.093 72.4865 163.403 72.4865 163.872V181.408C72.4865 181.877 72.7425 182.187 73.2545 182.336C73.7665 182.485 74.4172 182.56 75.2065 182.56H75.5265V184H66.4705V182.56H66.8225C67.5905 182.56 68.2305 182.485 68.7425 182.336C69.2545 182.187 69.5105 181.877 69.5105 181.408ZM78.3768 162.72V161.28H88.1368C89.9288 161.28 91.5501 161.547 93.0008 162.08C94.4728 162.592 95.7421 163.339 96.8088 164.32C97.8968 165.301 98.7288 166.496 99.3048 167.904C99.8808 169.291 100.169 170.848 100.169 172.576C100.169 174.304 99.8808 175.872 99.3048 177.28C98.7288 178.667 97.8968 179.872 96.8088 180.896C95.7421 181.899 94.4728 182.667 93.0008 183.2C91.5501 183.733 89.9288 184 88.1368 184H78.3768V182.56H78.7608C79.5288 182.56 80.1688 182.485 80.6808 182.336C81.1928 182.187 81.4488 181.877 81.4488 181.408V163.872C81.4488 163.445 81.1928 163.147 80.6808 162.976C80.1688 162.805 79.5288 162.72 78.7608 162.72H78.3768ZM88.1368 163.104H84.3928V182.176H88.1368C89.5021 182.176 90.7181 181.963 91.7848 181.536C92.8728 181.109 93.8008 180.48 94.5688 179.648C95.3581 178.816 95.9554 177.813 96.3608 176.64C96.7661 175.445 96.9688 174.091 96.9688 172.576C96.9688 171.061 96.7661 169.717 96.3608 168.544C95.9554 167.371 95.3581 166.379 94.5688 165.568C93.8008 164.757 92.8728 164.149 91.7848 163.744C90.7181 163.317 89.5021 163.104 88.1368 163.104ZM128.184 177.088V184H111.064V182.56H111.416C112.184 182.56 112.824 182.485 113.336 182.336C113.848 182.187 114.104 181.877 114.104 181.408V163.872C114.104 163.403 113.848 163.093 113.336 162.944C112.824 162.795 112.184 162.72 111.416 162.72H111.064V161.28H127.256V167.392H125.528L125.208 164.512C125.166 164.128 125.006 163.829 124.728 163.616C124.451 163.403 124.024 163.264 123.448 163.2C122.872 163.136 122.126 163.104 121.208 163.104H117.048V182.176H122.104C122.787 182.176 123.374 182.165 123.864 182.144C124.376 182.101 124.792 182.027 125.112 181.92C125.432 181.813 125.667 181.664 125.816 181.472C125.987 181.28 126.083 181.045 126.104 180.768L126.424 177.088H128.184ZM116.152 171.552C117.091 171.509 117.998 171.477 118.872 171.456C119.768 171.435 120.654 171.413 121.528 171.392C122.403 171.349 123.267 171.307 124.12 171.264V173.504C123.267 173.461 122.403 173.419 121.528 173.376C120.654 173.333 119.768 173.301 118.872 173.28C117.998 173.237 117.091 173.205 116.152 173.184V171.552ZM139.158 173.824L139.606 175.232L132.694 163.584C132.523 163.307 132.321 163.115 132.086 163.008C131.851 162.88 131.585 162.805 131.286 162.784C130.987 162.741 130.667 162.72 130.326 162.72H130.166V161.28H138.518V162.72H137.974C137.59 162.72 137.195 162.731 136.79 162.752C136.385 162.773 136.043 162.816 135.766 162.88C135.489 162.923 135.35 162.987 135.35 163.072L141.558 173.664L140.726 173.6L146.486 163.328C146.486 163.2 146.358 163.093 146.102 163.008C145.846 162.923 145.515 162.859 145.11 162.816C144.726 162.752 144.321 162.72 143.894 162.72H143.382V161.28H150.998V162.72H150.838C150.475 162.72 150.134 162.752 149.814 162.816C149.494 162.88 149.195 163.008 148.918 163.2C148.641 163.392 148.385 163.701 148.15 164.128L141.782 175.264L142.134 173.824V181.408C142.134 181.877 142.39 182.187 142.902 182.336C143.414 182.485 144.065 182.56 144.854 182.56H145.366V184H135.958V182.56H136.47C137.238 182.56 137.878 182.485 138.39 182.336C138.902 182.187 139.158 181.877 139.158 181.408V173.824ZM169.934 177.088V184H152.814V182.56H153.166C153.934 182.56 154.574 182.485 155.086 182.336C155.598 182.187 155.854 181.877 155.854 181.408V163.872C155.854 163.403 155.598 163.093 155.086 162.944C154.574 162.795 153.934 162.72 153.166 162.72H152.814V161.28H169.006V167.392H167.278L166.958 164.512C166.916 164.128 166.756 163.829 166.478 163.616C166.201 163.403 165.774 163.264 165.198 163.2C164.622 163.136 163.876 163.104 162.958 163.104H158.798V182.176H163.854C164.537 182.176 165.124 182.165 165.614 182.144C166.126 182.101 166.542 182.027 166.862 181.92C167.182 181.813 167.417 181.664 167.566 181.472C167.737 181.28 167.833 181.045 167.854 180.768L168.174 177.088H169.934ZM157.902 171.552C158.841 171.509 159.748 171.477 160.622 171.456C161.518 171.435 162.404 171.413 163.278 171.392C164.153 171.349 165.017 171.307 165.87 171.264V173.504C165.017 173.461 164.153 173.419 163.278 173.376C162.404 173.333 161.518 173.301 160.622 173.28C159.748 173.237 158.841 173.205 157.902 173.184V171.552ZM181.221 184V182.56H181.573C182.106 182.56 182.565 182.528 182.949 182.464C183.354 182.379 183.674 182.251 183.909 182.08C184.143 181.888 184.261 181.632 184.261 181.312V163.872C184.261 163.552 184.143 163.317 183.909 163.168C183.674 162.997 183.354 162.88 182.949 162.816C182.565 162.752 182.106 162.72 181.573 162.72H181.221V161.28H188.805L195.269 181.248L194.661 181.152L201.285 161.28H208.741V162.72H208.389C207.898 162.72 207.439 162.752 207.013 162.816C206.607 162.88 206.287 162.997 206.053 163.168C205.818 163.317 205.701 163.552 205.701 163.872V181.408C205.701 181.707 205.818 181.941 206.053 182.112C206.287 182.283 206.607 182.4 207.013 182.464C207.439 182.528 207.898 182.56 208.389 182.56H208.741V184H199.973V182.56H200.261C200.666 182.56 201.05 182.549 201.413 182.528C201.797 182.507 202.106 182.475 202.341 182.432C202.597 182.368 202.725 182.304 202.725 182.24V161.92L203.045 161.984L195.429 184.064H193.541L185.957 161.952L186.277 162.016V182.144C186.277 182.229 186.415 182.304 186.693 182.368C186.97 182.432 187.311 182.485 187.717 182.528C188.143 182.549 188.527 182.56 188.869 182.56H189.029V184H181.221ZM222.828 184.32C221.25 184.32 219.788 184.043 218.444 183.488C217.1 182.912 215.916 182.112 214.892 181.088C213.868 180.043 213.068 178.805 212.492 177.376C211.938 175.947 211.66 174.368 211.66 172.64C211.66 170.912 211.938 169.333 212.492 167.904C213.068 166.475 213.868 165.248 214.892 164.224C215.916 163.179 217.1 162.379 218.444 161.824C219.81 161.248 221.271 160.96 222.828 160.96C224.407 160.96 225.868 161.248 227.212 161.824C228.578 162.379 229.772 163.179 230.796 164.224C231.82 165.248 232.61 166.475 233.164 167.904C233.74 169.333 234.028 170.912 234.028 172.64C234.028 174.368 233.74 175.947 233.164 177.376C232.61 178.805 231.82 180.043 230.796 181.088C229.772 182.112 228.578 182.912 227.212 183.488C225.868 184.043 224.407 184.32 222.828 184.32ZM222.828 182.464C224.002 182.464 225.068 182.24 226.028 181.792C227.01 181.344 227.852 180.693 228.556 179.84C229.282 178.965 229.836 177.931 230.22 176.736C230.626 175.52 230.828 174.155 230.828 172.64C230.828 171.125 230.626 169.771 230.22 168.576C229.836 167.36 229.282 166.325 228.556 165.472C227.852 164.597 227.01 163.936 226.028 163.488C225.068 163.04 224.002 162.816 222.828 162.816C221.676 162.816 220.61 163.04 219.628 163.488C218.668 163.936 217.826 164.597 217.1 165.472C216.396 166.325 215.842 167.36 215.436 168.576C215.052 169.771 214.86 171.125 214.86 172.64C214.86 174.155 215.052 175.52 215.436 176.736C215.842 177.931 216.396 178.965 217.1 179.84C217.826 180.693 218.668 181.344 219.628 181.792C220.61 182.24 221.676 182.464 222.828 182.464ZM246.97 182.752L246.426 181.888L252.794 163.328C252.794 163.2 252.666 163.093 252.41 163.008C252.154 162.923 251.824 162.859 251.418 162.816C251.013 162.752 250.608 162.72 250.202 162.72H249.658V161.28H256.954V162.72H256.794C256.218 162.72 255.749 162.816 255.386 163.008C255.045 163.179 254.768 163.563 254.554 164.16L247.674 184H244.506L237.402 163.648C237.253 163.221 236.997 162.965 236.634 162.88C236.293 162.773 235.856 162.72 235.322 162.72H235.162V161.28H243.418V162.72H242.874C242.49 162.72 242.085 162.731 241.658 162.752C241.232 162.773 240.869 162.805 240.57 162.848C240.293 162.891 240.154 162.955 240.154 163.04L246.97 182.752ZM275.747 177.088V184H258.627V182.56H258.979C259.747 182.56 260.387 182.485 260.899 182.336C261.411 182.187 261.667 181.877 261.667 181.408V163.872C261.667 163.403 261.411 163.093 260.899 162.944C260.387 162.795 259.747 162.72 258.979 162.72H258.627V161.28H274.819V167.392H273.091L272.771 164.512C272.728 164.128 272.568 163.829 272.291 163.616C272.013 163.403 271.587 163.264 271.011 163.2C270.435 163.136 269.688 163.104 268.771 163.104H264.611V182.176H269.667C270.349 182.176 270.936 182.165 271.427 182.144C271.939 182.101 272.355 182.027 272.675 181.92C272.995 181.813 273.229 181.664 273.379 181.472C273.549 181.28 273.645 181.045 273.667 180.768L273.987 177.088H275.747ZM263.715 171.552C264.653 171.509 265.56 171.477 266.435 171.456C267.331 171.435 268.216 171.413 269.091 171.392C269.965 171.349 270.829 171.307 271.683 171.264V173.504C270.829 173.461 269.965 173.419 269.091 173.376C268.216 173.333 267.331 173.301 266.435 173.28C265.56 173.237 264.653 173.205 263.715 173.184V171.552ZM279.064 184V182.56H279.416C279.95 182.56 280.408 182.528 280.792 182.464C281.198 182.379 281.518 182.251 281.752 182.08C281.987 181.888 282.104 181.632 282.104 181.312V163.872C282.104 163.552 281.987 163.317 281.752 163.168C281.518 162.997 281.198 162.88 280.792 162.816C280.408 162.752 279.95 162.72 279.416 162.72H279.064V161.28H286.648L293.112 181.248L292.504 181.152L299.128 161.28H306.584V162.72H306.232C305.742 162.72 305.283 162.752 304.856 162.816C304.451 162.88 304.131 162.997 303.896 163.168C303.662 163.317 303.544 163.552 303.544 163.872V181.408C303.544 181.707 303.662 181.941 303.896 182.112C304.131 182.283 304.451 182.4 304.856 182.464C305.283 182.528 305.742 182.56 306.232 182.56H306.584V184H297.816V182.56H298.104C298.51 182.56 298.894 182.549 299.256 182.528C299.64 182.507 299.95 182.475 300.184 182.432C300.44 182.368 300.568 182.304 300.568 182.24V161.92L300.888 161.984L293.272 184.064H291.384L283.8 161.952L284.12 162.016V182.144C284.12 182.229 284.259 182.304 284.536 182.368C284.814 182.432 285.155 182.485 285.56 182.528C285.987 182.549 286.371 182.56 286.712 182.56H286.872V184H279.064ZM326.559 177.088V184H309.439V182.56H309.791C310.559 182.56 311.199 182.485 311.711 182.336C312.223 182.187 312.479 181.877 312.479 181.408V163.872C312.479 163.403 312.223 163.093 311.711 162.944C311.199 162.795 310.559 162.72 309.791 162.72H309.439V161.28H325.631V167.392H323.903L323.583 164.512C323.541 164.128 323.381 163.829 323.103 163.616C322.826 163.403 322.399 163.264 321.823 163.2C321.247 163.136 320.501 163.104 319.583 163.104H315.423V182.176H320.479C321.162 182.176 321.749 182.165 322.239 182.144C322.751 182.101 323.167 182.027 323.487 181.92C323.807 181.813 324.042 181.664 324.191 181.472C324.362 181.28 324.458 181.045 324.479 180.768L324.799 177.088H326.559ZM314.527 171.552C315.466 171.509 316.373 171.477 317.247 171.456C318.143 171.435 319.029 171.413 319.903 171.392C320.778 171.349 321.642 171.307 322.495 171.264V173.504C321.642 173.461 320.778 173.419 319.903 173.376C319.029 173.333 318.143 173.301 317.247 173.28C316.373 173.237 315.466 173.205 314.527 173.184V171.552ZM329.877 184V182.56H330.229C330.762 182.56 331.221 182.517 331.605 182.432C332.01 182.325 332.33 182.165 332.565 181.952C332.799 181.739 332.917 181.472 332.917 181.152V163.872C332.917 163.552 332.799 163.317 332.565 163.168C332.33 162.997 332.01 162.88 331.605 162.816C331.199 162.752 330.741 162.72 330.229 162.72H329.877V161.28H336.949L348.085 181.024L347.701 181.12V163.264C347.701 163.157 347.551 163.072 347.253 163.008C346.975 162.923 346.613 162.859 346.165 162.816C345.738 162.752 345.29 162.72 344.821 162.72H344.341V161.28H352.757V162.72H352.373C351.861 162.72 351.402 162.773 350.997 162.88C350.591 162.965 350.271 163.115 350.037 163.328C349.802 163.52 349.685 163.787 349.685 164.128V184H346.677L334.517 162.496L334.933 162.368V182.016C334.933 182.101 335.071 182.187 335.349 182.272C335.647 182.357 336.021 182.432 336.469 182.496C336.917 182.539 337.365 182.56 337.813 182.56H338.293V184H329.877ZM363.058 181.408V163.008H361.202C360.285 163.008 359.538 163.04 358.962 163.104C358.386 163.168 357.96 163.307 357.682 163.52C357.405 163.733 357.234 164.032 357.17 164.416L356.85 167.552H355.154V161.28H373.938V167.552H372.242L371.922 164.416C371.88 164.032 371.709 163.733 371.41 163.52C371.133 163.307 370.706 163.168 370.13 163.104C369.554 163.04 368.808 163.008 367.89 163.008H366.034V181.408C366.034 181.877 366.29 182.187 366.802 182.336C367.314 182.485 367.954 182.56 368.722 182.56H369.234V184H359.826V182.56H360.338C361.128 182.56 361.778 182.485 362.29 182.336C362.802 182.187 363.058 181.877 363.058 181.408Z" fill="white"/>
</svg>
