<svg width="508" height="219" viewBox="0 0 508 219" fill="none" xmlns="http://www.w3.org/2000/svg">
<g filter="url(#filter0_d_57_6)">
<path d="M33.375 38.1328H46.9492V42H28.668V13.5625H33.375V38.1328ZM81 29.2461H69.2422V38.1328H82.9727V42H64.5352V13.5625H82.875V17.4492H69.2422V25.457H81V29.2461ZM107.082 42L98.332 13.5625H103.469L108.879 33.25L109.348 34.9492L109.836 33.2305L115.285 13.5625H120.402L111.652 42H107.082ZM153.047 29.2461H141.289V38.1328H155.02V42H136.582V13.5625H154.922V17.4492H141.289V25.457H153.047V29.2461ZM181.902 30.9648H177.098V42H172.41V13.5625H181.434C182.905 13.5755 184.259 13.7643 185.496 14.1289C186.733 14.4935 187.801 15.0273 188.699 15.7305C189.585 16.4466 190.275 17.3385 190.77 18.4062C191.264 19.4609 191.512 20.6979 191.512 22.1172C191.512 23.0938 191.382 23.9792 191.121 24.7734C190.874 25.5677 190.522 26.2839 190.066 26.9219C189.611 27.5599 189.064 28.1198 188.426 28.6016C187.788 29.0833 187.078 29.5 186.297 29.8516L192.371 41.7461V42H187.352L181.902 30.9648ZM177.098 27.1367H181.492C182.326 27.1237 183.074 27 183.738 26.7656C184.415 26.5182 184.988 26.1667 185.457 25.7109C185.874 25.3203 186.199 24.8385 186.434 24.2656C186.668 23.6927 186.785 23.0417 186.785 22.3125C186.785 21.4922 186.655 20.776 186.395 20.1641C186.147 19.5391 185.776 19.0182 185.281 18.6016C184.826 18.2109 184.272 17.918 183.621 17.7227C182.97 17.5143 182.241 17.4036 181.434 17.3906H177.098V27.1367ZM222.184 35.457H213.258L211.324 42H206.441L215.699 13.5625H219.859L228.961 42H224.098L222.184 35.457ZM214.449 31.4336H221.031L217.77 20.1836L214.449 31.4336ZM263.461 38.5039C263.07 38.9727 262.595 39.4284 262.035 39.8711C261.475 40.3008 260.844 40.6849 260.141 41.0234C259.255 41.4531 258.292 41.7852 257.25 42.0195C256.208 42.2669 255.095 42.3906 253.91 42.3906C252.816 42.3906 251.794 42.2474 250.844 41.9609C249.893 41.6745 249.034 41.2708 248.266 40.75C247.497 40.2292 246.807 39.5977 246.195 38.8555C245.596 38.1133 245.095 37.2865 244.691 36.375C244.236 35.4245 243.891 34.3763 243.656 33.2305C243.422 32.0846 243.298 30.8802 243.285 29.6172V25.9844C243.298 24.7604 243.409 23.5885 243.617 22.4688C243.839 21.349 244.158 20.3138 244.574 19.3633C244.978 18.4648 245.46 17.6445 246.02 16.9023C246.579 16.1602 247.217 15.5156 247.934 14.9688C248.715 14.3958 249.574 13.9531 250.512 13.6406C251.462 13.3281 252.491 13.1719 253.598 13.1719C255.095 13.1719 256.423 13.3737 257.582 13.7773C258.741 14.181 259.73 14.7604 260.551 15.5156C261.384 16.2839 262.042 17.2148 262.523 18.3086C263.005 19.3893 263.311 20.6068 263.441 21.9609H258.832C258.715 21.2188 258.539 20.5482 258.305 19.9492C258.07 19.3372 257.758 18.8229 257.367 18.4062C256.951 17.9635 256.436 17.625 255.824 17.3906C255.225 17.1562 254.516 17.0391 253.695 17.0391C253.096 17.0391 252.543 17.1432 252.035 17.3516C251.527 17.5469 251.072 17.8203 250.668 18.1719C250.199 18.5755 249.789 19.0768 249.438 19.6758C249.099 20.2617 248.819 20.9193 248.598 21.6484C248.402 22.2865 248.259 22.9701 248.168 23.6992C248.077 24.4284 248.031 25.1771 248.031 25.9453V29.6172C248.031 30.5156 248.09 31.3685 248.207 32.1758C248.337 32.9831 248.526 33.7318 248.773 34.4219C248.969 34.9427 249.197 35.431 249.457 35.8867C249.73 36.3424 250.049 36.7461 250.414 37.0977C250.87 37.5534 251.397 37.9049 251.996 38.1523C252.608 38.3997 253.298 38.5299 254.066 38.543C254.522 38.543 254.984 38.5169 255.453 38.4648C255.922 38.3997 256.371 38.3021 256.801 38.1719C257.217 38.0417 257.602 37.8789 257.953 37.6836C258.305 37.4753 258.585 37.2344 258.793 36.9609L258.812 31.2773H253.656V27.625H263.422L263.461 38.5039ZM297.141 29.2461H285.383V38.1328H299.113V42H280.676V13.5625H299.016V17.4492H285.383V25.457H297.141V29.2461ZM361.629 27.1562L367.586 13.5625H372.82L363.914 31.8438L363.875 42H359.285L359.266 31.707L350.438 13.5625H355.652L361.629 27.1562ZM407.77 29.6758C407.77 30.8216 407.665 31.9284 407.457 32.9961C407.262 34.0638 406.975 35.0729 406.598 36.0234C406.194 36.974 405.693 37.8529 405.094 38.6602C404.495 39.4544 403.805 40.138 403.023 40.7109C402.268 41.2318 401.428 41.6419 400.504 41.9414C399.592 42.2409 398.59 42.3906 397.496 42.3906C396.363 42.3906 395.322 42.2344 394.371 41.9219C393.434 41.5964 392.594 41.1536 391.852 40.5938C391.096 40.0208 390.432 39.3307 389.859 38.5234C389.299 37.7161 388.831 36.8307 388.453 35.8672C388.089 34.9427 387.815 33.9596 387.633 32.918C387.451 31.8633 387.359 30.7826 387.359 29.6758V25.9258C387.359 24.7669 387.457 23.6471 387.652 22.5664C387.848 21.4857 388.141 20.4635 388.531 19.5C388.909 18.5755 389.371 17.7292 389.918 16.9609C390.478 16.1797 391.135 15.5026 391.891 14.9297C392.62 14.3698 393.447 13.9401 394.371 13.6406C395.309 13.3281 396.337 13.1719 397.457 13.1719C398.59 13.1719 399.632 13.3281 400.582 13.6406C401.533 13.9531 402.385 14.3893 403.141 14.9492C403.896 15.5091 404.553 16.1667 405.113 16.9219C405.673 17.6771 406.142 18.5039 406.52 19.4023C406.936 20.3659 407.249 21.401 407.457 22.5078C407.665 23.6016 407.77 24.7409 407.77 25.9258V29.6758ZM403.043 25.8867C403.03 25.1706 402.984 24.4674 402.906 23.7773C402.841 23.0872 402.724 22.4297 402.555 21.8047C402.359 21.0885 402.099 20.4375 401.773 19.8516C401.461 19.2526 401.077 18.7448 400.621 18.3281C400.217 17.9635 399.755 17.6771 399.234 17.4688C398.714 17.2604 398.121 17.1562 397.457 17.1562C396.819 17.1562 396.246 17.2604 395.738 17.4688C395.23 17.6641 394.788 17.9375 394.41 18.2891C393.954 18.7188 393.57 19.2331 393.258 19.832C392.945 20.418 392.704 21.0755 392.535 21.8047C392.379 22.4297 392.262 23.0938 392.184 23.7969C392.118 24.487 392.086 25.1836 392.086 25.8867V29.6758C392.086 30.3659 392.118 31.0495 392.184 31.7266C392.249 32.4036 392.359 33.0547 392.516 33.6797C392.685 34.3828 392.913 35.0404 393.199 35.6523C393.499 36.2513 393.857 36.7591 394.273 37.1758C394.677 37.5664 395.139 37.8789 395.66 38.1133C396.194 38.3346 396.806 38.4453 397.496 38.4453C398.16 38.4453 398.759 38.3346 399.293 38.1133C399.84 37.8919 400.309 37.5924 400.699 37.2148C401.155 36.7852 401.533 36.2773 401.832 35.6914C402.145 35.0924 402.392 34.4349 402.574 33.7188C402.73 33.0938 402.841 32.4427 402.906 31.7656C402.984 31.0755 403.03 30.3789 403.043 29.6758V25.8867ZM443.012 13.5625L443.031 32.5859C443.031 34.0573 442.803 35.3984 442.348 36.6094C441.905 37.8073 441.273 38.8359 440.453 39.6953C439.62 40.5547 438.617 41.2188 437.445 41.6875C436.286 42.1562 434.984 42.3906 433.539 42.3906C432.12 42.3906 430.837 42.1628 429.691 41.707C428.546 41.2383 427.569 40.5742 426.762 39.7148C425.941 38.8555 425.303 37.8203 424.848 36.6094C424.405 35.3984 424.177 34.0573 424.164 32.5859L424.203 13.5625H428.832L428.871 32.5859C428.884 33.4844 428.995 34.3112 429.203 35.0664C429.411 35.8086 429.717 36.4401 430.121 36.9609C430.512 37.4557 430.987 37.8464 431.547 38.1328C432.12 38.4062 432.784 38.543 433.539 38.543C434.307 38.543 434.984 38.4062 435.57 38.1328C436.169 37.8464 436.671 37.4427 437.074 36.9219C437.478 36.388 437.784 35.7565 437.992 35.0273C438.201 34.2852 438.318 33.4714 438.344 32.5859L438.383 13.5625H443.012ZM470.09 30.9648H465.285V42H460.598V13.5625H469.621C471.092 13.5755 472.447 13.7643 473.684 14.1289C474.921 14.4935 475.988 15.0273 476.887 15.7305C477.772 16.4466 478.462 17.3385 478.957 18.4062C479.452 19.4609 479.699 20.6979 479.699 22.1172C479.699 23.0938 479.569 23.9792 479.309 24.7734C479.061 25.5677 478.71 26.2839 478.254 26.9219C477.798 27.5599 477.251 28.1198 476.613 28.6016C475.975 29.0833 475.266 29.5 474.484 29.8516L480.559 41.7461V42H475.539L470.09 30.9648ZM465.285 27.1367H469.68C470.513 27.1237 471.262 27 471.926 26.7656C472.603 26.5182 473.176 26.1667 473.645 25.7109C474.061 25.3203 474.387 24.8385 474.621 24.2656C474.855 23.6927 474.973 23.0417 474.973 22.3125C474.973 21.4922 474.842 20.776 474.582 20.1641C474.335 19.5391 473.964 19.0182 473.469 18.6016C473.013 18.2109 472.46 17.918 471.809 17.7227C471.158 17.5143 470.428 17.4036 469.621 17.3906H465.285V27.1367Z" fill="white"/>
</g>
<g clip-path="url(#clip0_57_6)">
<path d="M318.41 180.599C313.479 184.696 307.484 187.303 301.125 188.117C294.766 188.93 288.307 187.916 282.504 185.193C276.701 182.469 271.793 178.149 268.356 172.739C264.918 167.328 263.092 161.05 263.092 154.64C263.092 148.229 264.918 141.951 268.356 136.541C271.793 131.13 276.701 126.81 282.504 124.087C288.307 121.363 294.766 120.349 301.125 121.162C307.484 121.976 313.479 124.583 318.41 128.68C312.192 129.612 306.516 132.746 302.413 137.51C298.31 142.274 296.053 148.352 296.053 154.64C296.053 160.927 298.31 167.005 302.413 171.769C306.516 176.534 312.192 179.667 318.41 180.599Z" stroke="white" stroke-width="2" stroke-linecap="round" stroke-linejoin="round"/>
</g>
<path d="M336.523 156.156L342.48 142.562H347.715L338.809 160.844L338.77 171H334.18L334.16 160.707L325.332 142.562H330.547L336.523 156.156ZM382.586 162.25C382.456 163.63 382.13 164.887 381.609 166.02C381.089 167.139 380.405 168.096 379.559 168.891C378.699 169.698 377.677 170.323 376.492 170.766C375.32 171.195 374.018 171.41 372.586 171.41C371.414 171.41 370.333 171.254 369.344 170.941C368.367 170.616 367.495 170.16 366.727 169.574C365.984 169.027 365.333 168.37 364.773 167.602C364.227 166.82 363.764 165.967 363.387 165.043C363.009 164.132 362.723 163.142 362.527 162.074C362.345 161.007 362.254 159.893 362.254 158.734V154.848C362.254 153.741 362.345 152.673 362.527 151.645C362.71 150.616 362.983 149.646 363.348 148.734C363.738 147.719 364.24 146.801 364.852 145.98C365.477 145.147 366.193 144.438 367 143.852C367.768 143.318 368.615 142.901 369.539 142.602C370.477 142.302 371.499 142.152 372.605 142.152C374.103 142.152 375.438 142.374 376.609 142.816C377.794 143.259 378.803 143.884 379.637 144.691C380.483 145.512 381.147 146.501 381.629 147.66C382.124 148.819 382.443 150.108 382.586 151.527H377.898C377.82 150.681 377.658 149.919 377.41 149.242C377.176 148.552 376.85 147.966 376.434 147.484C376.004 147.003 375.477 146.638 374.852 146.391C374.227 146.13 373.478 146 372.605 146C371.993 146 371.44 146.085 370.945 146.254C370.464 146.423 370.034 146.664 369.656 146.977C369.135 147.354 368.699 147.849 368.348 148.461C368.009 149.06 367.729 149.73 367.508 150.473C367.339 151.124 367.208 151.82 367.117 152.562C367.039 153.292 367 154.04 367 154.809V158.734C367 159.685 367.052 160.577 367.156 161.41C367.273 162.243 367.449 163.005 367.684 163.695C367.866 164.268 368.094 164.789 368.367 165.258C368.654 165.727 368.992 166.13 369.383 166.469C369.786 166.833 370.249 167.113 370.77 167.309C371.303 167.491 371.909 167.582 372.586 167.582C373.393 167.582 374.109 167.465 374.734 167.23C375.359 166.996 375.893 166.651 376.336 166.195C376.766 165.753 377.111 165.199 377.371 164.535C377.632 163.871 377.801 163.109 377.879 162.25H382.586ZM404.527 167.133H418.102V171H399.82V142.562H404.527V167.133ZM452.152 158.246H440.395V167.133H454.125V171H435.688V142.562H454.027V146.449H440.395V154.457H452.152V158.246Z" fill="white"/>
<path d="M324.453 174.906H456.527V176.859H324.453V174.906Z" fill="white"/>
<g filter="url(#filter1_d_57_6)">
<path d="M69.1758 163.676C69.1758 163.012 69.0391 162.426 68.7656 161.918C68.4922 161.41 68.1081 160.954 67.6133 160.551C67.0924 160.173 66.474 159.835 65.7578 159.535C65.0547 159.223 64.2669 158.943 63.3945 158.695C62.0534 158.318 60.8164 157.855 59.6836 157.309C58.5638 156.749 57.6068 156.124 56.8125 155.434C56.0182 154.73 55.3932 153.936 54.9375 153.051C54.4948 152.152 54.2734 151.143 54.2734 150.023C54.2734 148.812 54.5339 147.725 55.0547 146.762C55.5755 145.785 56.2786 144.952 57.1641 144.262C58.0495 143.585 59.0781 143.07 60.25 142.719C61.4349 142.354 62.6784 142.172 63.9805 142.172C65.3607 142.172 66.6432 142.387 67.8281 142.816C69.026 143.233 70.0677 143.819 70.9531 144.574C71.8385 145.342 72.5352 146.26 73.043 147.328C73.5638 148.383 73.8242 149.555 73.8242 150.844H69.1758C69.1107 150.128 68.9544 149.477 68.707 148.891C68.4727 148.292 68.1406 147.777 67.7109 147.348C67.2682 146.931 66.7279 146.605 66.0898 146.371C65.4648 146.124 64.7422 146 63.9219 146C63.2057 146 62.5417 146.098 61.9297 146.293C61.3307 146.475 60.8099 146.736 60.3672 147.074C59.9245 147.426 59.5794 147.849 59.332 148.344C59.0846 148.839 58.9609 149.392 58.9609 150.004C58.974 150.655 59.1432 151.228 59.4688 151.723C59.7943 152.204 60.2305 152.628 60.7773 152.992C61.3372 153.357 61.9753 153.676 62.6914 153.949C63.4206 154.223 64.1823 154.477 64.9766 154.711C65.9792 154.997 66.9557 155.355 67.9062 155.785C68.8698 156.202 69.7552 156.71 70.5625 157.309C71.5651 158.064 72.3659 158.969 72.9648 160.023C73.5768 161.065 73.8828 162.27 73.8828 163.637C73.8828 164.9 73.6159 166.013 73.082 166.977C72.5612 167.94 71.8581 168.741 70.9727 169.379C70.0742 170.043 69.0326 170.544 67.8477 170.883C66.6628 171.208 65.4128 171.371 64.0977 171.371C62.7044 171.371 61.3307 171.156 59.9766 170.727C58.6224 170.284 57.444 169.646 56.4414 168.812C55.5169 168.031 54.7812 167.113 54.2344 166.059C53.7005 165.004 53.4271 163.793 53.4141 162.426H58.1016C58.1667 163.298 58.349 164.06 58.6484 164.711C58.9609 165.349 59.3841 165.876 59.918 166.293C60.4388 166.723 61.0508 167.042 61.7539 167.25C62.4701 167.458 63.2513 167.562 64.0977 167.562C64.8138 167.562 65.4779 167.478 66.0898 167.309C66.7148 167.139 67.2552 166.885 67.7109 166.547C68.1536 166.221 68.5052 165.818 68.7656 165.336C69.0391 164.854 69.1758 164.301 69.1758 163.676ZM95.4922 167.133H109.066V171H90.7852V142.562H95.4922V167.133ZM143.117 158.246H131.359V167.133H145.09V171H126.652V142.562H144.992V146.449H131.359V154.457H143.117V158.246ZM179.141 158.246H167.383V167.133H181.113V171H162.676V142.562H181.016V146.449H167.383V154.457H179.141V158.246ZM203.484 160.16V171H198.797V142.562H208.309C209.741 142.576 211.056 142.79 212.254 143.207C213.465 143.624 214.507 144.216 215.379 144.984C216.251 145.753 216.928 146.684 217.41 147.777C217.892 148.871 218.133 150.102 218.133 151.469C218.133 152.784 217.892 153.975 217.41 155.043C216.928 156.098 216.251 157.003 215.379 157.758C214.507 158.526 213.465 159.118 212.254 159.535C211.056 159.952 209.741 160.16 208.309 160.16H203.484ZM203.484 156.332H208.309C209.103 156.319 209.812 156.195 210.438 155.961C211.076 155.714 211.616 155.375 212.059 154.945C212.501 154.516 212.833 154.008 213.055 153.422C213.289 152.836 213.406 152.198 213.406 151.508C213.406 150.753 213.289 150.069 213.055 149.457C212.833 148.832 212.501 148.292 212.059 147.836C211.616 147.38 211.076 147.029 210.438 146.781C209.812 146.534 209.103 146.404 208.309 146.391H203.484V156.332Z" fill="white"/>
</g>
<g filter="url(#filter2_d_57_6)">
<line x1="4" y1="90" x2="504" y2="90" stroke="white" stroke-width="2"/>
</g>
<defs>
<filter id="filter0_d_57_6" x="24.668" y="13.1719" width="459.891" height="37.2188" filterUnits="userSpaceOnUse" color-interpolation-filters="sRGB">
<feFlood flood-opacity="0" result="BackgroundImageFix"/>
<feColorMatrix in="SourceAlpha" type="matrix" values="0 0 0 0 0 0 0 0 0 0 0 0 0 0 0 0 0 0 127 0" result="hardAlpha"/>
<feOffset dy="4"/>
<feGaussianBlur stdDeviation="2"/>
<feComposite in2="hardAlpha" operator="out"/>
<feColorMatrix type="matrix" values="0 0 0 0 0 0 0 0 0 0 0 0 0 0 0 0 0 0 0.68 0"/>
<feBlend mode="normal" in2="BackgroundImageFix" result="effect1_dropShadow_57_6"/>
<feBlend mode="normal" in="SourceGraphic" in2="effect1_dropShadow_57_6" result="shape"/>
</filter>
<filter id="filter1_d_57_6" x="49.4141" y="142.172" width="172.719" height="37.1992" filterUnits="userSpaceOnUse" color-interpolation-filters="sRGB">
<feFlood flood-opacity="0" result="BackgroundImageFix"/>
<feColorMatrix in="SourceAlpha" type="matrix" values="0 0 0 0 0 0 0 0 0 0 0 0 0 0 0 0 0 0 127 0" result="hardAlpha"/>
<feOffset dy="4"/>
<feGaussianBlur stdDeviation="2"/>
<feComposite in2="hardAlpha" operator="out"/>
<feColorMatrix type="matrix" values="0 0 0 0 0 0 0 0 0 0 0 0 0 0 0 0 0 0 0.25 0"/>
<feBlend mode="normal" in2="BackgroundImageFix" result="effect1_dropShadow_57_6"/>
<feBlend mode="normal" in="SourceGraphic" in2="effect1_dropShadow_57_6" result="shape"/>
</filter>
<filter id="filter2_d_57_6" x="0" y="89" width="508" height="10" filterUnits="userSpaceOnUse" color-interpolation-filters="sRGB">
<feFlood flood-opacity="0" result="BackgroundImageFix"/>
<feColorMatrix in="SourceAlpha" type="matrix" values="0 0 0 0 0 0 0 0 0 0 0 0 0 0 0 0 0 0 127 0" result="hardAlpha"/>
<feOffset dy="4"/>
<feGaussianBlur stdDeviation="2"/>
<feComposite in2="hardAlpha" operator="out"/>
<feColorMatrix type="matrix" values="0 0 0 0 0 0 0 0 0 0 0 0 0 0 0 0 0 0 0.68 0"/>
<feBlend mode="normal" in2="BackgroundImageFix" result="effect1_dropShadow_57_6"/>
<feBlend mode="normal" in="SourceGraphic" in2="effect1_dropShadow_57_6" result="shape"/>
</filter>
<clipPath id="clip0_57_6">
<rect width="90" height="90" fill="white" transform="translate(296.64 91) rotate(45)"/>
</clipPath>
</defs>
</svg>
